<svg width="20" height="20" viewBox="0 0 20 20" fill="none" xmlns="http://www.w3.org/2000/svg">
<g filter="url(#filter0_d_6_38)">
<path fill-rule="evenodd" clip-rule="evenodd" d="M0 2C0 1.46957 0.210714 0.960859 0.585786 0.585786C0.960859 0.210714 1.46957 0 2 0L18 0C18.5304 0 19.0391 0.210714 19.4142 0.585786C19.7893 0.960859 20 1.46957 20 2V7.33333L18.9333 6.532C17.7779 5.66543 16.3487 5.24471 14.908 5.3471C13.4673 5.44948 12.112 6.06809 11.0907 7.08936C10.0694 8.11063 9.45081 9.46601 9.34843 10.9067C9.24604 12.3473 9.66676 13.7766 10.5333 14.932L10.6667 15.1107V20H2C1.46957 20 0.960859 19.7893 0.585786 19.4142C0.210714 19.0391 0 18.5304 0 18L0 2ZM10.6667 6.66667H4V5.33333H10.6667V6.66667ZM4 10.6667H8V9.33333H4V10.6667Z" fill="white"/>
<path fill-rule="evenodd" clip-rule="evenodd" d="M15.3334 6.66666C14.4143 6.66653 13.5156 6.93778 12.7501 7.44639C11.9846 7.95499 11.3864 8.67832 11.0304 9.52562C10.6743 10.3729 10.5765 11.3065 10.749 12.2092C10.9215 13.112 11.3567 13.9436 12 14.6V19.3333C12 19.4571 12.0345 19.5785 12.0996 19.6838C12.1647 19.7891 12.2578 19.8742 12.3685 19.9296C12.4793 19.985 12.6032 20.0084 12.7266 19.9973C12.8499 19.9862 12.9676 19.9409 13.0667 19.8667L15.3334 18.1667L17.6 19.8667C17.6991 19.9409 17.8168 19.9862 17.9401 19.9973C18.0635 20.0084 18.1874 19.985 18.2982 19.9296C18.4089 19.8742 18.502 19.7891 18.5671 19.6838C18.6322 19.5785 18.6667 19.4571 18.6667 19.3333V14.6C19.31 13.9436 19.7452 13.112 19.9177 12.2092C20.0902 11.3065 19.9924 10.3729 19.6363 9.52562C19.2803 8.67832 18.6821 7.95499 17.9166 7.44639C17.1511 6.93778 16.2524 6.66653 15.3334 6.66666ZM13.3334 18V15.5507C13.94 15.8387 14.6174 16 15.3334 16C16.0494 16 16.7267 15.84 17.3334 15.5507V18L15.7334 16.8C15.618 16.7134 15.4776 16.6667 15.3334 16.6667C15.1891 16.6667 15.0487 16.7134 14.9334 16.8L13.3334 18Z" fill="white"/>
</g>
<defs>
<filter id="filter0_d_6_38" x="-4" y="0" width="28.0005" height="28" filterUnits="userSpaceOnUse" color-interpolation-filters="sRGB">
<feFlood flood-opacity="0" result="BackgroundImageFix"/>
<feColorMatrix in="SourceAlpha" type="matrix" values="0 0 0 0 0 0 0 0 0 0 0 0 0 0 0 0 0 0 127 0" result="hardAlpha"/>
<feOffset dy="4"/>
<feGaussianBlur stdDeviation="2"/>
<feComposite in2="hardAlpha" operator="out"/>
<feColorMatrix type="matrix" values="0 0 0 0 0 0 0 0 0 0 0 0 0 0 0 0 0 0 0.25 0"/>
<feBlend mode="normal" in2="BackgroundImageFix" result="effect1_dropShadow_6_38"/>
<feBlend mode="normal" in="SourceGraphic" in2="effect1_dropShadow_6_38" result="shape"/>
</filter>
</defs>
</svg>
