<svg width="145" height="150" viewBox="0 0 145 150" fill="none" xmlns="http://www.w3.org/2000/svg">
<path d="M145 114.72H0V114.795H145V114.72Z" fill="#E6E6E6"/>
<path d="M40.3477 118.167H24.36V118.242H40.3477V118.167Z" fill="#E6E6E6"/>
<path d="M21.2222 118.203H19.3981V118.278H21.2222V118.203Z" fill="#E6E6E6"/>
<path d="M71.1602 116.889H67.7614V116.964H71.1602V116.889Z" fill="#E6E6E6"/>
<path d="M91.524 116.889H72.8306V116.964H91.524V116.889Z" fill="#E6E6E6"/>
<path d="M118.195 118.278H106.015V118.353H118.195V118.278Z" fill="#E6E6E6"/>
<path d="M104.406 118.278H100.534V118.353H104.406V118.278Z" fill="#E6E6E6"/>
<path d="M131.448 116.925H121.121V117H131.448V116.925Z" fill="#E6E6E6"/>
<path d="M68.73 101.34H12.7339C12.2952 101.339 11.8748 101.158 11.5649 100.837C11.255 100.516 11.0809 100.081 11.0809 99.627V18.198C11.0847 17.7468 11.2605 17.3154 11.57 16.9975C11.8795 16.6795 12.2977 16.5008 12.7339 16.5H68.73C69.1692 16.5 69.5904 16.6805 69.9009 17.0017C70.2115 17.323 70.3859 17.7587 70.3859 18.213V99.627C70.3859 100.081 70.2115 100.517 69.9009 100.838C69.5904 101.16 69.1692 101.34 68.73 101.34ZM12.7339 16.56C12.3145 16.5608 11.9125 16.7337 11.6161 17.0408C11.3198 17.3479 11.1534 17.7641 11.1534 18.198V99.627C11.1534 100.061 11.3198 100.477 11.6161 100.784C11.9125 101.091 12.3145 101.264 12.7339 101.265H68.73C69.1497 101.264 69.552 101.091 69.8488 100.784C70.1456 100.477 70.3126 100.061 70.3134 99.627V18.198C70.3126 17.7638 70.1456 17.3476 69.8488 17.0406C69.552 16.7336 69.1497 16.5608 68.73 16.56H12.7339Z" fill="#E6E6E6"/>
<path d="M131.46 101.34H75.4609C75.022 101.339 74.6012 101.158 74.2908 100.837C73.9805 100.516 73.8058 100.081 73.805 99.627V18.198C73.8096 17.7465 73.986 17.3151 74.2959 16.9973C74.6059 16.6794 75.0245 16.5008 75.4609 16.5H131.46C131.896 16.5016 132.313 16.6807 132.622 16.9985C132.931 17.3164 133.106 17.7473 133.11 18.198V99.627C133.11 100.08 132.936 100.515 132.627 100.836C132.318 101.157 131.898 101.338 131.46 101.34ZM75.4609 16.56C75.0412 16.5608 74.6389 16.7336 74.3421 17.0406C74.0453 17.3476 73.8783 17.7638 73.8775 18.198V99.627C73.8783 100.061 74.0453 100.477 74.3421 100.784C74.6389 101.091 75.0412 101.264 75.4609 101.265H131.46C131.88 101.264 132.282 101.091 132.579 100.784C132.875 100.477 133.043 100.061 133.043 99.627V18.198C133.043 17.7638 132.875 17.3476 132.579 17.0406C132.282 16.7336 131.88 16.5608 131.46 16.56H75.4609Z" fill="#E6E6E6"/>
<path d="M57.0923 69.729L128.409 69.729V22.089L57.0923 22.089V69.729Z" fill="#E0E0E0"/>
<path d="M56.0193 69.729L127.907 69.729V22.089L56.0193 22.089V69.729Z" fill="#F5F5F5"/>
<path d="M57.0923 70.8L128.409 70.8V69.729L57.0923 69.729V70.8Z" fill="#EBEBEB"/>
<path d="M51.1067 70.8L120.646 70.8V69.729L51.1067 69.729V70.8Z" fill="#F5F5F5"/>
<path d="M126.402 67.707V24.108L57.5215 24.108V67.707H126.402Z" fill="#FAFAFA"/>
<path d="M109.62 67.707L100.792 24.111H89.5317L98.3564 67.707H109.62Z" fill="white"/>
<path d="M95.1722 67.707L86.3446 24.111H81.1188L89.9464 67.707H95.1722Z" fill="white"/>
<path d="M57.7129 63.147V23.838H57.5215V63.147H57.7129Z" fill="#D4E1FD"/>
<path d="M129.537 22.5V39.45H125.187C125.187 39.45 117.395 34.191 115.617 23.373C115.575 23.1153 115.588 22.8512 115.654 22.5991C115.721 22.3469 115.84 22.1128 116.002 21.9129C116.165 21.7131 116.368 21.5523 116.597 21.4418C116.826 21.3313 117.076 21.2737 117.328 21.273H128.348C128.504 21.2718 128.659 21.3027 128.804 21.3639C128.948 21.4251 129.08 21.5154 129.19 21.6295C129.301 21.7437 129.389 21.8794 129.448 22.0288C129.508 22.1782 129.538 22.3384 129.537 22.5Z" fill="#E6E6E6"/>
<path d="M129.537 66.171V40.35H125.187C125.187 40.35 122.693 45.564 120.208 51.558C119.551 53.153 119.287 54.8914 119.438 56.6179C119.589 58.3445 120.151 60.0054 121.074 61.4525C121.997 62.8997 123.251 64.0879 124.726 64.9113C126.201 65.7346 127.85 66.1674 129.526 66.171H129.537Z" fill="#E6E6E6"/>
<path d="M125.326 40.35H129.378C129.618 40.35 129.813 40.1485 129.813 39.9V39.432C129.813 39.1835 129.618 38.982 129.378 38.982H125.326C125.086 38.982 124.891 39.1835 124.891 39.432V39.9C124.891 40.1485 125.086 40.35 125.326 40.35Z" fill="#F5F5F5"/>
<path d="M54.7897 22.5V39.45H59.1397C59.1397 39.45 66.9349 34.191 68.7097 23.373C68.7518 23.1153 68.7392 22.8512 68.6726 22.5991C68.6061 22.3469 68.4873 22.1128 68.3245 21.9129C68.1617 21.7131 67.9587 21.5523 67.7298 21.4418C67.5008 21.3313 67.2514 21.2737 66.9987 21.273H55.97C55.8145 21.273 55.6605 21.3048 55.517 21.3665C55.3734 21.4282 55.243 21.5187 55.1333 21.6327C55.0237 21.7468 54.9368 21.8821 54.8779 22.0309C54.8189 22.1797 54.7889 22.3392 54.7897 22.5Z" fill="#E6E6E6"/>
<path d="M54.7897 66.171V40.35H59.1397C59.1397 40.35 61.6337 45.564 64.1219 51.558C64.7784 53.1533 65.0429 54.8919 64.8916 56.6187C64.7403 58.3454 64.1781 60.0066 63.255 61.4538C62.3319 62.901 61.0768 64.0892 59.6017 64.9123C58.1266 65.7354 56.4773 66.1679 54.8013 66.171H54.7897Z" fill="#E6E6E6"/>
<path d="M59.0005 38.982H54.9492C54.7089 38.982 54.5142 39.1835 54.5142 39.432V39.9C54.5142 40.1485 54.7089 40.35 54.9492 40.35H59.0005C59.2407 40.35 59.4355 40.1485 59.4355 39.9V39.432C59.4355 39.1835 59.2407 38.982 59.0005 38.982Z" fill="#F5F5F5"/>
<path d="M22.3213 55.368H39.2225V29.253L22.3213 29.253L22.3213 55.368Z" fill="#E6E6E6"/>
<path d="M19.8737 55.368H38.7875V29.253L19.8737 29.253L19.8737 55.368Z" fill="#F0F0F0"/>
<path d="M36.8387 53.352V31.272H21.8254V53.352H36.8387Z" fill="white"/>
<path d="M32.3843 46.8V44.139C32.3843 42.4681 31.7427 40.8657 30.6006 39.6842C29.4585 38.5028 27.9095 37.839 26.2943 37.839V40.5C26.2943 42.1709 26.9359 43.7733 28.078 44.9548C29.2201 46.1363 30.7691 46.8 32.3843 46.8Z" fill="#E6E6E6"/>
<path d="M55.1812 114.72H67.6251V84.192H55.1812V114.72Z" fill="#E0E0E0"/>
<path d="M58.5046 114.72H55.1812V108.96H61.9904L58.5046 114.72Z" fill="#FAFAFA"/>
<path d="M117.876 114.72H130.32V84.192H117.876V114.72Z" fill="#EBEBEB"/>
<path d="M55.1812 112.737L120.773 112.737V84.192H55.1812V112.737Z" fill="#FAFAFA"/>
<path d="M117.453 114.72H120.776V108.96H113.97L117.453 114.72Z" fill="#FAFAFA"/>
<path d="M57.7593 96.957L118.198 96.957V87.009H57.7593V96.957Z" fill="#EBEBEB"/>
<path d="M57.7593 109.821L118.198 109.821V99.873H57.7593V109.821Z" fill="#EBEBEB"/>
<path d="M68.3675 96.957H118.195V87.009H68.3675V96.957Z" fill="#E0E0E0"/>
<path d="M76.4034 89.733H73.428C71.7576 92.268 70.9456 96.957 74.9157 96.957C78.8858 96.957 78.0767 92.268 76.4034 89.733Z" fill="#F5F5F5"/>
<path d="M105.371 73.731H110.731C110.731 73.731 109.8 76.062 109.8 77.436C109.8 78.81 113.874 84.189 108.06 84.189C102.245 84.189 106.32 78.81 106.32 77.436C106.32 76.062 105.371 73.731 105.371 73.731Z" fill="#EBEBEB"/>
<path d="M98.0519 81.099C98.0519 82.8 95.2244 84.189 91.7676 84.189H88.6501C85.1933 84.189 82.3658 82.8 82.3658 81.099H98.0519Z" fill="#F0F0F0"/>
<path d="M96.4511 93.867C96.4511 95.568 94.5458 96.957 92.2171 96.957H90.1117C87.7917 96.957 85.8777 95.568 85.8777 93.867H96.4511Z" fill="#F5F5F5"/>
<path d="M96.4511 91.983C96.4511 93.684 94.5458 95.073 92.2171 95.073H90.1117C87.7917 95.073 85.8777 93.684 85.8777 91.983H96.4511Z" fill="#F5F5F5"/>
<path d="M68.3675 109.821H118.195V99.873H68.3675V109.821Z" fill="#E0E0E0"/>
<path d="M85.3905 106.731C85.3905 108.429 83.4852 109.821 81.1565 109.821H79.054C76.734 109.821 74.8171 108.429 74.8171 106.731H85.3905Z" fill="#F5F5F5"/>
<path d="M85.3905 104.847C85.3905 106.548 83.4852 107.937 81.1565 107.937H79.054C76.734 107.937 74.8171 106.548 74.8171 104.847H85.3905Z" fill="#F5F5F5"/>
<path d="M110.574 106.731C110.574 108.429 108.666 109.821 106.337 109.821H104.235C101.915 109.821 99.9978 108.429 99.9978 106.731H110.574Z" fill="#F5F5F5"/>
<path d="M110.574 104.847C110.574 106.548 108.666 107.937 106.337 107.937H104.235C101.915 107.937 99.9978 106.548 99.9978 104.847H110.574Z" fill="#F5F5F5"/>
<path d="M33.1818 109.335C32.4481 101.487 31.7898 79.566 32.219 75.63L33.234 74.862C33.234 74.862 32.9237 89.178 33.4689 101.199C34.0141 113.22 33.5472 107.547 33.7763 109.335H33.1818Z" fill="#E0E0E0"/>
<path d="M30.3485 93.723C28.304 92.061 24.1222 90.879 19.865 90.885C18.1917 90.9 24.94 92.82 27.7617 94.95C29.9454 96.606 32.4017 99.39 33.2456 100.935C32.7033 97.683 32.3959 95.4 30.3485 93.723Z" fill="#E0E0E0"/>
<path d="M34.4056 96.18C36.105 94.449 40.0258 93.12 44.2656 92.967C45.9302 92.91 39.5908 95.082 37.2273 97.308C35.3887 99.039 33.5037 101.901 32.9846 103.473C32.8657 100.2 32.7062 97.911 34.4056 96.18Z" fill="#E0E0E0"/>
<path d="M30.2586 81.999C28.5186 80.592 24.9864 79.599 21.3788 79.599C19.9636 79.599 25.6882 81.237 28.0662 83.043C29.9164 84.444 32.0015 86.802 32.7062 88.11C32.2509 85.353 31.9899 83.4 30.2586 81.999Z" fill="#E0E0E0"/>
<path d="M33.6922 84.081C35.1422 82.614 38.4511 81.489 42.0471 81.36C43.4565 81.312 38.0886 83.16 36.0847 85.035C34.5303 86.499 32.9353 88.935 32.4945 90.255C32.3901 87.495 32.2538 85.548 33.6922 84.081Z" fill="#E0E0E0"/>
<path d="M32.857 73.359C33.8807 72.159 36.3602 71.148 39.1007 70.887C40.1766 70.782 36.1688 72.441 34.7362 73.983C33.6226 75.183 32.5293 77.118 32.2625 78.162C32.0392 76.044 31.8333 74.55 32.857 73.359Z" fill="#E0E0E0"/>
<path d="M32.19 74.151C31.4505 73.122 29.6931 72.228 27.7646 71.979C27.0077 71.88 29.8497 73.338 30.8821 74.679C31.6896 75.7572 32.3035 76.9765 32.6946 78.279C32.8106 76.455 32.9266 75.18 32.19 74.151Z" fill="#E0E0E0"/>
<path d="M33.3152 114.72C32.2355 114.72 31.1968 114.292 30.4118 113.525C29.6268 112.758 29.155 111.71 29.0928 110.595L28.71 106.911H37.903L37.5318 110.595C37.469 111.709 36.9977 112.756 36.2141 113.522C35.4305 114.289 34.3937 114.717 33.3152 114.72Z" fill="#F0F0F0"/>
<path d="M38.5091 108.432H28.1242L27.8255 105.645H38.8049L38.5091 108.432Z" fill="#EBEBEB"/>
<path d="M72.5 128.268C103.554 128.268 128.728 126.748 128.728 124.872C128.728 122.996 103.554 121.476 72.5 121.476C41.4461 121.476 16.2719 122.996 16.2719 124.872C16.2719 126.748 41.4461 128.268 72.5 128.268Z" fill="#F5F5F5"/>
<path d="M95.12 56.451C94.9721 56.904 94.83 57.294 94.6734 57.705C94.5168 58.116 94.3544 58.512 94.1862 58.905C93.8469 59.706 93.4699 60.489 93.061 61.263C92.6469 62.0486 92.1878 62.8079 91.6864 63.537C91.1609 64.3084 90.5582 65.0203 89.8884 65.661C89.7086 65.826 89.5259 65.991 89.3229 66.144C89.2156 66.225 89.1373 66.294 89.0068 66.381C88.8763 66.468 88.7516 66.546 88.6153 66.621C88.0539 66.9286 87.4264 67.0844 86.7912 67.074C86.2094 67.0618 85.6361 66.927 85.1063 66.678C84.6485 66.4616 84.2173 66.1897 83.8216 65.868C83.1185 65.2831 82.4925 64.6053 81.9598 63.852C81.6959 63.498 81.461 63.123 81.2348 62.748C81.0086 62.373 80.8056 62.001 80.6055 61.578L81.954 60.711C82.186 60.99 82.4528 61.311 82.7138 61.587C82.9748 61.863 83.2503 62.148 83.5229 62.415C84.041 62.9297 84.6118 63.3844 85.2252 63.771C85.8052 64.119 86.3852 64.293 86.7361 64.233C86.911 64.2063 87.0776 64.1385 87.2233 64.035L87.3451 63.939C87.3799 63.912 87.4524 63.84 87.5075 63.795C87.6235 63.693 87.7395 63.573 87.8526 63.453C88.8158 62.3276 89.622 61.0684 90.248 59.712C90.5989 59.013 90.9179 58.29 91.2311 57.561C91.3848 57.198 91.5356 56.829 91.6777 56.46C91.8198 56.091 91.9677 55.707 92.0895 55.371L95.12 56.451Z" fill="#E4897B"/>
<path d="M95.99 55.377C96.4424 57.414 92.1243 62.622 92.1243 62.622L88.2412 59.7C89.1011 58.0126 90.1336 56.4255 91.321 54.966C93.09 52.875 95.4912 53.142 95.99 55.377Z" fill="#1A2980"/>
<path opacity="0.7" d="M95.99 55.377C96.4424 57.414 92.1243 62.622 92.1243 62.622L88.2412 59.7C89.1011 58.0126 90.1336 56.4255 91.321 54.966C93.09 52.875 95.4912 53.142 95.99 55.377Z" fill="white"/>
<path d="M105.441 55.074C104.676 57.3867 104.079 59.7553 103.655 62.16C103.35 63.837 103.13 65.442 102.964 66.9C102.576 70.317 102.486 72.936 102.332 73.815L91.1325 72.255C90.3727 59.745 93.6961 53.547 93.6961 53.547C94.5967 53.4343 95.5033 53.3792 96.4105 53.382C96.6019 53.382 96.7962 53.382 96.9905 53.397C98.5888 53.5231 100.179 53.7444 101.752 54.06C102.042 54.117 102.353 54.183 102.645 54.252C104.139 54.6 105.441 55.074 105.441 55.074Z" fill="#1A2980"/>
<path opacity="0.7" d="M105.441 55.074C104.676 57.3867 104.079 59.7553 103.655 62.16C103.35 63.837 103.13 65.442 102.964 66.9C102.576 70.317 102.486 72.936 102.332 73.815L91.1325 72.255C90.3727 59.745 93.6961 53.547 93.6961 53.547C94.5967 53.4343 95.5033 53.3792 96.4105 53.382C96.6019 53.382 96.7962 53.382 96.9905 53.397C98.5888 53.5231 100.179 53.7444 101.752 54.06C102.042 54.117 102.353 54.183 102.645 54.252C104.139 54.6 105.441 55.074 105.441 55.074Z" fill="white"/>
<path d="M103.655 62.16C103.35 63.837 103.13 65.442 102.964 66.9L101.451 63.282L103.655 62.16Z" fill="#1A2980"/>
<path opacity="0.5" d="M103.655 62.16C103.35 63.837 103.13 65.442 102.964 66.9L101.451 63.282L103.655 62.16Z" fill="white"/>
<path d="M85.55 120.99L83.5548 120.273L84.6249 115.299L86.6201 116.016L85.55 120.99Z" fill="#E4897B"/>
<path d="M104.748 122.163H102.637L100.99 117.099H103.104L104.748 122.163Z" fill="#E4897B"/>
<path d="M84.6249 115.302L84.071 117.864L86.0691 118.581L86.6201 116.016L84.6249 115.302Z" fill="#CE6F64"/>
<path d="M103.104 117.102H100.99L101.839 119.712H103.953L103.104 117.102Z" fill="#CE6F64"/>
<path d="M83.4823 117.12L86.8666 118.32C86.8666 118.32 90.1755 104.82 91.2166 98.091C91.5298 96.045 92.2374 93.213 93.09 90.189C94.163 86.379 95.4709 82.269 96.5323 79.053C97.6546 75.666 98.4956 73.272 98.4956 73.272L91.1325 72.246C91.1325 72.246 85.5239 90.036 84.8917 96.675C84.2305 103.587 83.4823 117.12 83.4823 117.12Z" fill="#1A2980"/>
<path opacity="0.6" d="M83.4823 117.12L86.8666 118.32C86.8666 118.32 90.1755 104.82 91.2166 98.091C91.5298 96.045 92.2374 93.213 93.09 90.189C94.163 86.379 95.4709 82.269 96.5323 79.053C97.6546 75.666 98.4956 73.272 98.4956 73.272L91.1325 72.246C91.1325 72.246 85.5239 90.036 84.8917 96.675C84.2305 103.587 83.4823 117.12 83.4823 117.12Z" fill="black"/>
<path opacity="0.4" d="M93.09 90.198C94.163 86.388 95.4709 82.278 96.5323 79.062L95.874 77.301C93.8991 79.434 92.9682 86.382 93.09 90.198Z" fill="black"/>
<path d="M95.1026 72.81C95.1026 72.81 94.7401 91.536 95.236 97.92C95.7812 104.91 100.845 119.22 100.845 119.22H104.716C104.716 119.22 102.132 106.137 101.34 99.348C100.439 91.614 102.329 73.83 102.329 73.83L95.1026 72.81Z" fill="#1A2980"/>
<path opacity="0.6" d="M95.1026 72.81C95.1026 72.81 94.7401 91.536 95.236 97.92C95.7812 104.91 100.845 119.22 100.845 119.22H104.716C104.716 119.22 102.132 106.137 101.34 99.348C100.439 91.614 102.329 73.83 102.329 73.83L95.1026 72.81Z" fill="black"/>
<path d="M102.353 121.908H104.931C104.973 121.908 105.013 121.923 105.046 121.951C105.079 121.978 105.101 122.016 105.11 122.058L105.528 124.002C105.538 124.049 105.537 124.098 105.526 124.145C105.514 124.192 105.493 124.236 105.463 124.273C105.433 124.31 105.396 124.34 105.353 124.36C105.311 124.38 105.265 124.39 105.218 124.389C104.388 124.374 103.785 124.326 102.741 124.326C102.097 124.326 100.16 124.395 99.2757 124.395C98.3912 124.395 98.2723 123.495 98.6348 123.405C100.262 123.036 101.488 122.529 102.01 122.043C102.105 121.956 102.226 121.908 102.353 121.908Z" fill="#263238"/>
<path d="M83.6476 120.039L85.8283 120.819C85.8682 120.834 85.9022 120.862 85.9249 120.899C85.9475 120.936 85.9574 120.979 85.953 121.023L85.7326 123C85.7276 123.048 85.712 123.094 85.6871 123.135C85.6622 123.176 85.6287 123.21 85.589 123.236C85.5493 123.261 85.5045 123.277 85.458 123.282C85.4116 123.287 85.3647 123.281 85.3208 123.264C84.5407 122.964 83.4185 122.514 82.4209 122.16C81.2609 121.746 80.2459 121.455 78.8887 120.96C78.0709 120.66 78.1289 119.727 78.5001 119.76C80.1792 119.967 81.4668 120.384 83.1053 120.006C83.2855 119.966 83.4731 119.977 83.6476 120.039Z" fill="#263238"/>
<path d="M81.9598 61.584L82.8124 59.364L80.1154 59.268C79.9399 59.678 79.8959 60.1355 79.9898 60.5733C80.0837 61.0111 80.3107 61.4063 80.6374 61.701L81.9598 61.584Z" fill="#E4897B"/>
<path d="M83.1053 57.87L80.9912 58.293L80.1154 59.268L82.8124 59.364L83.1053 57.87Z" fill="#E4897B"/>
<path d="M96.4772 62.496C96.0451 62.494 95.6301 62.3212 95.3172 62.013C95.0809 61.7664 94.8992 61.4697 94.7845 61.1434C94.6699 60.8171 94.625 60.469 94.6531 60.123C94.714 58.713 95.7116 57.456 96.8716 57.324C97.1198 57.2932 97.3716 57.3191 97.6091 57.4C97.8467 57.4808 98.0641 57.6147 98.2462 57.792C98.4824 58.0386 98.6641 58.3353 98.7788 58.6616C98.8935 58.9879 98.9383 59.336 98.9103 59.682C98.8494 61.095 97.8518 62.352 96.6918 62.484C96.6206 62.4929 96.5489 62.4969 96.4772 62.496ZM97.0572 57.612H96.889C95.8653 57.729 94.9837 58.86 94.9257 60.129C94.9007 60.432 94.9396 60.737 95.0397 61.0229C95.1399 61.3089 95.2989 61.5689 95.5057 61.785C95.6569 61.9336 95.838 62.0459 96.036 62.1138C96.234 62.1818 96.4441 62.2037 96.6512 62.178C97.6749 62.058 98.5565 60.93 98.6145 59.661C98.6385 59.3576 98.5992 59.0524 98.4991 58.7662C98.399 58.4799 98.2406 58.2193 98.0345 58.002C97.7714 57.7438 97.4227 57.5999 97.0601 57.6L97.0572 57.612Z" fill="#FAFAFA"/>
<path d="M102.005 48.447C101.5 49.992 100.821 52.854 101.755 54.06C101.217 54.5036 100.593 54.8224 99.9259 54.9948C99.2584 55.1671 98.563 55.189 97.8866 55.059C96.5729 54.846 96.6309 53.883 96.9934 53.397C98.7566 53.214 98.8842 51.897 98.7334 50.622L102.005 48.447Z" fill="#E4897B"/>
<path d="M100.676 49.335L98.7479 50.622C98.7833 50.9205 98.794 51.2216 98.7798 51.522C99.4468 51.522 100.439 50.898 100.601 50.202C100.678 49.9203 100.703 49.6263 100.676 49.335Z" fill="#CE6F64"/>
<path d="M98.1273 42.255C96.4917 42.117 95.9233 46.194 96.9441 46.977C97.9649 47.76 101.193 42.513 98.1273 42.255Z" fill="#263238"/>
<path d="M102.498 46.089C102.092 48.216 101.958 49.485 100.758 50.439C98.9654 51.876 96.5323 50.538 96.3177 48.339C96.1234 46.347 96.8223 43.203 98.9625 42.639C99.4329 42.5099 99.9273 42.5071 100.399 42.6309C100.871 42.7547 101.304 43.001 101.658 43.3464C102.012 43.6919 102.275 44.1251 102.422 44.605C102.569 45.0849 102.595 45.5957 102.498 46.089Z" fill="#E4897B"/>
<path d="M102.08 48.171C101.065 48.825 100.091 43.014 102.904 43.149C106.352 43.317 104.235 46.8 102.08 48.171Z" fill="#263238"/>
<path d="M102.822 44.184C101.471 43.407 99.4526 44.382 98.0693 43.701C96.686 43.02 94.3138 43.617 95.4274 41.532C95.7638 42.132 97.208 42.168 97.9591 41.316C98.7102 40.464 99.6991 40.218 100.279 41.151C100.859 42.084 102.469 40.218 103.84 41.418C105.029 42.447 104.861 45.357 102.822 44.184Z" fill="#263238"/>
<path d="M103.933 43.692C103.933 43.692 105.157 43.65 105.383 42.993C105.398 43.641 105.093 44.067 103.933 43.692Z" fill="#263238"/>
<path d="M103.127 48.6C102.788 49.0181 102.303 49.2811 101.778 49.332C101.082 49.389 100.865 48.714 101.169 48.105C101.442 47.556 102.135 46.866 102.779 47.091C102.919 47.1425 103.045 47.2295 103.145 47.3442C103.245 47.4589 103.315 47.5976 103.35 47.7476C103.384 47.8976 103.382 48.0542 103.343 48.2031C103.304 48.352 103.23 48.4884 103.127 48.6Z" fill="#E4897B"/>
<path d="M100.381 119.292H104.939V117.882L99.8441 117.792L100.381 119.292Z" fill="#1A2980"/>
<path d="M83.0328 117.048L87.0609 118.491L87.5104 117.147L83.0299 115.461L83.0328 117.048Z" fill="#1A2980"/>
<path d="M99.2675 46.246C99.2901 46.0719 99.2184 45.9183 99.1073 45.9028C98.9962 45.8873 98.8878 46.0159 98.8651 46.1899C98.8425 46.364 98.9142 46.5176 99.0253 46.5331C99.1364 46.5486 99.2448 46.42 99.2675 46.246Z" fill="#263238"/>
<path d="M97.3646 45.984C97.3414 46.158 97.2341 46.284 97.1239 46.284C97.0137 46.284 96.9412 46.116 96.9644 45.939C96.9876 45.762 97.0949 45.639 97.2051 45.639C97.3153 45.639 97.3878 45.81 97.3646 45.984Z" fill="#263238"/>
<path d="M97.9591 46.155C97.6885 46.6613 97.3519 47.1267 96.9586 47.538C97.0627 47.6393 97.1871 47.7156 97.3229 47.7618C97.4587 47.8079 97.6026 47.8227 97.7445 47.805L97.9591 46.155Z" fill="#DE5753"/>
<path d="M98.397 48.372C98.3223 48.3728 98.2477 48.3678 98.1737 48.357C98.1609 48.3548 98.1493 48.3477 98.1413 48.3372C98.1333 48.3267 98.1293 48.3134 98.1302 48.3C98.1323 48.2862 98.1396 48.2738 98.1504 48.2654C98.1612 48.257 98.1748 48.2533 98.1882 48.255C98.3976 48.2886 98.6116 48.2708 98.8131 48.2031C99.0146 48.1353 99.1979 48.0195 99.3482 47.865C99.3579 47.8553 99.3709 47.8498 99.3844 47.8498C99.3979 47.8498 99.4109 47.8553 99.4207 47.865C99.4299 47.8746 99.435 47.8875 99.435 47.901C99.435 47.9145 99.4299 47.9274 99.4207 47.937C99.2867 48.0765 99.1272 48.1869 98.9514 48.2616C98.7755 48.3363 98.587 48.3738 98.397 48.372Z" fill="#263238"/>
<path d="M99.9456 45.693C99.928 45.6933 99.9107 45.6887 99.8954 45.6798C99.8801 45.6708 99.8674 45.6578 99.8586 45.642C99.8009 45.5284 99.7184 45.4303 99.6178 45.3553C99.5171 45.2803 99.401 45.2306 99.2786 45.21C99.264 45.2112 99.2493 45.2092 99.2356 45.204C99.2218 45.1988 99.2093 45.1906 99.1989 45.1799C99.1885 45.1692 99.1805 45.1564 99.1754 45.1422C99.1702 45.128 99.1681 45.1129 99.1692 45.0978C99.1702 45.0827 99.1744 45.068 99.1815 45.0547C99.1885 45.0414 99.1983 45.0299 99.2101 45.0209C99.2218 45.0119 99.2354 45.0056 99.2497 45.0026C99.264 44.9995 99.2788 44.9996 99.2931 45.003C99.4504 45.0249 99.6004 45.085 99.7309 45.1783C99.8614 45.2716 99.9688 45.3956 100.044 45.54C100.051 45.5518 100.055 45.5648 100.057 45.5783C100.059 45.5919 100.058 45.6056 100.054 45.6187C100.051 45.6319 100.045 45.6442 100.036 45.6549C100.028 45.6656 100.018 45.6744 100.006 45.681C99.988 45.6919 99.9666 45.6961 99.9456 45.693Z" fill="#263238"/>
<path d="M96.6309 45.189C96.6128 45.1935 96.5939 45.1935 96.5758 45.189C96.5537 45.1737 96.5383 45.1501 96.5328 45.1231C96.5274 45.0962 96.5324 45.0681 96.5468 45.045C96.6319 44.9058 96.7478 44.7897 96.885 44.7062C97.0222 44.6227 97.1767 44.5743 97.3356 44.565C97.362 44.5658 97.3871 44.5772 97.4055 44.5968C97.4239 44.6164 97.4342 44.6427 97.4342 44.67C97.4342 44.697 97.4238 44.723 97.4053 44.7421C97.3868 44.7612 97.3617 44.772 97.3356 44.772C97.2103 44.7812 97.089 44.8211 96.9816 44.8884C96.8742 44.9557 96.7838 45.0484 96.7179 45.159C96.7067 45.1707 96.693 45.1795 96.6779 45.1847C96.6627 45.19 96.6466 45.1914 96.6309 45.189Z" fill="#263238"/>
<path d="M101.657 122.292C101.512 122.303 101.367 122.263 101.248 122.178C101.21 122.145 101.18 122.103 101.163 122.055C101.145 122.007 101.139 121.956 101.146 121.905C101.146 121.875 101.154 121.845 101.168 121.819C101.183 121.793 101.205 121.772 101.23 121.758C101.465 121.638 102.147 122.058 102.222 122.118C102.23 122.123 102.237 122.131 102.241 122.14C102.245 122.149 102.246 122.159 102.245 122.169C102.244 122.179 102.24 122.189 102.233 122.196C102.226 122.204 102.217 122.209 102.208 122.211C102.028 122.261 101.843 122.288 101.657 122.292ZM101.341 121.839C101.32 121.834 101.298 121.834 101.277 121.839C101.262 121.839 101.248 121.86 101.245 121.899C101.24 121.934 101.244 121.969 101.255 122.002C101.267 122.035 101.286 122.065 101.312 122.088C101.548 122.199 101.816 122.212 102.063 122.127C101.842 121.984 101.597 121.886 101.341 121.839Z" fill="#1A2980"/>
<path d="M102.196 122.214H102.173C101.955 122.091 101.532 121.614 101.575 121.368C101.583 121.33 101.603 121.296 101.632 121.271C101.661 121.246 101.697 121.233 101.735 121.233C101.773 121.227 101.812 121.23 101.849 121.242C101.886 121.253 101.92 121.273 101.949 121.299C102.193 121.506 102.239 122.136 102.239 122.163C102.241 122.172 102.24 122.182 102.236 122.19C102.233 122.199 102.227 122.206 102.219 122.211C102.212 122.214 102.204 122.215 102.196 122.214ZM101.77 121.314H101.746C101.683 121.314 101.677 121.353 101.674 121.365C101.648 121.509 101.918 121.872 102.135 122.043C102.119 121.795 102.032 121.557 101.886 121.359C101.852 121.334 101.811 121.322 101.77 121.326V121.314Z" fill="#1A2980"/>
<path d="M83.3576 120.255C83.0154 120.204 82.4151 120.081 82.2643 119.802C82.2439 119.76 82.2333 119.714 82.2333 119.667C82.2333 119.62 82.2439 119.574 82.2643 119.532C82.2739 119.506 82.2899 119.483 82.3107 119.465C82.3316 119.447 82.3565 119.435 82.3832 119.43C82.6732 119.373 83.3344 120.087 83.4098 120.168C83.4153 120.176 83.4182 120.186 83.4182 120.197C83.4182 120.207 83.4153 120.217 83.4098 120.225C83.4051 120.235 83.3976 120.243 83.3883 120.248C83.3789 120.254 83.3682 120.256 83.3576 120.255ZM82.4035 119.532H82.3832C82.3729 119.535 82.3633 119.54 82.3553 119.547C82.3472 119.555 82.3409 119.564 82.3368 119.574C82.3226 119.601 82.3151 119.632 82.3151 119.663C82.3151 119.693 82.3226 119.724 82.3368 119.751C82.4209 119.91 82.7428 120.051 83.2068 120.129C82.94 119.859 82.5717 119.532 82.4035 119.532Z" fill="#1A2980"/>
<path d="M83.3576 120.255C83.3445 120.255 83.332 120.25 83.3228 120.24C83.1198 120.042 82.7921 119.424 82.9052 119.205C82.9313 119.151 82.9922 119.097 83.1285 119.13C83.1768 119.142 83.2223 119.163 83.2622 119.194C83.3021 119.224 83.3356 119.263 83.3605 119.307C83.4653 119.595 83.4805 119.91 83.404 120.207C83.402 120.215 83.3981 120.223 83.3925 120.229C83.3869 120.235 83.3799 120.24 83.3721 120.243L83.3576 120.255ZM83.0531 119.223C83.0412 119.221 83.0291 119.223 83.0183 119.229C83.0074 119.234 82.9983 119.242 82.9922 119.253C82.9255 119.385 83.1314 119.853 83.3257 120.093C83.3824 119.85 83.3652 119.594 83.2764 119.361C83.2579 119.329 83.2332 119.3 83.2037 119.278C83.1743 119.256 83.1408 119.24 83.1053 119.232L83.0531 119.223Z" fill="#1A2980"/>
<path d="M106.613 57.618C106.575 58.062 106.531 58.455 106.473 58.863C106.415 59.271 106.355 59.673 106.288 60.063C106.149 60.87 105.983 61.671 105.783 62.463C105.583 63.255 105.345 64.053 105.07 64.845L104.855 65.445L104.612 66.045C104.536 66.24 104.441 66.435 104.348 66.645L104.211 66.945L104.177 67.02L104.116 67.137C104.072 67.2216 104.023 67.3038 103.971 67.383C103.648 67.8481 103.243 68.2452 102.776 68.553C102.405 68.8041 102.017 69.0286 101.616 69.225C100.883 69.5829 100.127 69.8896 99.354 70.143C97.8618 70.6364 96.3347 71.0085 94.7865 71.256L94.3863 69.669C95.7609 69.099 97.1529 68.487 98.4695 67.839C99.112 67.526 99.7383 67.1785 100.346 66.798C100.619 66.6278 100.881 66.4383 101.129 66.231C101.296 66.1016 101.44 65.942 101.552 65.76L101.575 65.697L101.668 65.451C101.732 65.286 101.796 65.124 101.848 64.95L102.016 64.44L102.17 63.918C102.364 63.216 102.541 62.499 102.692 61.767C102.843 61.035 102.982 60.297 103.098 59.556C103.214 58.815 103.324 58.056 103.414 57.348L106.613 57.618Z" fill="#E4897B"/>
<path d="M107.01 56.313C108.193 58.008 106.827 63.234 106.827 63.234L101.283 63.417C101.558 61.3866 101.983 59.3809 102.553 57.417C103.434 54.615 105.56 54.258 107.01 56.313Z" fill="#1A2980"/>
<path opacity="0.7" d="M107.01 56.313C108.193 58.008 106.827 63.234 106.827 63.234L101.283 63.417C101.558 61.3866 101.983 59.3809 102.553 57.417C103.434 54.615 105.56 54.258 107.01 56.313Z" fill="white"/>
<path d="M66.0765 36.435C62.1541 34.6755 57.9252 33.7648 53.65 33.759C38.57 33.759 26.6423 45.105 25.0009 59.994L26.8714 59.061L55.2914 65.259L66.0765 36.435Z" fill="#1A2980"/>
<path opacity="0.4" d="M66.0765 36.435C62.1541 34.6755 57.9252 33.7648 53.65 33.759C38.57 33.759 26.6423 45.105 25.0009 59.994L26.8714 59.061L55.2914 65.259L66.0765 36.435Z" fill="white"/>
<path d="M67.9441 35.502C64.0201 33.7412 59.789 32.8304 55.5118 32.826C40.4318 32.826 28.5041 44.172 26.8627 59.061L57.1619 64.326L67.9441 35.502Z" fill="#1A2980"/>
<path opacity="0.6" d="M67.9441 35.502C64.0201 33.7412 59.789 32.8304 55.5118 32.826C40.4318 32.826 28.5041 44.172 26.8627 59.061L57.1619 64.326L67.9441 35.502Z" fill="white"/>
<path d="M71.92 34.239L61.132 63.063L87.9309 79.563L89.8014 78.63C89.8014 78.63 91.872 68.619 91.582 63.051C90.9295 50.631 73.7847 33.294 73.7847 33.294L71.92 34.239Z" fill="#1A2980"/>
<path opacity="0.1" d="M71.92 34.239L61.132 63.063L87.9309 79.563L89.8014 78.63C89.8014 78.63 91.872 68.619 91.582 63.051C90.9295 50.631 73.7847 33.294 73.7847 33.294L71.92 34.239Z" fill="white"/>
<path d="M73.7847 33.3L62.9996 62.13L89.8014 78.63C92.5143 73.6027 93.7802 67.8774 93.4496 62.13C92.7768 49.257 84.7322 38.193 73.7847 33.3Z" fill="#1A2980"/>
<path opacity="0.2" d="M73.7847 33.3L62.9996 62.13L89.8014 78.63C92.5143 73.6027 93.7802 67.8774 93.4496 62.13C92.7768 49.257 84.7322 38.193 73.7847 33.3Z" fill="white"/>
<g style="mix-blend-mode:color-dodge" opacity="0.4">
<path d="M89.1054 76.2C89.0931 76.2039 89.08 76.2039 89.0677 76.2L65.1166 61.443C65.1018 61.4336 65.0908 61.4191 65.0854 61.4021C65.0801 61.385 65.0809 61.3665 65.0876 61.35L74.6576 35.742C74.661 35.7319 74.6665 35.7226 74.6736 35.7149C74.6808 35.7072 74.6895 35.7011 74.6991 35.6971C74.7087 35.6931 74.7191 35.6913 74.7294 35.6918C74.7397 35.6923 74.7499 35.6951 74.7591 35.7C79.6004 38.2274 83.7243 42.0119 86.7274 46.683C89.7223 51.31 91.4656 56.6818 91.7763 62.241C92.0423 67.0355 91.1451 71.8227 89.1663 76.167C89.162 76.1771 89.1556 76.1861 89.1476 76.1934C89.1396 76.2006 89.1301 76.206 89.1199 76.209L89.1054 76.2ZM65.25 61.329L89.0793 76.011C91.0246 71.7078 91.9046 66.9716 91.64 62.229C91.06 51.099 84.5959 40.998 74.7736 35.853L65.25 61.329Z" fill="#FAFAFA"/>
</g>
<g style="mix-blend-mode:color-dodge" opacity="0.4">
<path d="M56.0512 62.382L28.8115 57.651C28.793 57.6471 28.7765 57.6364 28.7651 57.621C28.7581 57.6027 28.7581 57.5823 28.7651 57.564C29.8286 51.1008 33.075 45.2378 37.9262 41.019C42.8807 36.8034 49.1054 34.515 55.5205 34.551C59.0073 34.551 62.4664 35.191 65.7372 36.441C65.7465 36.4435 65.7552 36.4483 65.7622 36.4552C65.7693 36.462 65.7747 36.4705 65.7778 36.48C65.7852 36.4993 65.7852 36.5207 65.7778 36.54L56.1266 62.34C56.1199 62.3544 56.1091 62.3662 56.0955 62.3737C56.0819 62.3813 56.0664 62.3842 56.0512 62.382ZM28.9101 57.516L56.0048 62.223L65.6067 36.555C62.372 35.3288 58.9539 34.7012 55.5089 34.701C42.1254 34.701 31.1953 44.079 28.9101 57.516Z" fill="#FAFAFA"/>
</g>
<path d="M55.2914 65.259L26.8714 59.061L24.9922 60C24.7998 61.7476 24.7504 63.5088 24.8443 65.265C25.7549 82.665 40.1273 96.765 56.9444 96.765C67.9064 96.765 77.2009 90.765 82.0903 81.765L55.2914 65.259Z" fill="#1A2980"/>
<path opacity="0.2" d="M55.2914 65.259L26.8714 59.061L24.9922 60C24.7998 61.7476 24.7504 63.5088 24.8443 65.265C25.7549 82.665 40.1273 96.765 56.9444 96.765C67.9064 96.765 77.2009 90.765 82.0903 81.765L55.2914 65.259Z" fill="black"/>
<path d="M57.1619 64.326L26.8627 59.061C26.6708 60.8086 26.6204 62.5697 26.7119 64.326C27.6254 81.726 41.9949 95.826 58.812 95.826C69.7769 95.826 79.0714 89.826 83.9608 80.826L57.1619 64.326Z" fill="#1A2980"/>
<path opacity="0.1" d="M57.1619 64.326L26.8627 59.061C26.6708 60.8086 26.6204 62.5697 26.7119 64.326C27.6254 81.726 41.9949 95.826 58.812 95.826C69.7769 95.826 79.0714 89.826 83.9608 80.826L57.1619 64.326Z" fill="black"/>
<g style="mix-blend-mode:color-dodge" opacity="0.4">
<path d="M58.812 94.101C42.8939 94.101 29.232 80.7 28.362 64.233C28.3112 63.2087 28.3112 62.1823 28.362 61.158C28.3616 61.1475 28.3638 61.137 28.3684 61.1276C28.3729 61.1181 28.3797 61.11 28.3881 61.104C28.3957 61.0965 28.4049 61.0909 28.415 61.0878C28.4251 61.0847 28.4357 61.084 28.4461 61.086L56.5558 65.97H56.579L81.5944 81.384C81.6031 81.3891 81.6106 81.396 81.6166 81.4042C81.6226 81.4125 81.6269 81.4219 81.6292 81.432C81.6358 81.4504 81.6358 81.4706 81.6292 81.489C79.1964 85.3794 75.8513 88.5695 71.9055 90.762C67.8717 92.9689 63.3751 94.1156 58.812 94.101ZM28.5099 61.248C28.4664 62.238 28.4693 63.237 28.5099 64.224C29.3799 80.613 42.9577 93.951 58.8004 93.951C68.2109 93.951 76.4643 89.406 81.4523 81.483L56.5123 66.117L28.5099 61.248Z" fill="#FAFAFA"/>
</g>
<path d="M24.2614 69.228C24.0441 67.9378 23.8998 66.6356 23.8293 65.328L24.1193 65.31C24.1871 66.6096 24.3295 67.9039 24.5456 69.186L24.2614 69.228Z" fill="#1A2980"/>
<path opacity="0.2" d="M24.2614 69.228C24.0441 67.9378 23.8998 66.6356 23.8293 65.328L24.1193 65.31C24.1871 66.6096 24.3295 67.9039 24.5456 69.186L24.2614 69.228Z" fill="black"/>
<path d="M24.94 72.3C24.7776 71.7 24.6297 71.064 24.5021 70.449L24.7921 70.386C24.9197 70.986 25.0647 71.613 25.2242 72.222L24.94 72.3Z" fill="#1A2980"/>
<path opacity="0.2" d="M24.94 72.3C24.7776 71.7 24.6297 71.064 24.5021 70.449L24.7921 70.386C24.9197 70.986 25.0647 71.613 25.2242 72.222L24.94 72.3Z" fill="black"/>
<path d="M94.9518 69.639L92.8812 69.063L93.3307 71.814C93.3307 71.814 95.1983 71.901 95.3607 70.881L94.9518 69.639Z" fill="#E4897B"/>
<path d="M91.2514 69.762L91.727 72.021L93.3307 71.814L92.8812 69.063L91.2514 69.762Z" fill="#E4897B"/>
</svg>
