<svg width="25" height="25" viewBox="0 0 25 25" fill="none" xmlns="http://www.w3.org/2000/svg">
<path d="M22.5781 9.41406C22.0291 8.11452 21.2331 6.93385 20.2344 5.9375C19.238 4.93874 18.0574 4.14278 16.7578 3.59375C15.4077 3.02246 13.9771 2.73438 12.5 2.73438C11.0229 2.73438 9.59229 3.02246 8.24219 3.59375C6.94265 4.14278 5.76198 4.93874 4.76562 5.9375C3.76687 6.93385 2.97091 8.11452 2.42187 9.41406C1.85059 10.7642 1.5625 12.1948 1.5625 13.6719C1.5625 16.9116 2.98584 19.9634 5.46631 22.0483L5.50781 22.0825C5.64941 22.1997 5.82764 22.2656 6.01074 22.2656H18.9917C19.1748 22.2656 19.353 22.1997 19.4946 22.0825L19.5361 22.0483C22.0142 19.9634 23.4375 16.9116 23.4375 13.6719C23.4375 12.1948 23.147 10.7642 22.5781 9.41406ZM11.7676 5.66406C11.7676 5.55664 11.8555 5.46875 11.9629 5.46875H13.0371C13.1445 5.46875 13.2324 5.55664 13.2324 5.66406V7.61719C13.2324 7.72461 13.1445 7.8125 13.0371 7.8125H11.9629C11.8555 7.8125 11.7676 7.72461 11.7676 7.61719V5.66406ZM6.5918 14.209C6.5918 14.3164 6.50391 14.4043 6.39648 14.4043H4.44336C4.33594 14.4043 4.24805 14.3164 4.24805 14.209V13.1348C4.24805 13.0273 4.33594 12.9395 4.44336 12.9395H6.39648C6.50391 12.9395 6.5918 13.0273 6.5918 13.1348V14.209ZM8.80615 9.21631L8.04688 9.97559C8.01017 10.0119 7.9606 10.0323 7.90894 10.0323C7.85728 10.0323 7.8077 10.0119 7.771 9.97559L6.38916 8.59375C6.35281 8.55704 6.33242 8.50747 6.33242 8.45581C6.33242 8.40415 6.35281 8.35458 6.38916 8.31787L7.14844 7.55859C7.22412 7.48291 7.34863 7.48291 7.42432 7.55859L8.80615 8.94043C8.88184 9.01611 8.88184 9.14062 8.80615 9.21631ZM15.9131 11.2573L13.8501 13.3203C13.9722 13.7769 13.855 14.2822 13.4961 14.6411C13.3692 14.7682 13.2185 14.8691 13.0526 14.9379C12.8867 15.0067 12.7089 15.0421 12.5293 15.0421C12.3497 15.0421 12.1719 15.0067 12.006 14.9379C11.8401 14.8691 11.6894 14.7682 11.5625 14.6411C11.4354 14.5142 11.3345 14.3635 11.2657 14.1976C11.1969 14.0318 11.1615 13.8539 11.1615 13.6743C11.1615 13.4947 11.1969 13.3169 11.2657 13.151C11.3345 12.9851 11.4354 12.8344 11.5625 12.7075C11.732 12.5375 11.9434 12.4152 12.1753 12.3531C12.4073 12.2909 12.6515 12.2911 12.8833 12.3535L14.9463 10.2905C15.022 10.2148 15.1465 10.2148 15.2222 10.2905L15.9131 10.9814C15.9888 11.0571 15.9888 11.1792 15.9131 11.2573ZM16.9629 9.97803L16.2036 9.21875C16.1673 9.18204 16.1469 9.13247 16.1469 9.08081C16.1469 9.02915 16.1673 8.97958 16.2036 8.94287L17.5854 7.56104C17.6611 7.48535 17.7856 7.48535 17.8613 7.56104L18.6206 8.32031C18.6963 8.396 18.6963 8.52051 18.6206 8.59619L17.2388 9.97803C17.2021 10.0144 17.1525 10.0348 17.1008 10.0348C17.0492 10.0348 16.9996 10.0144 16.9629 9.97803ZM20.6543 14.209C20.6543 14.3164 20.5664 14.4043 20.459 14.4043H18.5059C18.3984 14.4043 18.3105 14.3164 18.3105 14.209V13.1348C18.3105 13.0273 18.3984 12.9395 18.5059 12.9395H20.459C20.5664 12.9395 20.6543 13.0273 20.6543 13.1348V14.209Z" fill="white"/>
</svg>
