<svg width="139" height="139" viewBox="0 0 139 139" fill="none" xmlns="http://www.w3.org/2000/svg">
<path d="M139 106.307H0V106.377H139V106.307Z" fill="#EBEBEB"/>
<path d="M125.072 110.78H105.454V110.85H125.072V110.78Z" fill="#EBEBEB"/>
<path d="M98.9764 111.536H94.798V111.606H98.9764V111.536Z" fill="#EBEBEB"/>
<path d="M113.911 108.2H110.252V108.27H113.911V108.2Z" fill="#EBEBEB"/>
<path d="M25.3786 108.667H14.5839V108.737H25.3786V108.667Z" fill="#EBEBEB"/>
<path d="M30.8247 108.667H27.8528V108.737H30.8247V108.667Z" fill="#EBEBEB"/>
<path d="M67.8709 109.841H52.7032V109.91H67.8709V109.841Z" fill="#EBEBEB"/>
<path d="M65.886 93.9084H12.207C11.7865 93.9077 11.3834 93.7401 11.0863 93.4425C10.7892 93.1449 10.6224 92.7415 10.6224 92.321V16.8635C10.626 16.4454 10.7945 16.0456 11.0912 15.751C11.3879 15.4564 11.7889 15.2907 12.207 15.29H65.886C66.307 15.29 66.7108 15.4572 67.0084 15.7549C67.3061 16.0526 67.4734 16.4564 67.4734 16.8774V92.321C67.4734 92.742 67.3061 93.1458 67.0084 93.4435C66.7108 93.7412 66.307 93.9084 65.886 93.9084ZM12.207 15.3456C11.8049 15.3463 11.4195 15.5066 11.1355 15.7912C10.8514 16.0757 10.6919 16.4614 10.6919 16.8635V92.321C10.6919 92.7231 10.8514 93.1088 11.1355 93.3933C11.4195 93.6779 11.8049 93.8382 12.207 93.8389H65.886C66.2883 93.8382 66.674 93.678 66.9585 93.3935C67.243 93.109 67.4031 92.7234 67.4039 92.321V16.8635C67.4031 16.4611 67.243 16.0755 66.9585 15.791C66.674 15.5065 66.2883 15.3463 65.886 15.3456H12.207Z" fill="#EBEBEB"/>
<path d="M126.02 93.9084H72.3384C71.9176 93.9077 71.5143 93.7402 71.2168 93.4427C70.9193 93.1451 70.7518 92.7418 70.751 92.321V16.8635C70.7554 16.4451 70.9245 16.0453 71.2217 15.7508C71.5188 15.4563 71.92 15.2907 72.3384 15.29H126.02C126.438 15.2914 126.838 15.4574 127.134 15.752C127.43 16.0465 127.598 16.4459 127.602 16.8635V92.321C127.602 92.7411 127.436 93.144 127.139 93.4415C126.843 93.739 126.44 93.9069 126.02 93.9084ZM72.3384 15.3456C71.9361 15.3463 71.5504 15.5065 71.2659 15.791C70.9814 16.0755 70.8213 16.4611 70.8205 16.8635V92.321C70.8213 92.7234 70.9814 93.109 71.2659 93.3935C71.5504 93.678 71.9361 93.8382 72.3384 93.8389H126.02C126.423 93.8382 126.808 93.678 127.093 93.3935C127.377 93.109 127.537 92.7234 127.538 92.321V16.8635C127.537 16.4611 127.377 16.0755 127.093 15.791C126.808 15.5065 126.423 15.3463 126.02 15.3456H72.3384Z" fill="#EBEBEB"/>
<path d="M19.9493 60.8292C19.9493 60.8292 20.0994 64.1652 25.8623 64.1652C31.6253 64.1652 31.7782 60.8292 31.7782 60.8292H19.9493Z" fill="#F0F0F0"/>
<path d="M48.144 66.6032H40.9689V106.307H48.144V66.6032Z" fill="#E6E6E6"/>
<path d="M46.7818 106.307H48.1468V103.449H45.3529L46.7818 106.307Z" fill="#F0F0F0"/>
<path d="M21.3254 66.6032H14.1502V106.307H21.3254V66.6032Z" fill="#E6E6E6"/>
<path d="M48.1468 66.6032H20.1383V104.556H48.1468V66.6032Z" fill="#F0F0F0"/>
<path d="M34.5999 68.3518V100.984H47.0904V68.3518H34.5999Z" fill="#E6E6E6"/>
<path d="M21.1947 68.3519L21.1947 100.984H33.6852V68.3519H21.1947Z" fill="#E6E6E6"/>
<path d="M28.6757 69.1497H26.2043C25.1857 69.167 24.1892 68.8518 23.3659 68.2518H31.5113C30.6892 68.8521 29.6935 69.1674 28.6757 69.1497Z" fill="#F0F0F0"/>
<path d="M42.206 69.1497H39.7346C38.716 69.167 37.7195 68.8518 36.8962 68.2518H45.036C44.2155 68.851 43.2219 69.1662 42.206 69.1497Z" fill="#F0F0F0"/>
<path d="M21.5005 106.307H20.1383V103.449H22.9294L21.5005 106.307Z" fill="#F0F0F0"/>
<path d="M19.9493 63.2533C19.9493 63.2533 20.0994 66.5893 25.8623 66.5893C31.6253 66.5893 31.7782 63.2533 31.7782 63.2533H19.9493Z" fill="#E6E6E6"/>
<path d="M37.8553 63.106C37.8553 63.106 37.947 65.141 41.4498 65.141C44.9526 65.141 45.036 63.106 45.036 63.106H37.8553Z" fill="#F5F5F5"/>
<path d="M37.8553 64.5683C37.8553 64.5683 37.947 66.6005 41.4498 66.6005C44.9526 66.6005 45.036 64.5683 45.036 64.5683H37.8553Z" fill="#E6E6E6"/>
<path d="M41.6833 20.711H17.5446V53.4789H41.6833V20.711Z" fill="#E6E6E6"/>
<path d="M42.7369 20.711H18.0366V53.4789H42.7369V20.711Z" fill="#F0F0F0"/>
<path d="M41.258 51.6329V22.5569H19.5128L19.5128 51.6329H41.258Z" fill="#FAFAFA"/>
<path d="M41.258 51.6329V22.5569H41.069V51.6329H41.258Z" fill="#E6E6E6"/>
<path d="M31.7504 43.9991H28.3699C27.9081 43.9973 27.4622 43.83 27.1133 43.5275C26.7644 43.225 26.5356 42.8074 26.4684 42.3505C26.2102 40.68 25.5298 39.1031 24.4918 37.7691C23.6917 36.7195 23.2052 35.4649 23.0885 34.1503C22.9718 32.8358 23.2296 31.515 23.8322 30.3409C24.4349 29.1668 25.3576 28.1873 26.4937 27.5158C27.6298 26.8443 28.9328 26.5081 30.2519 26.5462C31.5383 26.5821 32.7897 26.9726 33.8682 27.6746C34.9467 28.3766 35.8103 29.3629 36.3638 30.5246C36.9174 31.6862 37.1393 32.9783 37.0051 34.2581C36.8709 35.5379 36.3859 36.7558 35.6034 37.7774C34.5674 39.1146 33.8908 40.6946 33.638 42.3672C33.5713 42.8203 33.344 43.2345 32.9975 43.534C32.651 43.8336 32.2084 43.9986 31.7504 43.9991ZM30.049 26.9076C28.8135 26.9054 27.6019 27.2487 26.5513 27.8988C25.5006 28.5488 24.6527 29.4798 24.1032 30.5864C23.5538 31.6931 23.3248 32.9313 23.4421 34.1613C23.5594 35.3912 24.0183 36.5638 24.767 37.5467C25.8436 38.9299 26.5489 40.5653 26.8159 42.2977C26.8698 42.6681 27.055 43.0069 27.3376 43.2523C27.6203 43.4977 27.9816 43.6335 28.356 43.6349H31.7365C32.1059 43.6328 32.4624 43.4985 32.7414 43.2563C33.0203 43.014 33.2033 42.6799 33.2571 42.3144C33.5219 40.5788 34.2273 38.9402 35.306 37.555C36.0459 36.5869 36.5045 35.4334 36.6313 34.2214C36.7581 33.0095 36.5481 31.786 36.0246 30.6857C35.501 29.5853 34.684 28.6507 33.6636 27.9847C32.6432 27.3186 31.4588 26.9469 30.2408 26.9104L30.049 26.9076Z" fill="#E6E6E6"/>
<path d="M28.2448 47.4657H31.8588C32.184 47.4643 32.4954 47.3342 32.7251 47.104C32.9547 46.8738 33.0841 46.5621 33.0848 46.237C33.0841 45.912 32.9547 45.6006 32.7249 45.3709C32.4951 45.1411 32.1837 45.0117 31.8588 45.011H28.2448C27.9196 45.0117 27.6079 45.141 27.3777 45.3707C27.1475 45.6004 27.0175 45.9118 27.0161 46.237C27.0168 46.5626 27.1465 46.8747 27.3768 47.105C27.607 47.3353 27.9191 47.465 28.2448 47.4657Z" fill="#E6E6E6"/>
<path d="M30.0518 35.862C29.7404 35.8626 29.4358 35.7707 29.1766 35.598C28.9174 35.4253 28.7153 35.1796 28.5959 34.892C28.4765 34.6043 28.4451 34.2877 28.5057 33.9822C28.5663 33.6768 28.7162 33.3961 28.9364 33.1759C29.1567 32.9557 29.4373 32.8058 29.7428 32.7451C30.0483 32.6845 30.3649 32.7159 30.6525 32.8354C30.9401 32.9548 31.1858 33.1569 31.3585 33.4161C31.5312 33.6753 31.6231 33.9799 31.6225 34.2913C31.6218 34.7077 31.4561 35.1067 31.1617 35.4011C30.8673 35.6955 30.4682 35.8613 30.0518 35.862ZM30.0518 33.082C29.8132 33.082 29.5799 33.1528 29.3815 33.2853C29.1831 33.4179 29.0285 33.6063 28.9372 33.8268C28.8458 34.0473 28.822 34.2899 28.8685 34.5239C28.9151 34.7579 29.03 34.9729 29.1987 35.1417C29.3674 35.3104 29.5824 35.4253 29.8165 35.4719C30.0505 35.5184 30.2931 35.4945 30.5136 35.4032C30.734 35.3119 30.9225 35.1572 31.055 34.9588C31.1876 34.7604 31.2584 34.5272 31.2584 34.2885C31.2584 33.9685 31.1313 33.6617 30.905 33.4354C30.6787 33.2091 30.3718 33.082 30.0518 33.082Z" fill="#E6E6E6"/>
<path d="M28.2226 35.862C27.9113 35.862 27.6069 35.7696 27.3481 35.5966C27.0893 35.4236 26.8876 35.1777 26.7686 34.89C26.6496 34.6023 26.6186 34.2858 26.6795 33.9805C26.7405 33.6752 26.8906 33.3949 27.111 33.1749C27.3313 32.955 27.6119 32.8053 27.9173 32.7449C28.2227 32.6845 28.5392 32.7161 28.8267 32.8356C29.1141 32.9551 29.3597 33.1572 29.5322 33.4164C29.7048 33.6755 29.7966 33.98 29.7961 34.2913C29.7961 34.4978 29.7553 34.7023 29.6762 34.893C29.5971 35.0838 29.4812 35.257 29.335 35.4029C29.1889 35.5488 29.0154 35.6645 28.8245 35.7432C28.6336 35.822 28.4291 35.8624 28.2226 35.862ZM28.2226 33.082C27.984 33.082 27.7507 33.1528 27.5523 33.2853C27.3539 33.4179 27.1992 33.6063 27.1079 33.8268C27.0166 34.0473 26.9927 34.2899 27.0392 34.5239C27.0858 34.7579 27.2007 34.9729 27.3694 35.1417C27.5382 35.3104 27.7532 35.4253 27.9872 35.4719C28.2212 35.5184 28.4638 35.4945 28.6843 35.4032C28.9048 35.3119 29.0932 35.1572 29.2258 34.9588C29.3583 34.7604 29.4291 34.5271 29.4291 34.2885C29.4291 33.9685 29.302 33.6616 29.0757 33.4354C28.8495 33.2091 28.5426 33.082 28.2226 33.082Z" fill="#E6E6E6"/>
<path d="M31.8783 35.862C31.567 35.862 31.2626 35.7696 31.0038 35.5966C30.745 35.4236 30.5433 35.1777 30.4243 34.89C30.3053 34.6023 30.2743 34.2858 30.3352 33.9805C30.3962 33.6752 30.5463 33.3949 30.7667 33.1749C30.987 32.955 31.2676 32.8053 31.573 32.7449C31.8784 32.6845 32.1949 32.7161 32.4824 32.8356C32.7698 32.9551 33.0154 33.1572 33.1879 33.4164C33.3605 33.6755 33.4523 33.98 33.4518 34.2913C33.451 34.7081 33.2849 35.1076 32.9899 35.4021C32.6949 35.6966 32.2951 35.862 31.8783 35.862ZM31.8783 33.082C31.6397 33.082 31.4064 33.1528 31.208 33.2853C31.0096 33.4179 30.8549 33.6063 30.7636 33.8268C30.6723 34.0473 30.6484 34.2899 30.6949 34.5239C30.7415 34.7579 30.8564 34.9729 31.0251 35.1417C31.1939 35.3104 31.4089 35.4253 31.6429 35.4719C31.8769 35.5184 32.1195 35.4945 32.34 35.4032C32.5605 35.3119 32.7489 35.1572 32.8815 34.9588C33.014 34.7604 33.0848 34.5271 33.0848 34.2885C33.0848 33.9685 32.9577 33.6616 32.7314 33.4354C32.5052 33.2091 32.1983 33.082 31.8783 33.082Z" fill="#E6E6E6"/>
<path d="M69.5 118.862C99.2689 118.862 123.401 117.453 123.401 115.715C123.401 113.977 99.2689 112.568 69.5 112.568C39.7311 112.568 15.5986 113.977 15.5986 115.715C15.5986 117.453 39.7311 118.862 69.5 118.862Z" fill="#F5F5F5"/>
<path d="M118.264 92.8882H52.8673L55.0106 59.681H58.3995L56.4757 89.4993H97.945L98.0979 87.128H76.0191L76.2387 83.7392H109.707L111.57 54.8438H109.198L107.486 81.3678H74.0203L73.6478 87.128H58.9999L62.4749 33.2544H104.322L104.475 30.8802H60.2565L58.5524 57.3097H55.1635L56.1282 42.345H53.7569L50.343 95.2623H120.482L120.705 91.8151H118.333L118.264 92.8882Z" fill="#1A2980"/>
<path d="M54.8689 25.1201L54.1099 36.8489H56.484L57.0873 27.4942H109.007L108.634 33.2544H116.351L115.389 48.1635H112.001L112.743 36.6432H80.8396L80.6867 39.0145H97.4195L97.1999 42.4033H71.0346L68.8161 76.7947L68.7383 77.979L68.5214 81.3678H65.1326L66.7756 55.8975H64.4043L62.6084 83.7392H70.7399L71.1096 77.979H91.8762L92.0291 75.6077H80.8646L81.0843 72.2188H86.9L87.0529 69.8475H77.3952L77.512 68.021H75.1406L74.871 72.2188H78.7129L78.4933 75.6077H71.2653L73.253 44.7747H104.086L102.902 63.1282H105.276L106.613 42.4033H99.574L99.7909 39.0145H110.219L109.476 50.5348H115.237L114.328 64.6322H116.699L118.876 30.8802H111.161L111.378 27.4942H122.481L119.81 68.944H114.05L112.876 87.128H103.594L103.441 89.4993H115.095L116.268 71.3153H119.657L118.689 86.319H121.061L125.008 25.1201H54.8689Z" fill="#1A2980"/>
<path d="M67.1287 50.4014L67.8626 39.0145H75.1851L75.338 36.6432H65.6441L64.7573 50.4014H67.1287Z" fill="#1A2980"/>
<path d="M96.1852 77.979H104.317L104.92 68.6243H102.549L102.098 75.6077H98.7095L98.9291 72.2188L99.0041 71.0346L100.48 48.1635H76.4222L75.4965 62.525H77.8678L78.6406 50.5348H97.9561L96.7106 69.8475H92.549L92.3961 72.2188H96.555L96.1852 77.979Z" fill="#1A2980"/>
<path d="M89.402 64.0873L89.2491 66.4587H93.5415L94.3504 53.9209H81.8126L81.0037 66.4587H83.9393L84.0922 64.0873H83.5279L84.0311 56.2922H91.8234L91.323 64.0873H89.402Z" fill="#1A2980"/>
<g opacity="0.6">
<path opacity="0.6" d="M118.264 92.8882H52.8673L55.0106 59.681H58.3995L56.4757 89.4993H97.945L98.0979 87.128H76.0191L76.2387 83.7392H109.707L111.57 54.8438H109.198L107.486 81.3678H74.0203L73.6478 87.128H58.9999L62.4749 33.2544H104.322L104.475 30.8802H60.2565L58.5524 57.3097H55.1635L56.1282 42.345H53.7569L50.343 95.2623H120.482L120.705 91.8151H118.333L118.264 92.8882Z" fill="white"/>
<path opacity="0.6" d="M54.8689 25.1201L54.1099 36.8489H56.484L57.0873 27.4942H109.007L108.634 33.2544H116.351L115.389 48.1635H112.001L112.743 36.6432H80.8396L80.6867 39.0145H97.4195L97.1999 42.4033H71.0346L68.8161 76.7947L68.7383 77.979L68.5214 81.3678H65.1326L66.7756 55.8975H64.4043L62.6084 83.7392H70.7399L71.1096 77.979H91.8762L92.0291 75.6077H80.8646L81.0843 72.2188H86.9L87.0529 69.8475H77.3952L77.512 68.021H75.1406L74.871 72.2188H78.7129L78.4933 75.6077H71.2653L73.253 44.7747H104.086L102.902 63.1282H105.276L106.613 42.4033H99.574L99.7909 39.0145H110.219L109.476 50.5348H115.237L114.328 64.6322H116.699L118.876 30.8802H111.161L111.378 27.4942H122.481L119.81 68.944H114.05L112.876 87.128H103.594L103.441 89.4993H115.095L116.268 71.3153H119.657L118.689 86.319H121.061L125.008 25.1201H54.8689Z" fill="white"/>
<path opacity="0.6" d="M67.1287 50.4014L67.8626 39.0145H75.1851L75.338 36.6432H65.6441L64.7573 50.4014H67.1287Z" fill="white"/>
<path opacity="0.6" d="M96.1852 77.979H104.317L104.92 68.6243H102.549L102.098 75.6077H98.7095L98.9291 72.2188L99.0041 71.0346L100.48 48.1635H76.4222L75.4965 62.525H77.8678L78.6406 50.5348H97.9561L96.7106 69.8475H92.549L92.3961 72.2188H96.555L96.1852 77.979Z" fill="white"/>
<path opacity="0.6" d="M89.402 64.0873L89.2491 66.4587H93.5415L94.3504 53.9209H81.8126L81.0037 66.4587H83.9393L84.0922 64.0873H83.5279L84.0311 56.2922H91.8234L91.323 64.0873H89.402Z" fill="white"/>
</g>
<path d="M117.063 91.4648H100.297L100.705 85.1653H111.039L113.154 52.3641H107.933L107.044 66.1445H100.744L101.97 47.1321H75.1962L74.0425 65.0047H79.5386L79.3523 67.8848H90.1971L89.8273 73.645H95.4541L95.0315 80.2252H72.7971L72.444 85.7046H60.5178L62.6334 52.8812H68.3935L69.197 40.4379H77.8372L78.2097 34.6777H106.713L107.049 29.4569H58.9249L58.2521 39.8652H51.7302V39.3287H57.7489L58.4189 28.9176H107.622L107.216 35.217H78.7129L78.3404 40.9772H69.7001L68.8995 53.4177H63.1393L61.0905 85.1653H71.9408L72.2939 79.6859H94.5255L94.8814 74.1843H89.2519L89.6244 68.4241H78.7796L78.9659 65.5413H73.4698L74.693 46.5928H102.546L101.317 65.608H106.541L107.428 51.8275H113.727L111.542 85.7046H101.209L100.872 90.9255H116.56L116.696 88.7988H123.084V89.3353H117.202L117.063 91.4648Z" fill="#1A2980"/>
<path d="M88.0899 61.8216H86.8667L86.9835 60.0007H88.5069L88.5653 59.1167H86.7416L86.7249 59.3752H85.5017L85.5962 57.8935H89.8691L89.6522 61.2267H88.1288L88.0899 61.8216Z" fill="#1A2980"/>
<path d="M88.0037 63.1894H86.7777L86.8389 62.2553H88.0621L88.0037 63.1894Z" fill="#1A2980"/>
<path d="M26.6268 85.9715C28.2364 74.4373 28.4449 66.7256 30.1352 61.0405L39.8652 60.8931C39.8652 60.8931 35.2226 79.1966 33.0931 86.8194C30.9636 94.4422 27.1356 113.257 27.1356 113.257H23.8746C23.8746 113.257 23.7884 94.8981 26.6268 85.9715Z" fill="#263238"/>
<path d="M35.1698 69.4249C34.4581 71.0735 33.0653 81.657 33.0736 86.939L33.107 86.8166C33.8548 84.1395 34.914 80.1446 35.9732 76.0803L35.1698 69.4249Z" fill="black"/>
<path d="M29.9017 114.847C29.9017 114.847 27.1467 113.794 26.8437 113.088H24.3417L24.2054 115.715H26.2376L26.4878 115.473L26.8603 115.715C28.103 115.715 29.2484 115.667 30.0434 115.387C30.0694 115.292 30.07 115.193 30.0451 115.098C30.0202 115.003 29.9707 114.917 29.9017 114.847Z" fill="#263238"/>
<path d="M35.9092 86.2968C33.9632 74.8237 33.1542 60.9988 33.1542 60.9988L43.86 60.8264C43.86 60.8264 42.6285 79.4691 42.192 87.2781C41.7472 95.3985 41.4359 113.266 41.4359 113.266H37.8691C37.8691 113.266 34.8306 96.3326 35.9092 86.2968Z" fill="#263238"/>
<path d="M34.472 31.5697C33.9966 33.6324 33.638 36.2818 33.0458 37.8052C34.08 38.7671 35.7563 39.9597 37.9915 39.9264C40.2266 39.893 39.8179 38.3835 39.2174 37.6051C37.6162 36.7961 37.5494 35.9788 37.9442 35.2615L34.472 31.5697Z" fill="#FF8B7B"/>
<path d="M30.9664 38.3056C30.9664 38.3056 32.323 37.1102 32.8846 36.8294C33.4461 36.5487 37.7774 36.6432 38.7837 36.8294C39.7901 37.0157 41.0077 38.5169 41.0077 38.5169L30.9664 38.3056Z" fill="#263238"/>
<path d="M41.5331 31.3111C41.4859 31.5141 41.5582 31.7003 41.6888 31.7281C41.8195 31.7559 41.9668 31.6169 42.0113 31.414C42.0558 31.2111 41.9863 31.0276 41.8556 30.997C41.725 30.9664 41.5776 31.111 41.5331 31.3111Z" fill="#263238"/>
<path d="M41.4582 31.5919C41.5595 32.2643 41.7541 32.9193 42.0364 33.5379C41.6027 33.7937 41.03 33.5101 41.03 33.5101L41.4582 31.5919Z" fill="#FF5652"/>
<path d="M42.231 30.1491C42.2135 30.1586 42.1939 30.1636 42.174 30.1636C42.1541 30.1636 42.1345 30.1586 42.117 30.1491C41.9792 30.0838 41.8278 30.0525 41.6754 30.0579C41.523 30.0632 41.3742 30.105 41.2413 30.1797C41.2143 30.1966 41.1817 30.2023 41.1505 30.1955C41.1194 30.1888 41.0921 30.1701 41.0745 30.1435C41.0574 30.1161 41.0517 30.0831 41.0584 30.0515C41.0651 30.0199 41.0839 29.9921 41.1106 29.974C41.2783 29.8767 41.4669 29.8214 41.6605 29.8127C41.8541 29.804 42.0469 29.8421 42.2226 29.9239C42.2434 29.9322 42.2615 29.9461 42.2748 29.9641C42.288 29.9821 42.296 30.0035 42.2977 30.0258C42.2995 30.0481 42.2949 30.0704 42.2846 30.0902C42.2743 30.1101 42.2586 30.1266 42.2393 30.138L42.231 30.1491Z" fill="#263238"/>
<path d="M34.8306 29.2567C34.4275 31.7587 34.0633 33.2182 35.0336 34.7611C36.4931 37.0824 39.8179 36.6098 40.9661 34.2607C42.003 32.1479 42.4895 28.3949 40.2766 26.8854C39.7865 26.5509 39.2195 26.3463 38.6287 26.2905C38.0379 26.2348 37.4427 26.3298 36.8986 26.5667C36.3545 26.8036 35.8795 27.1747 35.5178 27.6451C35.1561 28.1156 34.9197 28.67 34.8306 29.2567Z" fill="#FF8B7B"/>
<path d="M38.5113 32.5065C37.7134 33.4434 37.3993 34.5443 35.9898 34.6138C34.5804 34.6833 33.6185 34.8723 33.688 33.7798C33.8048 31.9533 32.854 29.6098 32.7011 28.4422C32.5482 27.2746 32.6344 25.4148 34.2273 25.9152C33.6713 24.831 34.4636 23.9024 35.7007 24.0192C37.947 24.2305 40.1932 25.7873 41.4136 25.4314C42.584 25.0867 41.5332 24.7448 41.5332 24.7448C41.5332 24.7448 43.8572 24.6197 43.4569 26.8353C43.0093 29.3012 40.7381 28.4394 40.7381 28.4394C40.7381 28.4394 42.2865 30.3548 38.5113 32.5065Z" fill="#263238"/>
<path d="M38.2917 31.3084C38.1428 31.8309 38.1984 32.3905 38.4473 32.8735C38.7782 33.4712 39.4287 33.196 39.74 32.551C40.018 31.97 40.1904 30.9581 39.665 30.5884C39.1396 30.2186 38.4751 30.6384 38.2917 31.3084Z" fill="#FF8B7B"/>
<path d="M31.111 38.0221C34.5721 37.5967 39.4871 37.6356 42.7481 38.2028C43.5553 38.3468 44.2919 38.7547 44.8423 39.3625C45.3927 39.9702 45.7258 40.7435 45.7894 41.561C46.1953 46.5344 45.0944 55.2331 44.1436 63.9845C36.468 66.5616 28.6785 63.9511 28.6785 63.9511C28.5089 62.1831 29.4597 56.3979 30.0518 53.3093C29.6154 50.1178 28.5117 46.4677 27.8862 42.231C27.816 41.7421 27.8441 41.2441 27.9689 40.7662C28.0938 40.2884 28.3128 39.8402 28.6132 39.4482C28.9136 39.0561 29.2893 38.728 29.7182 38.4831C30.1472 38.2382 30.6207 38.0815 31.111 38.0221Z" fill="#263238"/>
<path opacity="0.1" d="M31.111 38.0221C34.5721 37.5967 39.4871 37.6356 42.7481 38.2028C43.5553 38.3468 44.2919 38.7547 44.8423 39.3625C45.3927 39.9702 45.7258 40.7435 45.7894 41.561C46.1953 46.5344 45.0944 55.2331 44.1436 63.9845C36.468 66.5616 28.6785 63.9511 28.6785 63.9511C28.5089 62.1831 29.4597 56.3979 30.0518 53.3093C29.6154 50.1178 28.5117 46.4677 27.8862 42.231C27.816 41.7421 27.8441 41.2441 27.9689 40.7662C28.0938 40.2884 28.3128 39.8402 28.6132 39.4482C28.9136 39.0561 29.2893 38.728 29.7182 38.4831C30.1472 38.2382 30.6207 38.0815 31.111 38.0221Z" fill="white"/>
<path d="M41.5332 44.9887C42.0558 47.9856 43.7155 51.5551 45.2306 53.9181C45.4391 51.8498 45.6142 49.876 45.7254 48.0606L41.5332 44.9887Z" fill="black"/>
<path d="M45.4391 40.8326L45.831 41.8835L46.2453 42.9677C46.5233 43.6877 46.8013 44.3938 47.1043 45.0721C47.2516 45.4113 47.4073 45.7421 47.563 46.0563C47.7187 46.3704 47.8716 46.6762 48.0272 46.9459C48.1829 47.2155 48.3442 47.4518 48.4637 47.6242C48.5832 47.7965 48.6861 47.8744 48.5026 47.8104L44.808 49.787C44.782 49.9435 44.782 50.1032 44.808 50.2596C44.8157 50.3244 44.8345 50.3874 44.8636 50.4459C44.8942 50.507 44.9053 50.4709 44.8914 50.4097C44.8263 50.1997 44.7327 49.9995 44.6134 49.8148C44.2961 49.2799 43.948 48.7638 43.5709 48.2691C43.1761 47.7326 42.7369 47.1933 42.3143 46.6428C41.8918 46.0924 41.4275 45.5308 41.0161 44.9748L40.9744 44.9192C40.776 44.6508 40.6731 44.3236 40.6821 43.9899C40.6911 43.6562 40.8115 43.3352 41.0241 43.0778C41.2367 42.8204 41.5293 42.6416 41.8553 42.5697C42.1813 42.4979 42.522 42.5372 42.8231 42.6813C43.5105 43.0144 44.1787 43.3857 44.8247 43.7933C45.4696 44.202 46.0951 44.6273 46.7179 45.125C47.0264 45.3668 47.3295 45.6254 47.6325 45.8978C47.9526 46.1812 48.2561 46.4829 48.5415 46.8013C48.8817 47.1751 49.186 47.58 49.4506 48.0106C49.6349 48.3119 49.7833 48.6338 49.8926 48.9697C49.969 49.2023 50.0239 49.4415 50.0566 49.6842C50.1036 50.0189 50.1036 50.3586 50.0566 50.6933C50.0054 51.0328 49.8877 51.3589 49.7102 51.6529C49.5328 51.9468 49.2991 52.2029 49.0225 52.4064C48.7459 52.6099 48.4319 52.7568 48.0984 52.8387C47.765 52.9207 47.4187 52.936 47.0793 52.8839C46.8762 52.8539 46.6774 52.7998 46.4871 52.7227L46.3648 52.6699C45.9578 52.5013 45.5739 52.2818 45.2222 52.0166C44.9468 51.8135 44.6866 51.5905 44.4438 51.3494C44.0471 50.9516 43.6836 50.522 43.3568 50.065C42.7903 49.2851 42.2864 48.4615 41.8501 47.6019C41.4192 46.7874 41.0578 45.9701 40.7186 45.15C40.5546 44.7358 40.3906 44.316 40.246 43.9073C40.171 43.6988 40.0987 43.4903 40.0292 43.2763L39.8235 42.6118C39.6009 41.8805 39.6709 41.0914 40.0188 40.4107C40.3667 39.73 40.9653 39.211 41.6884 38.963C42.4114 38.715 43.2025 38.7574 43.895 39.0813C44.5874 39.4052 45.127 39.9852 45.4001 40.6992L45.4391 40.8326Z" fill="#263238"/>
<path opacity="0.1" d="M45.4391 40.8326L45.831 41.8835L46.2453 42.9677C46.5233 43.6877 46.8013 44.3938 47.1043 45.0721C47.2516 45.4113 47.4073 45.7421 47.563 46.0563C47.7187 46.3704 47.8716 46.6762 48.0272 46.9459C48.1829 47.2155 48.3442 47.4518 48.4637 47.6242C48.5832 47.7965 48.6861 47.8744 48.5026 47.8104L44.808 49.787C44.782 49.9435 44.782 50.1032 44.808 50.2596C44.8157 50.3244 44.8345 50.3874 44.8636 50.4459C44.8942 50.507 44.9053 50.4709 44.8914 50.4097C44.8263 50.1997 44.7327 49.9995 44.6134 49.8148C44.2961 49.2799 43.948 48.7638 43.5709 48.2691C43.1761 47.7326 42.7369 47.1933 42.3143 46.6428C41.8918 46.0924 41.4275 45.5308 41.0161 44.9748L40.9744 44.9192C40.776 44.6508 40.6731 44.3236 40.6821 43.9899C40.6911 43.6562 40.8115 43.3352 41.0241 43.0778C41.2367 42.8204 41.5293 42.6416 41.8553 42.5697C42.1813 42.4979 42.522 42.5372 42.8231 42.6813C43.5105 43.0144 44.1787 43.3857 44.8247 43.7933C45.4696 44.202 46.0951 44.6273 46.7179 45.125C47.0264 45.3668 47.3295 45.6254 47.6325 45.8978C47.9526 46.1812 48.2561 46.4829 48.5415 46.8013C48.8817 47.1751 49.186 47.58 49.4506 48.0106C49.6349 48.3119 49.7833 48.6338 49.8926 48.9697C49.969 49.2023 50.0239 49.4415 50.0566 49.6842C50.1036 50.0189 50.1036 50.3586 50.0566 50.6933C50.0054 51.0328 49.8877 51.3589 49.7102 51.6529C49.5328 51.9468 49.2991 52.2029 49.0225 52.4064C48.7459 52.6099 48.4319 52.7568 48.0984 52.8387C47.765 52.9207 47.4187 52.936 47.0793 52.8839C46.8762 52.8539 46.6774 52.7998 46.4871 52.7227L46.3648 52.6699C45.9578 52.5013 45.5739 52.2818 45.2222 52.0166C44.9468 51.8135 44.6866 51.5905 44.4438 51.3494C44.0471 50.9516 43.6836 50.522 43.3568 50.065C42.7903 49.2851 42.2864 48.4615 41.8501 47.6019C41.4192 46.7874 41.0578 45.9701 40.7186 45.15C40.5546 44.7358 40.3906 44.316 40.246 43.9073C40.171 43.6988 40.0987 43.4903 40.0292 43.2763L39.8235 42.6118C39.6009 41.8805 39.6709 41.0914 40.0188 40.4107C40.3667 39.73 40.9653 39.211 41.6884 38.963C42.4114 38.715 43.2025 38.7574 43.895 39.0813C44.5874 39.4052 45.127 39.9852 45.4001 40.6992L45.4391 40.8326Z" fill="white"/>
<path d="M48.2274 44.2993L48.7639 45.7366C48.8117 45.8304 48.8318 45.9359 48.822 46.0407C48.8121 46.1455 48.7727 46.2454 48.7083 46.3287L48.372 46.6595C48.3047 46.7162 48.2258 46.7574 48.1408 46.7801C48.0558 46.8028 47.9668 46.8064 47.8802 46.7907C47.7937 46.7751 47.7116 46.7405 47.64 46.6894C47.5683 46.6384 47.5088 46.5722 47.4657 46.4955L46.4538 45.0082C46.3971 44.9377 46.3568 44.8554 46.3357 44.7674C46.3146 44.6794 46.3134 44.5878 46.332 44.4993C46.3506 44.4107 46.3886 44.3274 46.4433 44.2553C46.4981 44.1833 46.5681 44.1242 46.6484 44.0825L47.4379 43.7544C47.6992 43.646 48.094 43.9073 48.2274 44.2993Z" fill="#FF8B7B"/>
<path d="M45.8366 114.847C45.8366 114.847 41.422 113.794 41.144 113.088H38.642L38.5085 115.715H40.032L40.2794 115.473L40.6547 115.715C41.8974 115.715 45.1972 115.667 45.9923 115.387C46.0165 115.291 46.0149 115.191 45.9875 115.096C45.9602 115.001 45.9081 114.915 45.8366 114.847Z" fill="#263238"/>
</svg>
