<svg width="23" height="24" viewBox="0 0 23 24" fill="none" xmlns="http://www.w3.org/2000/svg">
<g clip-path="url(#clip0_6_41)">
<path d="M11.5 2.08696C9.93182 2.08696 8.70668 2.66305 7.82457 3.81522C6.94247 4.9674 6.50142 6.44022 6.50142 8.2337C6.49053 10.462 7.20928 12.2283 8.65767 13.5326C8.8428 13.7065 8.90814 13.9294 8.85369 14.2011L8.47798 14.9837C8.35819 15.2446 8.18123 15.4484 7.94709 15.5951C7.71295 15.7419 7.22017 15.9511 6.46875 16.2228C6.43608 16.2337 5.74728 16.4565 4.40234 16.8913C3.05741 17.3261 2.34138 17.5652 2.25426 17.6087C1.33949 17.9891 0.74053 18.3859 0.457386 18.7989C0.152462 19.4837 0 21.2174 0 24H23C23 21.2174 22.8475 19.4837 22.5426 18.7989C22.2595 18.3859 21.6605 17.9891 20.7457 17.6087C20.6586 17.5652 19.9426 17.3261 18.5977 16.8913C17.2527 16.4565 16.5639 16.2337 16.5312 16.2228C15.7798 15.9511 15.287 15.7419 15.0529 15.5951C14.8188 15.4484 14.6418 15.2446 14.522 14.9837L14.1463 14.2011C14.0919 13.9294 14.1572 13.7065 14.3423 13.5326C15.7907 12.2283 16.5095 10.462 16.4986 8.2337C16.4986 6.44022 16.0575 4.9674 15.1754 3.81522C14.2933 2.66305 13.0682 2.08696 11.5 2.08696Z" fill="white"/>
</g>
<defs>
<clipPath id="clip0_6_41">
<rect width="23" height="24" fill="white"/>
</clipPath>
</defs>
</svg>
