<svg width="25" height="25" viewBox="0 0 25 25" fill="none" xmlns="http://www.w3.org/2000/svg">
<path d="M4.16683 6.25H2.0835V20.8333C2.0835 21.9792 3.021 22.9167 4.16683 22.9167H18.7502V20.8333H4.16683V6.25Z" fill="white"/>
<path d="M20.8333 2.08334H8.33333C7.1875 2.08334 6.25 3.02084 6.25 4.16668V16.6667C6.25 17.8125 7.1875 18.75 8.33333 18.75H20.8333C21.9792 18.75 22.9167 17.8125 22.9167 16.6667V4.16668C22.9167 3.02084 21.9792 2.08334 20.8333 2.08334ZM14.5938 15.625C13.9792 15.625 13.5 15.1354 13.5 14.5313C13.5 13.9167 13.9896 13.4479 14.5938 13.4479C15.2083 13.4479 15.6771 13.9167 15.6771 14.5313C15.6667 15.1354 15.2083 15.625 14.5938 15.625ZM17.1979 9.19793C16.5417 10.1667 15.9167 10.4583 15.5729 11.0833C15.4375 11.3333 15.3854 11.5 15.3854 12.3125H13.8021C13.8021 11.8854 13.7396 11.1875 14.0729 10.5938C14.5 9.83334 15.3021 9.38543 15.7708 8.71876C16.2708 8.01043 15.9896 6.69793 14.5833 6.69793C13.6667 6.69793 13.2083 7.39584 13.0208 7.97918L11.5938 7.38543C11.9896 6.20834 13.0417 5.20834 14.5729 5.20834C15.8542 5.20834 16.7396 5.79168 17.1875 6.52084C17.5729 7.15626 17.7917 8.32293 17.1979 9.19793Z" fill="white"/>
</svg>
