<svg width="135" height="135" viewBox="0 0 135 135" fill="none" xmlns="http://www.w3.org/2000/svg">
<path d="M67.5 119.499C96.4123 119.499 119.85 118.131 119.85 116.443C119.85 114.755 96.4123 113.387 67.5 113.387C38.5877 113.387 15.1497 114.755 15.1497 116.443C15.1497 118.131 38.5877 119.499 67.5 119.499Z" fill="#F5F5F5"/>
<path d="M64.368 92.2131H12.2337C11.8251 92.2124 11.4333 92.0497 11.1444 91.7607C10.8554 91.4718 10.6927 91.0801 10.692 90.6714V17.3853C10.6963 16.979 10.8605 16.5907 11.1491 16.3047C11.4377 16.0186 11.8274 15.8578 12.2337 15.8571H64.368C64.7764 15.8578 65.1679 16.0206 65.4564 16.3096C65.745 16.5987 65.907 16.9904 65.907 17.3988V90.6714C65.907 91.0798 65.745 91.4715 65.4564 91.7606C65.1679 92.0496 64.7764 92.2124 64.368 92.2131ZM12.2337 15.9111C11.843 15.9118 11.4684 16.0674 11.1921 16.3437C10.9158 16.62 10.7602 16.9945 10.7595 17.3853V90.6714C10.7602 91.0622 10.9158 91.4367 11.1921 91.713C11.4684 91.9893 11.843 92.1449 12.2337 92.1456H64.368C64.7585 92.1449 65.1328 91.9893 65.4087 91.7129C65.6846 91.4365 65.8395 91.0619 65.8395 90.6714V17.3853C65.8395 16.9948 65.6846 16.6202 65.4087 16.3438C65.1328 16.0675 64.7585 15.9118 64.368 15.9111H12.2337Z" fill="#E6E6E6"/>
<path d="M122.769 92.2131H70.632C70.2236 92.2124 69.8321 92.0496 69.5436 91.7606C69.255 91.4715 69.093 91.0798 69.093 90.6714V17.3853C69.0965 16.9792 69.2602 16.591 69.5483 16.3048C69.8365 16.0187 70.2259 15.8578 70.632 15.8571H122.769C123.175 15.8578 123.564 16.0187 123.853 16.3048C124.141 16.591 124.304 16.9792 124.308 17.3853V90.6714C124.308 91.0798 124.146 91.4715 123.857 91.7606C123.569 92.0496 123.177 92.2124 122.769 92.2131ZM70.632 15.9111C70.2415 15.9118 69.8672 16.0675 69.5913 16.3438C69.3154 16.6202 69.1605 16.9948 69.1605 17.3853V90.6714C69.1605 91.0619 69.3154 91.4365 69.5913 91.7129C69.8672 91.9893 70.2415 92.1449 70.632 92.1456H122.769C123.16 92.1449 123.535 91.9894 123.812 91.7132C124.088 91.437 124.244 91.0624 124.246 90.6714V17.3853C124.244 16.9943 124.088 16.6197 123.812 16.3435C123.535 16.0673 123.16 15.9118 122.769 15.9111H70.632Z" fill="#E6E6E6"/>
<path d="M23.2038 105.897H12.0771V105.964H23.2038V105.897Z" fill="#E0E0E0"/>
<path d="M45.8838 105.357H34.7247V105.424H45.8838V105.357Z" fill="#E0E0E0"/>
<path d="M60.4044 105.357H57.7044V105.424H60.4044V105.357Z" fill="#E0E0E0"/>
<path d="M33.4179 107.662H20.9304V107.73H33.4179V107.662Z" fill="#E0E0E0"/>
<path d="M76.6098 105.862H70.7778V105.929H76.6098V105.862Z" fill="#E0E0E0"/>
<path d="M86.5539 105.862H79.0128V105.929H86.5539V105.862Z" fill="#E0E0E0"/>
<path d="M122.923 107.004H106.064V107.071H122.923V107.004Z" fill="#E0E0E0"/>
<path d="M135 103.248H0V103.315H135V103.248Z" fill="#EBEBEB"/>
<path opacity="0.8" d="M90.4041 21.4596L89.7318 30.7152C89.709 31.0289 89.576 31.3243 89.3565 31.5495C89.2314 31.6829 89.0805 31.7895 88.9129 31.8629C88.7454 31.9362 88.5647 31.9747 88.3818 31.9761H80.9595C80.7974 31.9778 80.6367 31.9456 80.4876 31.8817C80.3386 31.8177 80.2046 31.7234 80.0941 31.6048C79.9835 31.4861 79.899 31.3457 79.8458 31.1926C79.7926 31.0394 79.7719 30.8768 79.785 30.7152L80.46 21.4596C80.4875 21.119 80.6412 20.801 80.8909 20.5678C81.1406 20.3346 81.4684 20.203 81.81 20.1987H89.2323C89.3946 20.1962 89.5556 20.2278 89.7048 20.2915C89.8541 20.3551 89.9883 20.4495 90.0988 20.5683C90.2093 20.6872 90.2936 20.828 90.3462 20.9815C90.3988 21.1351 90.4185 21.298 90.4041 21.4596Z" fill="#E0E0E0"/>
<path d="M87.132 26.0624C87.4136 24.7167 86.758 23.4408 85.6677 23.2126C84.5775 22.9844 83.4653 23.8904 83.1837 25.2361C82.9021 26.5818 83.5576 27.8577 84.6479 28.0858C85.7382 28.314 86.8503 27.4081 87.132 26.0624Z" fill="white"/>
<path d="M88.1226 31.3389H81.3294C80.8974 31.3389 80.6004 31.131 80.5896 30.8421C80.5734 30.4209 82.7766 28.5984 84.8664 28.7577H84.915C86.1988 28.8032 87.4302 29.2786 88.4115 30.1077C89.4213 30.9015 88.4682 31.3389 88.1226 31.3389Z" fill="white"/>
<path d="M52.11 31.6386C51.4001 31.6358 50.7166 31.3693 50.1922 30.8908C49.6678 30.4123 49.3399 29.756 49.2723 29.0493C49.2408 28.7137 49.2795 28.3752 49.3859 28.0553C49.4924 27.7355 49.6642 27.4413 49.8904 27.1914C50.1167 26.9416 50.3924 26.7415 50.7002 26.6039C51.0079 26.4664 51.3409 26.3944 51.678 26.3925C52.3879 26.3953 53.0714 26.6618 53.5958 27.1403C54.1202 27.6188 54.4481 28.2751 54.5157 28.9818C54.5472 29.3174 54.5085 29.6559 54.4021 29.9757C54.2956 30.2956 54.1239 30.5898 53.8976 30.8397C53.6713 31.0895 53.3956 31.2896 53.0878 31.4272C52.7801 31.5647 52.4471 31.6367 52.11 31.6386ZM51.7941 27.7857C51.6358 27.7857 51.4793 27.8188 51.3347 27.8829C51.19 27.9471 51.0603 28.0407 50.954 28.158C50.8477 28.2752 50.7671 28.4134 50.7174 28.5637C50.6677 28.7139 50.65 28.8729 50.6655 29.0304C50.6987 29.3613 50.853 29.6683 51.0986 29.8925C51.3443 30.1168 51.664 30.2424 51.9966 30.2454C52.1546 30.245 52.3108 30.2116 52.4552 30.1473C52.5996 30.0831 52.7289 29.9893 52.8349 29.8721C52.9409 29.7549 53.0213 29.6169 53.0708 29.4668C53.1203 29.3167 53.1379 29.158 53.1225 29.0007C53.0894 28.6712 52.9363 28.3653 52.6924 28.1412C52.4485 27.9172 52.1307 27.7907 51.7995 27.7857H51.7941Z" fill="#E0E0E0"/>
<path d="M52.245 27.5832L51.2514 27.5967L50.7222 21.1923L51.7185 21.1815L52.245 27.5832Z" fill="#E0E0E0"/>
<path d="M52.6608 21.4677L50.7924 21.492L50.7114 20.4957L52.5798 20.4714L52.6608 21.4677Z" fill="#E0E0E0"/>
<path d="M52.7688 22.7475L51.0111 22.7691L50.9301 21.7728L52.6851 21.7512L52.7688 22.7475Z" fill="#E0E0E0"/>
<path d="M52.92 24.5511L51.3864 24.57L51.3027 23.5764L52.8363 23.5575L52.92 24.5511Z" fill="#E0E0E0"/>
<path d="M21.4137 86.0679C21.4194 86.1485 21.4293 86.2287 21.4434 86.3082C21.5364 86.8262 21.7951 87.2999 22.1805 87.6582C22.6182 88.0736 23.197 88.308 23.8005 88.3143H46.6128C47.1534 88.323 47.6755 88.1181 48.0658 87.7439C48.4561 87.3698 48.683 86.8568 48.6972 86.3163C48.7033 85.9961 48.646 85.6778 48.5286 85.3798C48.4112 85.0817 48.2361 84.8098 48.0133 84.5797C47.7904 84.3496 47.5243 84.1659 47.2302 84.039C46.9361 83.9121 46.6199 83.8446 46.2996 83.8404H23.49C23.2033 83.8368 22.919 83.8931 22.6554 84.0058C22.3917 84.1185 22.1545 84.2851 21.959 84.4948C21.7635 84.7045 21.614 84.9528 21.5201 85.2237C21.4262 85.4946 21.3899 85.7822 21.4137 86.0679Z" fill="#F0F0F0"/>
<path d="M48.7053 86.3082C48.7036 86.3807 48.6964 86.4529 48.6837 86.5242C48.6179 85.935 48.3389 85.3901 47.8993 84.9923C47.4597 84.5945 46.8898 84.3711 46.2969 84.3642L22.0374 84.402C22.4293 84.0265 22.9526 83.8191 23.4954 83.8242H46.3077C46.6299 83.8218 46.9493 83.8847 47.2464 84.0093C47.5436 84.1339 47.8124 84.3174 48.0365 84.5489C48.2607 84.7804 48.4355 85.0549 48.5505 85.3559C48.6654 85.6569 48.7181 85.9782 48.7053 86.3001V86.3082Z" fill="#E0E0E0"/>
<path d="M44.8011 84.9096L44.8767 85.9896L45.9 85.6089L46.1322 86.1489L45.09 86.5053L45.819 87.4206L45.36 87.7662L44.6499 86.8158L44.0829 87.7662L43.578 87.4206L44.1693 86.5053L43.0893 86.1624L43.2432 85.6224L44.3232 85.9896L44.2476 84.9096H44.8011Z" fill="white"/>
<path d="M38.5614 84.9096L38.6397 85.9896L39.6603 85.6089L39.8925 86.1489L38.8476 86.4918L39.5793 87.4071L39.1068 87.7527L38.3967 86.8023L37.8297 87.7527L37.3248 87.4071L37.9161 86.4918L36.8361 86.1489L36.9927 85.6089L38.0727 85.9761L37.9971 84.8961L38.5614 84.9096Z" fill="white"/>
<path d="M32.3244 84.9096L32.4 85.9896L33.4233 85.6089L33.6555 86.1489L32.6106 86.4918L33.3396 87.4071L32.8671 87.7527L32.157 86.8023L31.59 87.7527L31.0851 87.4071L31.6764 86.4918L30.5964 86.1489L30.753 85.6089L31.833 85.9761L31.7574 84.8961L32.3244 84.9096Z" fill="white"/>
<path d="M26.0847 84.9096L26.1603 85.9896L27.1836 85.6089L27.4158 86.1489L26.3709 86.4918L27.0999 87.4071L26.6301 87.7527L25.92 86.8158L25.3503 87.7662L24.84 87.4206L25.434 86.5053L24.354 86.1624L24.5106 85.6224L25.5906 85.9896L25.515 84.9096H26.0847Z" fill="white"/>
<path d="M41.2398 83.0439H40.176L40.1787 82.7739H41.2425L41.2398 83.0439Z" fill="#E0E0E0"/>
<path d="M45.8109 83.0439H42.3414L42.3468 82.7739H45.8163L45.8109 83.0439Z" fill="#E0E0E0"/>
<g opacity="0.8">
<path opacity="0.8" d="M72.7326 81.6831L77.0364 88.3062L91.2276 74.115C91.2414 74.1028 91.2527 74.0879 91.2608 74.0713C91.2689 74.0547 91.2736 74.0367 91.2748 74.0183C91.2759 73.9999 91.2734 73.9814 91.2674 73.9639C91.2614 73.9465 91.252 73.9304 91.2397 73.9166C91.2275 73.9027 91.2127 73.8914 91.1961 73.8833C91.1795 73.8753 91.1615 73.8705 91.143 73.8694C91.1246 73.8682 91.1061 73.8708 91.0887 73.8768C91.0712 73.8828 91.0551 73.8922 91.0413 73.9044L77.517 84.51L74.9628 80.3925L72.7326 81.6831Z" fill="#E0E0E0"/>
</g>
<path opacity="0.1" d="M70.1622 34.5465L59.9724 72.6597H63.3987L73.4751 34.5465H70.1622Z" fill="white"/>
<path opacity="0.1" d="M75.4515 34.5465L65.2617 72.6597H72.0603L82.1367 34.5465H75.4515Z" fill="white"/>
<path d="M112.134 68.9337L114.294 38.3427C114.314 38.1077 114.284 37.871 114.207 37.6481C114.13 37.4252 114.007 37.221 113.846 37.0487C113.685 36.8763 113.489 36.7398 113.272 36.6478C113.055 36.5559 112.82 36.5105 112.585 36.5148L59.1948 36.5607C58.6982 36.5676 58.2218 36.7587 57.8581 37.0969C57.4944 37.4352 57.2693 37.8965 57.2265 38.3913L55.08 68.985C55.0604 69.2202 55.0902 69.4569 55.1677 69.6798C55.2452 69.9027 55.3686 70.1069 55.5299 70.2791C55.6913 70.4514 55.8869 70.5879 56.1043 70.6798C56.3216 70.7718 56.5559 70.8171 56.7918 70.8129L110.16 70.767C110.658 70.762 111.137 70.5713 111.502 70.2323C111.867 69.8932 112.092 69.4302 112.134 68.9337Z" fill="#263238"/>
<path d="M111.448 68.2668L113.608 37.6758C113.628 37.4407 113.599 37.2039 113.522 36.9807C113.445 36.7576 113.322 36.5532 113.161 36.3808C113 36.2084 112.804 36.0719 112.587 35.9801C112.369 35.8883 112.135 35.8432 111.899 35.8479L58.509 35.8938C58.0125 35.9001 57.5361 36.0911 57.1727 36.4295C56.8093 36.768 56.585 37.2296 56.5434 37.7244L54.3834 68.3181C54.3634 68.5532 54.3929 68.7898 54.47 69.0127C54.5472 69.2356 54.6704 69.4398 54.8315 69.6122C54.9926 69.7845 55.1881 69.921 55.4053 70.013C55.6225 70.105 55.8567 70.1503 56.0925 70.146L109.48 70.1001C109.977 70.0938 110.454 69.9025 110.818 69.5636C111.182 69.2247 111.406 68.7624 111.448 68.2668Z" fill="#1A2980"/>
<path opacity="0.6" d="M110.033 68.7204C109.923 68.8212 109.78 68.8771 109.631 68.877L56.241 68.9229C56.1553 68.9219 56.0708 68.9036 55.9923 68.8691C55.9139 68.8345 55.8433 68.7845 55.7848 68.7219C55.7263 68.6593 55.681 68.5856 55.6518 68.505C55.6225 68.4245 55.6099 68.3389 55.6146 68.2533L57.7746 37.6623C57.783 37.5138 57.8488 37.3743 57.9582 37.2735C58.0672 37.1715 58.2113 37.1154 58.3605 37.1169L111.75 37.071C111.836 37.072 111.921 37.0903 111.999 37.1248C112.077 37.1594 112.148 37.2094 112.207 37.272C112.265 37.3346 112.31 37.4083 112.34 37.4889C112.369 37.5694 112.381 37.655 112.377 37.7406L110.217 68.3316C110.207 68.4798 110.141 68.6188 110.033 68.7204Z" fill="white"/>
<path d="M92.2752 51.9021H73.5345C73.3694 51.9049 73.2108 51.9674 73.0882 52.0781C72.9655 52.1888 72.8872 52.3402 72.8676 52.5042L72.5787 55.2447C72.5695 55.3209 72.5767 55.3981 72.5996 55.4713C72.6226 55.5445 72.6609 55.6119 72.712 55.6692C72.7631 55.7264 72.8258 55.7721 72.8959 55.8032C72.9661 55.8343 73.042 55.8501 73.1187 55.8495H91.8594C92.0251 55.8462 92.1841 55.7832 92.3071 55.6721C92.4301 55.561 92.5089 55.4092 92.529 55.2447L92.8152 52.5042C92.824 52.4283 92.8166 52.3513 92.7934 52.2784C92.7702 52.2056 92.7318 52.1385 92.6808 52.0815C92.6297 52.0246 92.5672 51.9792 92.4973 51.9483C92.4274 51.9173 92.3517 51.9016 92.2752 51.9021Z" fill="white"/>
<path d="M75.7647 63.0936H72.8406C72.6749 63.0969 72.5159 63.1599 72.3929 63.271C72.2699 63.3821 72.1911 63.5339 72.171 63.6984L71.8848 66.4389C71.876 66.5149 71.8834 66.5918 71.9066 66.6647C71.9298 66.7375 71.9682 66.8046 72.0192 66.8616C72.0703 66.9185 72.1328 66.9639 72.2027 66.9948C72.2727 67.0258 72.3484 67.0415 72.4248 67.041H75.3489C75.5142 67.0378 75.6728 66.9752 75.7958 66.8646C75.9187 66.754 75.9978 66.6029 76.0185 66.4389L76.3047 63.6984C76.3139 63.6222 76.3068 63.545 76.2838 63.4718C76.2608 63.3986 76.2225 63.3312 76.1714 63.2739C76.1203 63.2167 76.0576 63.171 75.9875 63.1399C75.9174 63.1088 75.8414 63.093 75.7647 63.0936Z" fill="white"/>
<path d="M80.8137 63.0936H77.8896C77.7239 63.0969 77.5649 63.1599 77.4419 63.271C77.3189 63.3821 77.2401 63.5339 77.22 63.6984L76.9338 66.4389C76.925 66.5149 76.9325 66.5918 76.9556 66.6647C76.9788 66.7375 77.0172 66.8046 77.0682 66.8616C77.1193 66.9185 77.1818 66.9639 77.2518 66.9948C77.3217 67.0258 77.3974 67.0415 77.4738 67.041H80.3979C80.5632 67.0378 80.7219 66.9752 80.8448 66.8646C80.9678 66.754 81.0468 66.6029 81.0675 66.4389L81.3537 63.6984C81.3629 63.6222 81.3558 63.545 81.3328 63.4718C81.3099 63.3986 81.2715 63.3312 81.2204 63.2739C81.1694 63.2167 81.1067 63.171 81.0365 63.1399C80.9664 63.1088 80.8904 63.093 80.8137 63.0936Z" fill="white"/>
<path d="M85.86 63.0936H82.9386C82.7729 63.0969 82.6139 63.1599 82.4909 63.271C82.3679 63.3821 82.2891 63.5339 82.269 63.6984L81.9828 66.4389C81.974 66.5149 81.9815 66.5918 82.0046 66.6647C82.0278 66.7375 82.0662 66.8046 82.1172 66.8616C82.1683 66.9185 82.2308 66.9639 82.3008 66.9948C82.3707 67.0258 82.4464 67.0415 82.5228 67.041H85.4469C85.6122 67.0378 85.7709 66.9752 85.8938 66.8646C86.0168 66.754 86.0958 66.6029 86.1165 66.4389L86.4 63.6984C86.4092 63.6222 86.4021 63.545 86.3791 63.4718C86.3561 63.3986 86.3178 63.3312 86.2667 63.2739C86.2156 63.2167 86.1529 63.171 86.0828 63.1399C86.0127 63.1088 85.9367 63.093 85.86 63.0936Z" fill="white"/>
<path d="M90.9117 63.0936H87.9876C87.8219 63.0969 87.663 63.1599 87.54 63.271C87.417 63.3821 87.3382 63.5339 87.318 63.6984L87.0318 66.4389C87.023 66.5149 87.0305 66.5918 87.0537 66.6647C87.0768 66.7375 87.1152 66.8046 87.1663 66.8616C87.2173 66.9185 87.2799 66.9639 87.3498 66.9948C87.4197 67.0258 87.4954 67.0415 87.5718 67.041H90.496C90.6613 67.0378 90.8199 66.9752 90.9428 66.8646C91.0658 66.754 91.1448 66.6029 91.1655 66.4389L91.4517 63.6984C91.461 63.6222 91.4538 63.545 91.4309 63.4718C91.4079 63.3986 91.3696 63.3312 91.3185 63.2739C91.2674 63.2167 91.2047 63.171 91.1345 63.1399C91.0644 63.1088 90.9885 63.093 90.9117 63.0936Z" fill="white"/>
<path d="M87.6069 61.3629H75.8862C75.7361 61.3665 75.587 61.3375 75.4491 61.2781C75.3112 61.2187 75.1878 61.1302 75.0873 61.0187C74.9868 60.9071 74.9116 60.7752 74.8668 60.6319C74.822 60.4886 74.8087 60.3373 74.8278 60.1884L74.9682 58.8384C75.0071 58.5258 75.1574 58.2378 75.3914 58.027C75.6255 57.8163 75.9277 57.6969 76.2426 57.6909H87.9633C88.1135 57.6877 88.2627 57.717 88.4006 57.7768C88.5384 57.8365 88.6618 57.9252 88.7623 58.037C88.8627 58.1487 88.9379 58.2808 88.9827 58.4242C89.0275 58.5677 89.0408 58.7191 89.0217 58.8681L88.8813 60.2181C88.8418 60.5302 88.6913 60.8176 88.4573 61.0278C88.2233 61.238 87.9214 61.357 87.6069 61.3629ZM76.2426 57.9636C75.994 57.9693 75.7556 58.064 75.5709 58.2305C75.3861 58.3969 75.2671 58.6241 75.2355 58.8708L75.0951 60.2208C75.0802 60.3322 75.0897 60.4455 75.1229 60.5529C75.1561 60.6603 75.2123 60.7591 75.2876 60.8426C75.3629 60.9261 75.4554 60.9922 75.5587 61.0364C75.6621 61.0805 75.7739 61.1016 75.8862 61.0983H87.6069C87.8553 61.0932 88.0936 60.9991 88.2784 60.8331C88.4633 60.6671 88.5824 60.4402 88.614 60.1938L88.7544 58.8438C88.7693 58.7324 88.7599 58.6191 88.7266 58.5117C88.6934 58.4043 88.6372 58.3055 88.5619 58.222C88.4866 58.1385 88.3941 58.0724 88.2908 58.0282C88.1874 57.9841 88.0757 57.963 87.9633 57.9663L76.2426 57.9636Z" fill="#1A2980"/>
<path d="M92.9502 46.1943H74.2095C74.0443 46.1983 73.886 46.2616 73.7635 46.3726C73.6411 46.4836 73.5627 46.635 73.5426 46.7991L73.2537 49.5396C73.2449 49.6155 73.2524 49.6925 73.2755 49.7654C73.2987 49.8382 73.3371 49.9053 73.3882 49.9623C73.4392 50.0192 73.5017 50.0646 73.5717 50.0955C73.6416 50.1265 73.7173 50.1422 73.7937 50.1417H92.5317C92.697 50.1385 92.8557 50.0758 92.9786 49.9653C93.1016 49.8547 93.1806 49.7036 93.2013 49.5396L93.4875 46.7991C93.4967 46.7232 93.4896 46.6462 93.4668 46.5732C93.444 46.5002 93.4059 46.4328 93.3551 46.3757C93.3043 46.3185 93.242 46.2727 93.1722 46.2415C93.1024 46.2102 93.0267 46.1941 92.9502 46.1943Z" fill="white"/>
<path d="M75.8133 53.8758C75.8246 53.7912 75.8175 53.7051 75.7924 53.6234C75.7673 53.5418 75.7248 53.4666 75.6678 53.403C75.6109 53.3393 75.5408 53.2888 75.4624 53.2548C75.3841 53.2209 75.2993 53.2043 75.2139 53.2062C75.0305 53.2105 74.8548 53.2805 74.7185 53.4033C74.5823 53.5262 74.4946 53.6938 74.4714 53.8758C74.4609 53.9604 74.4688 54.0462 74.4944 54.1275C74.5201 54.2088 74.5629 54.2836 74.62 54.3469C74.6771 54.4102 74.7472 54.4604 74.8255 54.4942C74.9037 54.528 74.9883 54.5445 75.0735 54.5427C75.2564 54.5389 75.4318 54.4695 75.5676 54.347C75.7034 54.2245 75.7907 54.0573 75.8133 53.8758Z" fill="#263238"/>
<path d="M77.8761 53.8758C77.887 53.791 77.8795 53.7049 77.8541 53.6232C77.8286 53.5416 77.7858 53.4665 77.7287 53.4029C77.6715 53.3393 77.6013 53.2888 77.5228 53.2549C77.4444 53.2209 77.3595 53.2043 77.274 53.2062C77.0908 53.2101 76.9151 53.2799 76.7792 53.4029C76.6433 53.5259 76.5563 53.6938 76.5342 53.8758C76.5233 53.9602 76.5308 54.046 76.5561 54.1273C76.5814 54.2086 76.624 54.2835 76.6809 54.3468C76.7378 54.4101 76.8077 54.4604 76.8859 54.4942C76.964 54.528 77.0485 54.5446 77.1336 54.5427C77.3168 54.539 77.4925 54.4696 77.6288 54.3472C77.7651 54.2248 77.8529 54.0575 77.8761 53.8758Z" fill="#263238"/>
<path d="M79.9362 53.8758C79.9471 53.791 79.9396 53.7049 79.9142 53.6232C79.8887 53.5416 79.8459 53.4665 79.7888 53.4029C79.7316 53.3393 79.6614 53.2888 79.5829 53.2549C79.5045 53.2209 79.4196 53.2043 79.3341 53.2062C79.1509 53.2101 78.9752 53.2799 78.8393 53.4029C78.7034 53.5259 78.6164 53.6938 78.5944 53.8758C78.5839 53.9604 78.5917 54.0462 78.6174 54.1275C78.643 54.2088 78.6858 54.2836 78.7429 54.3469C78.8001 54.4102 78.8701 54.4604 78.9484 54.4942C79.0266 54.528 79.1112 54.5445 79.1964 54.5427C79.3793 54.5389 79.5547 54.4695 79.6905 54.347C79.8263 54.2245 79.9136 54.0573 79.9362 53.8758Z" fill="#263238"/>
<path d="M81.9963 53.8758C82.0077 53.7912 82.0005 53.7051 81.9754 53.6234C81.9503 53.5418 81.9078 53.4666 81.8508 53.403C81.7939 53.3393 81.7238 53.2888 81.6454 53.2548C81.5671 53.2209 81.4823 53.2043 81.3969 53.2062C81.2137 53.2101 81.038 53.2799 80.9021 53.4029C80.7662 53.5259 80.6792 53.6938 80.6571 53.8758C80.646 53.9613 80.6537 54.0482 80.6798 54.1303C80.7059 54.2125 80.7497 54.2879 80.8082 54.3513C80.8666 54.4146 80.9383 54.4644 81.0181 54.497C81.0979 54.5296 81.1839 54.5443 81.27 54.54C81.4501 54.5332 81.6219 54.4626 81.7549 54.341C81.8879 54.2194 81.9735 54.0546 81.9963 53.8758Z" fill="#263238"/>
<path d="M84.0996 53.8758C84.1105 53.791 84.103 53.7049 84.0775 53.6232C84.0521 53.5416 84.0093 53.4665 83.9522 53.4029C83.895 53.3393 83.8248 53.2888 83.7463 53.2549C83.6679 53.2209 83.583 53.2043 83.4975 53.2062C83.3143 53.2101 83.1386 53.2799 83.0027 53.4029C82.8668 53.5259 82.7798 53.6938 82.7577 53.8758C82.7468 53.9602 82.7543 54.046 82.7796 54.1273C82.8049 54.2086 82.8475 54.2835 82.9044 54.3468C82.9613 54.4101 83.0312 54.4604 83.1094 54.4942C83.1875 54.528 83.272 54.5446 83.3571 54.5427C83.5403 54.539 83.716 54.4696 83.8523 54.3472C83.9886 54.2248 84.0764 54.0575 84.0996 53.8758Z" fill="#263238"/>
<path d="M76.4883 48.168C76.4997 48.0835 76.4926 47.9975 76.4675 47.916C76.4423 47.8345 76.3998 47.7595 76.3428 47.696C76.2858 47.6326 76.2156 47.5823 76.1373 47.5487C76.0589 47.515 75.9742 47.4988 75.8889 47.5011C75.7061 47.5049 75.5307 47.5744 75.3949 47.6968C75.259 47.8193 75.1718 47.9865 75.1491 48.168C75.1377 48.2525 75.1449 48.3385 75.17 48.42C75.1951 48.5015 75.2377 48.5766 75.2947 48.64C75.3517 48.7034 75.4218 48.7537 75.5002 48.7873C75.5785 48.821 75.6633 48.8372 75.7485 48.8349C75.9315 48.8317 76.1072 48.7624 76.2432 48.6398C76.3792 48.5173 76.4662 48.3497 76.4883 48.168Z" fill="#263238"/>
<path d="M78.5511 48.168C78.5616 48.0834 78.5538 47.9976 78.5281 47.9163C78.5025 47.835 78.4596 47.7602 78.4025 47.6969C78.3454 47.6336 78.2753 47.5834 78.1971 47.5496C78.1188 47.5158 78.0342 47.4993 77.949 47.5011C77.7681 47.5074 77.5953 47.578 77.4617 47.7002C77.3281 47.8225 77.2424 47.9883 77.22 48.168C77.2091 48.2524 77.2166 48.3382 77.2419 48.4195C77.2672 48.5008 77.3098 48.5757 77.3667 48.639C77.4236 48.7023 77.4935 48.7526 77.5716 48.7864C77.6498 48.8202 77.7343 48.8368 77.8194 48.8349C78.0009 48.8292 78.1743 48.7589 78.3085 48.6366C78.4426 48.5143 78.5287 48.3481 78.5511 48.168Z" fill="#263238"/>
<path d="M80.6112 48.168C80.6221 48.0836 80.6147 47.9978 80.5894 47.9165C80.5641 47.8352 80.5215 47.7603 80.4646 47.697C80.4077 47.6337 80.3377 47.5834 80.2596 47.5496C80.1815 47.5158 80.097 47.4992 80.0118 47.5011C79.8287 47.5048 79.653 47.5742 79.5167 47.6966C79.3804 47.819 79.2926 47.9863 79.2693 48.168C79.2584 48.2527 79.2659 48.3387 79.2914 48.4202C79.3169 48.5017 79.3597 48.5767 79.4169 48.6401C79.4741 48.7034 79.5443 48.7537 79.6228 48.7873C79.7013 48.8209 79.7861 48.8372 79.8714 48.8349C80.0545 48.8317 80.2301 48.7624 80.3661 48.6398C80.502 48.5173 80.5891 48.3497 80.6112 48.168Z" fill="#263238"/>
<path d="M82.6713 48.168C82.6827 48.0835 82.6756 47.9975 82.6504 47.916C82.6253 47.8345 82.5828 47.7595 82.5258 47.696C82.4687 47.6326 82.3986 47.5823 82.3203 47.5487C82.2419 47.515 82.1572 47.4988 82.0719 47.5011C81.8891 47.5049 81.7137 47.5744 81.5779 47.6968C81.442 47.8193 81.3548 47.9865 81.3321 48.168C81.3208 48.2525 81.3279 48.3385 81.353 48.42C81.3781 48.5015 81.4207 48.5766 81.4777 48.64C81.5347 48.7034 81.6048 48.7537 81.6832 48.7873C81.7615 48.821 81.8463 48.8372 81.9315 48.8349C82.1145 48.8317 82.2902 48.7624 82.4262 48.6398C82.5621 48.5173 82.6492 48.3497 82.6713 48.168Z" fill="#263238"/>
<path d="M84.7341 48.168C84.7446 48.0834 84.7367 47.9976 84.7111 47.9163C84.6855 47.835 84.6426 47.7602 84.5855 47.6969C84.5284 47.6336 84.4583 47.5834 84.3801 47.5496C84.3018 47.5158 84.2172 47.4993 84.132 47.5011C83.9492 47.5049 83.7738 47.5743 83.6379 47.6968C83.5021 47.8193 83.4149 47.9865 83.3922 48.168C83.3813 48.2527 83.3888 48.3387 83.4142 48.4202C83.4397 48.5017 83.4825 48.5767 83.5397 48.6401C83.597 48.7034 83.6672 48.7537 83.7457 48.7873C83.8241 48.8209 83.909 48.8372 83.9943 48.8349C84.1773 48.8317 84.353 48.7624 84.489 48.6398C84.6249 48.5173 84.712 48.3497 84.7341 48.168Z" fill="#263238"/>
<path d="M86.7942 48.168C86.8052 48.0836 86.7977 47.9978 86.7724 47.9165C86.7471 47.8352 86.7045 47.7603 86.6476 47.697C86.5907 47.6337 86.5208 47.5834 86.4426 47.5496C86.3645 47.5158 86.28 47.4992 86.1948 47.5011C86.0117 47.5048 85.836 47.5742 85.6997 47.6966C85.5634 47.819 85.4756 47.9863 85.4523 48.168C85.4414 48.2527 85.4489 48.3387 85.4744 48.4202C85.4998 48.5017 85.5427 48.5767 85.5999 48.6401C85.6571 48.7034 85.7273 48.7537 85.8058 48.7873C85.8843 48.8209 85.9691 48.8372 86.0544 48.8349C86.2375 48.8317 86.4131 48.7624 86.5491 48.6398C86.6851 48.5173 86.7721 48.3497 86.7942 48.168Z" fill="#263238"/>
<path d="M85.05 40.1517L84.9042 41.5368C84.8939 41.5971 84.8635 41.6521 84.8179 41.6928C84.7723 41.7335 84.7142 41.7575 84.6531 41.7609C84.6244 41.762 84.5957 41.7567 84.5692 41.7455C84.5427 41.7343 84.5189 41.7174 84.4996 41.6961C84.4803 41.6747 84.4659 41.6494 84.4575 41.6219C84.449 41.5944 84.4467 41.5653 84.4506 41.5368L84.5964 40.1517C84.6092 40.0491 84.5998 39.945 84.5688 39.8464C84.5379 39.7478 84.4861 39.657 84.4169 39.5802C84.3478 39.5034 84.2629 39.4423 84.1681 39.4012C84.0733 39.36 83.9708 39.3397 83.8674 39.3417H83.3679C83.146 39.347 82.9333 39.4316 82.7684 39.5802C82.6034 39.7288 82.4972 39.9315 82.4688 40.1517L82.3419 41.4369H81.8883L82.0152 40.1517C82.0581 39.8081 82.2233 39.4915 82.4807 39.2599C82.7381 39.0283 83.0703 38.8972 83.4165 38.8908H83.9133C84.0746 38.8867 84.2348 38.9176 84.3829 38.9813C84.5311 39.045 84.6637 39.14 84.7717 39.2598C84.8797 39.3796 84.9605 39.5213 85.0085 39.6753C85.0566 39.8292 85.0707 39.9918 85.05 40.1517Z" fill="#1A2980"/>
<path d="M85.05 41.4855L84.7665 44.1855C84.7556 44.2693 84.7149 44.3464 84.652 44.4029C84.5891 44.4594 84.5081 44.4914 84.4236 44.4933H81.7236C81.6847 44.4937 81.6462 44.4857 81.6108 44.4698C81.5753 44.4539 81.5436 44.4306 81.518 44.4014C81.4923 44.3721 81.4733 44.3377 81.4622 44.3005C81.4511 44.2632 81.4482 44.224 81.4536 44.1855L81.7371 41.4855C81.7424 41.43 81.7608 41.3766 81.7909 41.3296C81.8209 41.2827 81.8617 41.2435 81.9099 41.2155C81.9615 41.1853 82.0202 41.1694 82.08 41.1696H84.78C84.8352 41.169 84.8895 41.184 84.9366 41.2128C84.9799 41.2423 85.0138 41.2838 85.0339 41.3323C85.054 41.3807 85.0596 41.4339 85.05 41.4855Z" fill="#1A2980"/>
<path d="M99.5949 35.8425C99.5591 35.8425 99.5248 35.8283 99.4995 35.803C99.4742 35.7776 99.4599 35.7433 99.4599 35.7075C99.4599 35.6717 99.4742 35.6374 99.4995 35.612C99.5248 35.5867 99.5591 35.5725 99.5949 35.5725L106.194 35.5347C106.23 35.5347 106.264 35.5489 106.289 35.5742C106.315 35.5996 106.329 35.6339 106.329 35.6697C106.329 35.7055 106.315 35.7398 106.289 35.7652C106.264 35.7905 106.23 35.8047 106.194 35.8047L99.5976 35.8425H99.5949Z" fill="#263238"/>
<path d="M107.46 35.7966C107.424 35.7966 107.39 35.7824 107.365 35.7571C107.339 35.7317 107.325 35.6974 107.325 35.6616C107.325 35.6258 107.339 35.5915 107.365 35.5661C107.39 35.5408 107.424 35.5266 107.46 35.5266H109.793C109.829 35.5266 109.863 35.5408 109.888 35.5661C109.914 35.5915 109.928 35.6258 109.928 35.6616C109.928 35.6974 109.914 35.7317 109.888 35.7571C109.863 35.7824 109.829 35.7966 109.793 35.7966H107.46Z" fill="#263238"/>
<g opacity="0.3">
<path opacity="0.3" d="M63.477 37.1088H71.037L63.3501 68.9229H57.2562C57.0804 68.9194 56.9076 68.8763 56.7509 68.7966C56.5941 68.7169 56.4573 68.6029 56.3509 68.4629C56.2444 68.3229 56.171 68.1607 56.1361 67.9884C56.1011 67.816 56.1056 67.638 56.1492 67.4676L63.477 37.1088Z" fill="white"/>
<path opacity="0.3" d="M74.385 37.1088H77.5899L69.9111 68.9229H66.7062L74.385 37.1088Z" fill="white"/>
</g>
<path d="M23.3955 27.1782H24.9291C24.5698 27.1731 24.2135 27.2434 23.883 27.3845C23.5526 27.5256 23.2554 27.7344 23.0107 27.9975C22.7659 28.2606 22.579 28.572 22.4621 28.9118C22.3451 29.2515 22.3007 29.612 22.3317 29.97L25.5852 76.491C25.6469 77.2443 25.9869 77.9476 26.539 78.4637C27.0911 78.9799 27.8157 79.2719 28.5714 79.2828H27.0405C26.2845 79.272 25.5596 78.98 25.0071 78.4639C24.4545 77.9478 24.1139 77.2445 24.0516 76.491L20.79 29.97C20.7589 29.6113 20.8036 29.2501 20.921 28.9098C21.0384 28.5695 21.226 28.2576 21.4717 27.9944C21.7173 27.7312 22.0155 27.5226 22.3469 27.382C22.6783 27.2414 23.0356 27.1719 23.3955 27.1782Z" fill="#1A2980"/>
<path d="M23.3955 27.1782H24.9291C24.5698 27.1731 24.2135 27.2434 23.883 27.3845C23.5526 27.5256 23.2554 27.7344 23.0107 27.9975C22.7659 28.2606 22.579 28.572 22.4621 28.9118C22.3451 29.2515 22.3007 29.612 22.3317 29.97L25.5852 76.491C25.6469 77.2443 25.9869 77.9476 26.539 78.4637C27.0911 78.9799 27.8157 79.2719 28.5714 79.2828H27.0405C25.4988 79.2828 23.9436 78.0327 23.8356 76.491L20.5821 29.97C20.4741 28.4283 21.8538 27.1782 23.3955 27.1782Z" fill="#263238"/>
<path d="M27.4968 79.2855H46.2618C46.622 79.2921 46.9795 79.223 47.3113 79.0826C47.643 78.9421 47.9415 78.7335 48.1874 78.4703C48.4334 78.207 48.6212 77.895 48.7388 77.5545C48.8564 77.214 48.9011 76.8526 48.87 76.4937L45.6057 29.97C45.5446 29.2158 45.2045 28.5114 44.6517 27.9947C44.099 27.4779 43.3734 27.1858 42.6168 27.1755H23.8545C23.495 27.1703 23.1384 27.2407 22.8077 27.382C22.4771 27.5232 22.1797 27.7323 21.935 27.9957C21.6902 28.2591 21.5033 28.5709 21.3866 28.9109C21.2698 29.251 21.2257 29.6118 21.2571 29.97L24.4971 76.491C24.559 77.2468 24.9008 77.9523 25.4557 78.4692C26.0106 78.9862 26.7385 79.2773 27.4968 79.2855Z" fill="#1A2980"/>
<g opacity="0.6">
<path opacity="0.6" d="M42.5682 28.08C43.0939 28.0883 43.5977 28.292 43.9815 28.6513C44.3653 29.0107 44.6017 29.5 44.6445 30.024L47.898 76.545C47.9201 76.7824 47.8918 77.0218 47.815 77.2475C47.7381 77.4732 47.6145 77.6802 47.4521 77.8548C47.2897 78.0294 47.0923 78.1677 46.8728 78.2607C46.6532 78.3537 46.4165 78.3993 46.1781 78.3945H27.4158C26.8898 78.3863 26.3857 78.1827 26.0014 77.8234C25.6172 77.4641 25.3803 76.9748 25.3368 76.4505L22.0968 29.9295C22.0748 29.6932 22.1028 29.455 22.1788 29.2302C22.2549 29.0055 22.3773 28.7992 22.5382 28.6248C22.6991 28.4504 22.8949 28.3118 23.1128 28.2179C23.3307 28.1241 23.566 28.0771 23.8032 28.08H42.5682Z" fill="white"/>
</g>
<g opacity="0.3">
<path opacity="0.3" d="M37.26 78.3891H29.7837L35.9559 28.08H41.9796C42.2397 28.079 42.4972 28.1318 42.736 28.2349C42.9748 28.338 43.1898 28.4894 43.3674 28.6794L37.26 78.3891Z" fill="white"/>
<path opacity="0.3" d="M28.4418 78.3891H26.757L32.9292 28.0746H34.614L28.4418 78.3891Z" fill="white"/>
</g>
<path d="M41.4504 50.193H27.8586C27.8228 50.193 27.7885 50.1788 27.7631 50.1535C27.7378 50.1281 27.7236 50.0938 27.7236 50.058C27.7236 50.0222 27.7378 49.9879 27.7631 49.9625C27.7885 49.9372 27.8228 49.923 27.8586 49.923H41.4504C41.486 49.9237 41.5199 49.9381 41.5451 49.9633C41.5703 49.9885 41.5847 50.0224 41.5854 50.058C41.5854 50.0938 41.5712 50.1281 41.5459 50.1535C41.5205 50.1788 41.4862 50.193 41.4504 50.193Z" fill="white"/>
<path d="M40.257 52.2045H29.6109C29.5751 52.2045 29.5407 52.1903 29.5154 52.165C29.4901 52.1396 29.4759 52.1053 29.4759 52.0695C29.4759 52.0337 29.4901 51.9994 29.5154 51.974C29.5407 51.9487 29.5751 51.9345 29.6109 51.9345H40.257C40.2928 51.9345 40.3271 51.9487 40.3524 51.974C40.3778 51.9994 40.392 52.0337 40.392 52.0695C40.392 52.1053 40.3778 52.1396 40.3524 52.165C40.3271 52.1903 40.2928 52.2045 40.257 52.2045Z" fill="white"/>
<path d="M28.2636 40.7916L28.2825 41.3316H27.9342L27.9153 40.7916L27.297 39.8223H27.6669L28.0935 40.4919L28.4715 39.8223H28.8144L28.2636 40.7916Z" fill="#1A2980"/>
<path d="M28.8279 40.5702C28.8233 40.4641 28.8414 40.3582 28.8809 40.2596C28.9204 40.161 28.9805 40.0719 29.0572 39.9983C29.1338 39.9248 29.2252 39.8684 29.3254 39.8329C29.4255 39.7974 29.532 39.7837 29.6379 39.7926C29.745 39.7872 29.852 39.803 29.9529 39.8393C30.0538 39.8755 30.1465 39.9314 30.2256 40.0037C30.3047 40.0761 30.3687 40.1634 30.4138 40.2606C30.4589 40.3579 30.4843 40.4631 30.4884 40.5702C30.4934 40.6766 30.4756 40.7828 30.4363 40.8817C30.3969 40.9806 30.3369 41.07 30.2602 41.1439C30.1835 41.2178 30.092 41.2744 29.9916 41.31C29.8913 41.3457 29.7845 41.3595 29.6784 41.3505C29.5711 41.3559 29.4639 41.34 29.3628 41.3036C29.2618 41.2672 29.169 41.211 29.0898 41.1384C29.0107 41.0658 28.9467 40.9782 28.9018 40.8806C28.8568 40.7831 28.8317 40.6775 28.8279 40.5702ZM30.1239 40.5702C30.1243 40.5063 30.1118 40.443 30.0873 40.384C30.0628 40.3249 30.0267 40.2714 29.9811 40.2266C29.9355 40.1818 29.8815 40.1466 29.822 40.1231C29.7626 40.0995 29.6991 40.0882 29.6352 40.0896C29.5726 40.087 29.5102 40.0978 29.4521 40.1214C29.3941 40.145 29.3417 40.1808 29.2987 40.2264C29.2557 40.272 29.223 40.3262 29.2028 40.3856C29.1826 40.4449 29.1754 40.5078 29.1816 40.5702C29.1809 40.6343 29.193 40.698 29.2174 40.7573C29.2418 40.8166 29.2778 40.8704 29.3234 40.9155C29.369 40.9606 29.4232 40.9961 29.4828 41.0198C29.5424 41.0435 29.6062 41.055 29.6703 41.0535C29.7329 41.0553 29.7952 41.0438 29.8531 41.0197C29.9109 40.9957 29.963 40.9596 30.0058 40.9139C30.0487 40.8682 30.0814 40.814 30.1018 40.7547C30.1221 40.6955 30.1297 40.6326 30.1239 40.5702Z" fill="#1A2980"/>
<path d="M30.7287 40.662L30.7017 39.8169H31.05L31.077 40.6485C31.077 40.9347 31.2174 41.0535 31.428 41.0535C31.6386 41.0535 31.7574 40.9347 31.7493 40.6485L31.7196 39.8169H32.0625L32.0922 40.662C32.1064 40.7528 32.0995 40.8457 32.0721 40.9335C32.0446 41.0212 31.9973 41.1015 31.9339 41.168C31.8705 41.2346 31.7926 41.2856 31.7063 41.3173C31.62 41.3489 31.5275 41.3603 31.4361 41.3505C31.3427 41.3588 31.2487 41.3469 31.1603 41.3155C31.072 41.2842 30.9915 41.2341 30.9243 41.1687C30.8571 41.1033 30.8049 41.0242 30.7711 40.9367C30.7374 40.8493 30.7229 40.7556 30.7287 40.662Z" fill="#1A2980"/>
<path d="M33.4206 41.3262L33.1155 40.905H32.7942L32.8104 41.3262H32.4621L32.4081 39.8169H33.0615C33.4638 39.8169 33.723 40.0275 33.7338 40.3569C33.7426 40.4572 33.7186 40.5577 33.6656 40.6434C33.6126 40.729 33.5332 40.7952 33.4395 40.8321L33.7959 41.3181L33.4206 41.3262ZM33.0507 40.1031H32.7807L32.7996 40.6269H33.0696C33.2829 40.6269 33.3855 40.5297 33.3801 40.3569C33.3747 40.1841 33.264 40.1031 33.0507 40.1031Z" fill="#1A2980"/>
<path d="M34.533 40.5702C34.5274 40.4657 34.5441 40.3612 34.5819 40.2636C34.6197 40.166 34.6777 40.0775 34.7523 40.004C34.8268 39.9305 34.916 39.8737 35.0141 39.8372C35.1123 39.8008 35.217 39.7856 35.3214 39.7926C35.4396 39.7889 35.5572 39.8112 35.6659 39.8579C35.7746 39.9045 35.8717 39.9744 35.9505 40.0626L35.7345 40.2678C35.6867 40.2123 35.6274 40.1678 35.5608 40.1375C35.4941 40.1072 35.4216 40.0918 35.3484 40.0923C35.2851 40.089 35.2219 40.0992 35.163 40.1225C35.104 40.1457 35.0507 40.1812 35.0067 40.2268C34.9627 40.2723 34.929 40.3268 34.9078 40.3865C34.8866 40.4462 34.8785 40.5098 34.884 40.5729C34.8836 40.6379 34.8963 40.7022 34.9215 40.7621C34.9467 40.822 34.9837 40.8762 35.0304 40.9214C35.0771 40.9665 35.1325 41.0018 35.1931 41.0249C35.2538 41.0481 35.3186 41.0588 35.3835 41.0562C35.4552 41.0577 35.5263 41.0423 35.591 41.0114C35.6557 40.9804 35.7122 40.9347 35.7561 40.878L35.9856 41.0832C35.9121 41.1729 35.8187 41.244 35.7127 41.2909C35.6067 41.3378 35.4912 41.3591 35.3754 41.3532C35.2686 41.3575 35.1619 41.3407 35.0617 41.3036C34.9614 41.2665 34.8694 41.2099 34.7911 41.1372C34.7128 41.0644 34.6497 40.9768 34.6054 40.8795C34.5611 40.7822 34.5365 40.6771 34.533 40.5702Z" fill="#1A2980"/>
<path d="M36.0774 40.5702C36.073 40.4653 36.0908 40.3606 36.1295 40.263C36.1682 40.1654 36.2271 40.0771 36.3022 40.0037C36.3773 39.9304 36.4671 39.8737 36.5656 39.8373C36.6641 39.8009 36.7691 39.7857 36.8739 39.7926C36.981 39.7872 37.088 39.803 37.1889 39.8393C37.2898 39.8755 37.3825 39.9314 37.4616 40.0038C37.5407 40.0761 37.6047 40.1634 37.6498 40.2606C37.6949 40.3579 37.7203 40.4631 37.7244 40.5702C37.7292 40.6753 37.7117 40.7803 37.6732 40.8782C37.6346 40.9761 37.5758 41.0648 37.5007 41.1385C37.4255 41.2121 37.3356 41.2691 37.2369 41.3056C37.1382 41.3422 37.0329 41.3574 36.9279 41.3505C36.8206 41.3559 36.7134 41.34 36.6123 41.3036C36.5113 41.2672 36.4185 41.211 36.3393 41.1384C36.2602 41.0658 36.1962 40.9782 36.1513 40.8806C36.1063 40.7831 36.0812 40.6775 36.0774 40.5702ZM37.3707 40.5702C37.3714 40.5064 37.3593 40.4432 37.3351 40.3842C37.3109 40.3252 37.275 40.2716 37.2297 40.2268C37.1843 40.1819 37.1304 40.1467 37.0711 40.1231C37.0119 40.0995 36.9485 40.0881 36.8847 40.0896C36.8221 40.087 36.7597 40.0978 36.7016 40.1214C36.6435 40.145 36.5913 40.1808 36.5482 40.2264C36.5052 40.272 36.4725 40.3262 36.4523 40.3856C36.4321 40.4449 36.4249 40.5078 36.4311 40.5702C36.43 40.6342 36.4418 40.6978 36.4659 40.7571C36.49 40.8164 36.5258 40.8702 36.5712 40.9154C36.6165 40.9605 36.6706 40.996 36.73 41.0198C36.7895 41.0435 36.8531 41.055 36.9171 41.0535C36.9798 41.0557 37.0423 41.0445 37.1004 41.0206C37.1584 40.9967 37.2107 40.9606 37.2537 40.9149C37.2966 40.8691 37.3293 40.8146 37.3495 40.7552C37.3697 40.6958 37.3769 40.6327 37.3707 40.5702Z" fill="#1A2980"/>
<path d="M37.962 39.8169H38.6451C38.7515 39.8065 38.8589 39.8181 38.9607 39.8509C39.0624 39.8837 39.1563 39.9371 39.2366 40.0078C39.3168 40.0784 39.3817 40.1648 39.4272 40.2615C39.4727 40.3583 39.4978 40.4633 39.501 40.5702C39.507 40.6758 39.4897 40.7813 39.4503 40.8795C39.4109 40.9776 39.3504 41.0659 39.2731 41.138C39.1959 41.2101 39.1036 41.2644 39.003 41.2969C38.9024 41.3294 38.7959 41.3394 38.691 41.3262H38.0052L37.962 39.8169ZM38.6721 41.04C38.7358 41.0466 38.8001 41.0391 38.8606 41.0179C38.921 40.9967 38.976 40.9625 39.0217 40.9176C39.0673 40.8727 39.1025 40.8183 39.1247 40.7583C39.1469 40.6982 39.1555 40.634 39.15 40.5702C39.1499 40.5052 39.1362 40.4409 39.11 40.3814C39.0837 40.3219 39.0454 40.2685 38.9974 40.2246C38.9494 40.1807 38.8929 40.1472 38.8313 40.1263C38.7697 40.1054 38.7045 40.0975 38.6397 40.1031H38.3211L38.3535 41.04H38.6721Z" fill="#1A2980"/>
<path d="M40.9482 41.04V41.31H39.7818L39.7278 39.8007H40.8672V40.0707H40.095V40.3974H40.7943V40.6674H40.095V41.0157L40.9482 41.04Z" fill="#1A2980"/>
<path d="M30.8826 46.9287V47.5335H28.0503V47.0556L29.5569 45.6003C29.9241 45.2412 29.9862 45.0171 29.9835 44.7903C29.9835 44.4393 29.7297 44.2341 29.2572 44.2341C29.0866 44.2255 28.9164 44.2575 28.7606 44.3274C28.6048 44.3973 28.4678 44.5032 28.3608 44.6364L27.8532 44.2503C28.0277 44.0368 28.2504 43.8678 28.5029 43.757C28.7554 43.6463 29.0306 43.5969 29.3058 43.6131C30.1428 43.6131 30.6909 44.037 30.7017 44.7201C30.7017 45.0927 30.6099 45.4356 30.0861 45.9378L29.0736 46.9179L30.8826 46.9287Z" fill="#263238"/>
<path d="M34.02 46.3779C34.02 47.0259 33.5502 47.5875 32.5161 47.5875C31.9952 47.5968 31.4848 47.4408 31.0581 47.142L31.3578 46.5858C31.6831 46.8369 32.0836 46.971 32.4945 46.9665C33.0048 46.9665 33.3045 46.7397 33.3045 46.3833C33.3045 46.0269 33.0345 45.8082 32.4567 45.8082H32.1057V45.3195L32.94 44.28H31.1877V43.6806H33.8175V44.1612L32.8995 45.2736C33.6366 45.36 34.02 45.7974 34.02 46.3779Z" fill="#263238"/>
<path d="M37.6218 46.44C37.6218 47.1555 37.0197 47.601 36.0612 47.601C35.1027 47.601 34.4817 47.1555 34.4709 46.44C34.4628 46.2433 34.5162 46.0489 34.6236 45.8839C34.731 45.7189 34.8871 45.5915 35.0703 45.5193C34.9208 45.4435 34.7954 45.3276 34.7081 45.1845C34.6208 45.0415 34.5752 44.8769 34.5762 44.7093C34.5762 44.0478 35.1378 43.6293 35.991 43.6293C36.8442 43.6293 37.4409 44.0424 37.4517 44.7093C37.4601 44.8759 37.4195 45.0414 37.3351 45.1853C37.2507 45.3292 37.126 45.4453 36.9765 45.5193C37.1642 45.59 37.3263 45.7157 37.4414 45.8799C37.5566 46.0442 37.6194 46.2394 37.6218 46.44ZM36.8982 46.4184C36.8982 46.0377 36.558 45.8001 36.0288 45.8001C35.4996 45.8001 35.1837 46.0377 35.1918 46.4184C35.1999 46.7991 35.5212 47.0394 36.0504 47.0394C36.5796 47.0394 36.9063 46.7964 36.8982 46.4049V46.4184ZM35.2782 44.7444C35.2782 45.0738 35.5482 45.2844 36.0153 45.2844C36.4824 45.2844 36.7497 45.0738 36.7416 44.7444C36.7335 44.415 36.4365 44.2044 35.9937 44.2044C35.5509 44.2044 35.2782 44.3826 35.2836 44.7309L35.2782 44.7444Z" fill="#263238"/>
<path d="M41.2128 46.44C41.2128 47.1555 40.6107 47.601 39.6522 47.601C38.6937 47.601 38.07 47.142 38.07 46.44C38.0623 46.2434 38.1158 46.0492 38.2232 45.8843C38.3306 45.7193 38.4865 45.5918 38.6694 45.5193C38.5198 45.4439 38.3944 45.328 38.3075 45.1848C38.2207 45.0416 38.1758 44.8768 38.178 44.7093C38.1645 44.0478 38.7369 43.6293 39.5901 43.6293C40.4433 43.6293 41.04 44.0424 41.0508 44.7093C41.0592 44.8759 41.0186 45.0414 40.9342 45.1853C40.8498 45.3292 40.7251 45.4453 40.5756 45.5193C40.7618 45.5913 40.9222 45.7175 41.0358 45.8817C41.1494 46.0458 41.2111 46.2404 41.2128 46.44ZM40.4892 46.4184C40.4892 46.0377 40.149 45.8001 39.6198 45.8001C39.0906 45.8001 38.7747 46.0377 38.7828 46.4184C38.7909 46.7991 39.1122 47.0394 39.6414 47.0394C40.1706 47.0394 40.5 46.7964 40.5 46.4049L40.4892 46.4184ZM38.8692 44.7444C38.8692 45.0738 39.1527 45.2844 39.6063 45.2844C40.0599 45.2844 40.3407 45.0738 40.3353 44.7444C40.3299 44.415 40.0275 44.2044 39.5874 44.2044C39.1473 44.2044 38.88 44.3826 38.88 44.7309L38.8692 44.7444Z" fill="#263238"/>
<path d="M21.1923 40.5837C21.1579 40.5838 21.1247 40.5707 21.0996 40.5471C21.0745 40.5235 21.0594 40.4912 21.0573 40.4568L20.5794 33.9309C20.5772 33.8955 20.5889 33.8607 20.6122 33.8339C20.6354 33.8071 20.6683 33.7906 20.7036 33.7878C20.7393 33.7855 20.7744 33.7972 20.8016 33.8204C20.8288 33.8436 20.846 33.8764 20.8494 33.912L21.33 40.4379C21.3315 40.4556 21.3294 40.4735 21.324 40.4904C21.3185 40.5074 21.3098 40.5231 21.2982 40.5366C21.2867 40.5502 21.2726 40.5613 21.2567 40.5694C21.2409 40.5775 21.2236 40.5823 21.2058 40.5837H21.1923Z" fill="#1A2980"/>
<path d="M20.6226 32.805C20.5886 32.8051 20.5558 32.7924 20.5308 32.7693C20.5057 32.7463 20.4903 32.7147 20.4876 32.6808L20.3607 30.9582C20.3595 30.9405 20.3617 30.9227 20.3674 30.9058C20.373 30.889 20.3819 30.8734 20.3936 30.86C20.4171 30.8329 20.4505 30.8163 20.4863 30.8137C20.5221 30.8112 20.5574 30.8231 20.5845 30.8466C20.6116 30.8701 20.6282 30.9035 20.6307 30.9393L20.7576 32.6619C20.7598 32.6973 20.7481 32.7321 20.7248 32.7589C20.7016 32.7857 20.6688 32.8022 20.6334 32.805H20.6226Z" fill="#1A2980"/>
<path d="M33.3099 24.5943C33.2741 24.5943 33.2398 24.5801 33.2145 24.5548C33.1891 24.5294 33.1749 24.4951 33.1749 24.4593V20.4876C33.1749 20.4518 33.1891 20.4175 33.2145 20.3921C33.2398 20.3668 33.2741 20.3526 33.3099 20.3526C33.3457 20.3526 33.3801 20.3668 33.4054 20.3921C33.4307 20.4175 33.4449 20.4518 33.4449 20.4876V24.4593C33.4449 24.4951 33.4307 24.5294 33.4054 24.5548C33.3801 24.5801 33.3457 24.5943 33.3099 24.5943Z" fill="#1A2980"/>
<path d="M30.1644 25.4367C30.1408 25.4366 30.1177 25.4303 30.0974 25.4184C30.077 25.4066 30.0601 25.3896 30.0483 25.3692L28.0611 21.9294C28.0432 21.8982 28.0384 21.8613 28.0478 21.8266C28.0571 21.7919 28.0799 21.7624 28.1111 21.7444C28.1422 21.7265 28.1792 21.7218 28.2139 21.7311C28.2486 21.7405 28.2781 21.7632 28.296 21.7944L30.2805 25.2342C30.2896 25.2494 30.2956 25.2662 30.2981 25.2838C30.3006 25.3013 30.2996 25.3192 30.2951 25.3363C30.2905 25.3534 30.2826 25.3694 30.2717 25.3834C30.2609 25.3974 30.2474 25.4091 30.2319 25.4178C30.2112 25.4294 30.1881 25.4359 30.1644 25.4367Z" fill="#1A2980"/>
<path d="M36.45 25.4367C36.4265 25.4368 36.4034 25.4312 36.3825 25.4205C36.3517 25.4019 36.3293 25.3721 36.3202 25.3372C36.3111 25.3024 36.3161 25.2654 36.3339 25.2342L38.3184 21.7944C38.3363 21.7632 38.3658 21.7405 38.4005 21.7311C38.4352 21.7218 38.4722 21.7265 38.5033 21.7444C38.5345 21.7624 38.5573 21.7919 38.5666 21.8266C38.576 21.8613 38.5712 21.8982 38.5533 21.9294L36.5715 25.38C36.5579 25.3992 36.5396 25.4145 36.5183 25.4245C36.497 25.4344 36.4734 25.4386 36.45 25.4367Z" fill="#1A2980"/>
<path d="M82.9791 111.745C82.6959 106.094 83.2491 100.432 84.6207 94.9428L84.8907 95.0076C83.5261 100.471 82.9748 106.107 83.2545 111.731L82.9791 111.745Z" fill="#1A2980"/>
<path d="M83.4894 94.743C83.4894 95.2452 83.9538 97.0299 84.4587 97.0164C84.9636 97.0029 85.3281 95.202 85.3146 94.6971C85.3116 94.5773 85.285 94.4592 85.2363 94.3496C85.1877 94.24 85.1179 94.1411 85.0311 94.0585C84.9442 93.9759 84.8419 93.9112 84.73 93.8681C84.6182 93.8251 84.4989 93.8044 84.379 93.8074C84.2592 93.8105 84.1411 93.8371 84.0316 93.8857C83.922 93.9343 83.8231 94.0041 83.7405 94.091C83.6578 94.1778 83.5932 94.2801 83.5501 94.392C83.507 94.5039 83.4864 94.6232 83.4894 94.743Z" fill="#1A2980"/>
<path d="M85.4523 100.41C85.4523 99.9054 84.9879 98.1234 84.4857 98.1342C83.9835 98.145 83.6163 99.9486 83.6271 100.453C83.63 100.573 83.6564 100.691 83.7049 100.801C83.7533 100.911 83.8229 101.01 83.9097 101.092C83.9964 101.175 84.0986 101.24 84.2104 101.283C84.3223 101.327 84.4415 101.347 84.5613 101.345C84.6812 101.342 84.7993 101.315 84.9089 101.267C85.0186 101.218 85.1176 101.149 85.2003 101.062C85.283 100.975 85.3479 100.873 85.3911 100.761C85.4344 100.649 85.4552 100.53 85.4523 100.41Z" fill="#1A2980"/>
<path d="M81.6372 98.55C82.1421 98.55 83.9241 98.0856 83.9106 97.5807C83.8971 97.0758 82.0989 96.7113 81.594 96.7248C81.4742 96.7276 81.3561 96.7541 81.2464 96.8025C81.1368 96.851 81.0378 96.9206 80.955 97.0074C80.8723 97.0941 80.8075 97.1963 80.7642 97.3081C80.721 97.4199 80.7002 97.5392 80.703 97.659C80.7059 97.7788 80.7323 97.8969 80.7807 98.0066C80.8292 98.1162 80.8988 98.2152 80.9856 98.298C81.0723 98.3807 81.1745 98.4455 81.2863 98.4888C81.3981 98.532 81.5174 98.5528 81.6372 98.55Z" fill="#1A2980"/>
<path d="M87.3045 96.5952C86.8023 96.5952 85.0176 97.0596 85.0311 97.5618C85.0446 98.064 86.8455 98.4312 87.3504 98.4204C87.4703 98.4174 87.5883 98.3908 87.6979 98.3422C87.8075 98.2935 87.9064 98.2238 87.989 98.1369C88.0716 98.05 88.1363 97.9477 88.1794 97.8358C88.2225 97.724 88.2431 97.6047 88.2401 97.4849C88.2371 97.365 88.2105 97.2469 88.1618 97.1374C88.1132 97.0278 88.0434 96.9289 87.9565 96.8463C87.8697 96.7637 87.7674 96.699 87.6555 96.6559C87.5436 96.6128 87.4244 96.5922 87.3045 96.5952Z" fill="#1A2980"/>
<path d="M81.7722 96.2658C82.1394 96.6141 83.7189 97.5564 84.0672 97.1892C84.4155 96.822 83.3976 95.2992 83.0331 94.9455C82.858 94.7783 82.6237 94.6875 82.3816 94.6931C82.1396 94.6986 81.9097 94.8001 81.7425 94.9752C81.5753 95.1503 81.4845 95.3846 81.49 95.6267C81.4956 95.8687 81.5971 96.0986 81.7722 96.2658Z" fill="#1A2980"/>
<path d="M87.1695 98.8848C86.805 98.5365 85.2255 97.5969 84.8772 97.9614C84.5289 98.3259 85.5441 99.8514 85.9086 100.208C85.9954 100.291 86.0978 100.355 86.2097 100.399C86.3217 100.442 86.441 100.463 86.561 100.46C86.681 100.457 86.7992 100.43 86.9089 100.382C87.0187 100.333 87.1177 100.264 87.2005 100.177C87.2833 100.09 87.3482 99.9876 87.3914 99.8756C87.4347 99.7637 87.4555 99.6443 87.4526 99.5243C87.4497 99.4044 87.4232 99.2861 87.3746 99.1764C87.3261 99.0667 87.2564 98.9676 87.1695 98.8848Z" fill="#1A2980"/>
<path d="M83.16 100.275C83.5083 99.9081 84.4479 98.3286 84.0834 97.9803C83.7189 97.632 82.1934 98.6499 81.837 99.0144C81.6698 99.1898 81.5792 99.4245 81.585 99.6668C81.5908 99.9091 81.6926 100.139 81.8681 100.306C82.0435 100.474 82.2782 100.564 82.5205 100.558C82.7628 100.553 82.9928 100.451 83.16 100.275Z" fill="#1A2980"/>
<path d="M85.7817 94.878C85.4334 95.2425 84.4911 96.822 84.8583 97.1703C85.2255 97.5186 86.7483 96.5034 87.102 96.1389C87.1848 96.0522 87.2497 95.9501 87.293 95.8383C87.3363 95.7265 87.3572 95.6073 87.3544 95.4875C87.3517 95.3676 87.3253 95.2495 87.2769 95.1398C87.2285 95.0302 87.159 94.9311 87.0723 94.8483C86.9856 94.7655 86.8835 94.7006 86.7717 94.6573C86.6599 94.614 86.5407 94.5931 86.4208 94.5959C86.301 94.5986 86.1829 94.625 86.0732 94.6734C85.9635 94.7218 85.8645 94.7913 85.7817 94.878Z" fill="#1A2980"/>
<path d="M83.3895 97.6023C83.3949 97.8157 83.4634 98.0227 83.5864 98.1972C83.7093 98.3717 83.8813 98.5058 84.0804 98.5827C84.2796 98.6595 84.497 98.6756 84.7053 98.6289C84.9136 98.5822 85.1034 98.4749 85.2507 98.3204C85.3981 98.1659 85.4963 97.9712 85.533 97.761C85.5698 97.5507 85.5434 97.3342 85.4572 97.139C85.371 96.9437 85.2289 96.7783 85.0488 96.6637C84.8686 96.5492 84.6586 96.4906 84.4452 96.4953C84.3031 96.4985 84.1631 96.5296 84.0331 96.587C83.9031 96.6444 83.7857 96.7268 83.6876 96.8297C83.5895 96.9325 83.5127 97.0537 83.4616 97.1863C83.4104 97.3189 83.3859 97.4602 83.3895 97.6023Z" fill="white"/>
<path d="M83.2356 105.637C83.2356 105.637 83.4219 102.881 84.9366 102.446C86.4513 102.011 87.0048 101.417 87.0048 101.417C87.0048 101.417 86.8509 105.691 83.2356 105.637Z" fill="#1A2980"/>
<path opacity="0.5" d="M83.2356 105.637C83.2356 105.637 83.4219 102.881 84.9366 102.446C86.4513 102.011 87.0048 101.417 87.0048 101.417C87.0048 101.417 86.8509 105.691 83.2356 105.637Z" fill="white"/>
<path d="M83.0358 107.749C83.0358 107.749 82.8495 104.992 81.3348 104.555C79.8201 104.117 79.2666 103.529 79.2666 103.529C79.2666 103.529 79.4205 107.803 83.0358 107.749Z" fill="#1A2980"/>
<path opacity="0.5" d="M83.0358 107.749C83.0358 107.749 82.8495 104.992 81.3348 104.555C79.8201 104.117 79.2666 103.529 79.2666 103.529C79.2666 103.529 79.4205 107.803 83.0358 107.749Z" fill="white"/>
<path d="M88.749 113.492C88.749 115.652 86.1867 117.385 83.0277 117.385C79.8687 117.385 77.3064 115.644 77.3064 113.492C77.3064 112.412 77.9625 111.418 79.0236 110.713C79.6922 110.277 80.4354 109.968 81.216 109.801H84.8394C85.6401 109.973 86.4013 110.295 87.0831 110.749C88.1145 111.453 88.749 112.42 88.749 113.492Z" fill="#1A2980"/>
<path opacity="0.8" d="M84.8394 109.801C85.6401 109.973 86.4013 110.295 87.0831 110.749C88.1145 111.453 88.749 112.42 88.749 113.492C88.749 115.652 86.1867 117.385 83.0277 117.385C79.8687 117.385 77.3064 115.644 77.3064 113.492C77.3064 112.412 77.9625 111.418 79.0236 110.713C79.6922 110.277 80.4354 109.968 81.216 109.801H84.8394Z" fill="white"/>
<path d="M83.1789 110.152H82.9089V112.077H83.1789V110.152Z" fill="#1A2980"/>
<path d="M87.3342 109.742L87.0318 110.686L87.0264 110.697H79.0263L79.0101 110.646L78.7212 109.742H87.3342Z" fill="#1A2980"/>
<path d="M88.074 114.275C87.5007 115.069 86.7476 115.717 85.8762 116.165C84.5019 116.894 78.7212 117.08 78.0597 113.802C78.0597 113.756 78.0354 113.71 78.0273 113.665C77.9983 113.462 78.016 113.255 78.0789 113.06C78.1419 112.864 78.2484 112.686 78.3905 112.538C78.5326 112.391 78.7065 112.277 78.899 112.206C79.0915 112.136 79.2975 112.11 79.5015 112.131C80.0495 112.168 80.5999 112.137 81.1404 112.039C83.2159 111.725 85.3337 111.838 87.3639 112.371C87.5562 112.422 87.7336 112.519 87.881 112.652C88.0284 112.786 88.1416 112.953 88.2112 113.139C88.2807 113.326 88.3046 113.526 88.2807 113.724C88.2568 113.921 88.1859 114.11 88.074 114.275Z" fill="#263238"/>
<path d="M46.5777 113.184C46.6282 113.164 46.673 113.132 46.7079 113.091C46.7428 113.049 46.7668 113 46.7775 112.946C46.7878 112.914 46.7892 112.88 46.7816 112.847C46.774 112.814 46.7577 112.784 46.7343 112.76C46.5264 112.544 45.6813 112.698 45.5868 112.717C45.5758 112.718 45.5654 112.722 45.5571 112.73C45.5489 112.737 45.5432 112.747 45.5409 112.757C45.5388 112.768 45.5397 112.779 45.5435 112.789C45.5473 112.799 45.5539 112.808 45.5625 112.814C45.731 112.937 45.912 113.042 46.1025 113.127C46.2494 113.201 46.4176 113.221 46.5777 113.184ZM46.6533 112.836C46.6633 112.847 46.67 112.861 46.6729 112.875C46.6757 112.89 46.6746 112.905 46.6695 112.919C46.6633 112.955 46.6481 112.988 46.6254 113.016C46.6028 113.044 46.5733 113.065 46.5399 113.079C46.386 113.135 46.0917 113.03 45.7299 112.809C46.0809 112.749 46.5426 112.72 46.6533 112.836Z" fill="#1A2980"/>
<path d="M45.603 112.825C45.873 112.792 46.4562 112.487 46.5075 112.223C46.5165 112.18 46.5101 112.135 46.4893 112.096C46.4686 112.057 46.4349 112.026 46.3941 112.01C46.3561 111.988 46.314 111.976 46.2706 111.973C46.2273 111.969 46.1838 111.976 46.143 111.991C45.819 112.101 45.5544 112.722 45.5436 112.749C45.5397 112.758 45.5377 112.767 45.5377 112.776C45.5377 112.786 45.5397 112.795 45.5436 112.803C45.5499 112.812 45.5583 112.818 45.5679 112.822L45.603 112.825ZM46.3374 112.107C46.4022 112.142 46.4049 112.177 46.3995 112.201C46.3671 112.363 45.9702 112.614 45.6921 112.693C45.792 112.49 45.9864 112.153 46.1808 112.093C46.2241 112.075 46.2726 112.075 46.3158 112.093L46.3374 112.107Z" fill="#1A2980"/>
<path d="M43.0407 111.737L45.2385 112.625L47.1582 107.546L44.9577 106.658L43.0407 111.737Z" fill="#FFB573"/>
<path d="M45.5166 112.444L43.0488 111.448C43.0068 111.43 42.9595 111.427 42.9158 111.441C42.872 111.455 42.8349 111.484 42.8112 111.523L41.7312 113.333C41.7057 113.379 41.6904 113.43 41.6864 113.483C41.6823 113.536 41.6896 113.589 41.7078 113.639C41.7259 113.689 41.7545 113.734 41.7916 113.772C41.8287 113.81 41.8735 113.84 41.9229 113.859C42.7923 114.194 43.227 114.31 44.3124 114.75C44.982 115.02 45.9324 115.482 46.8504 115.857C47.7684 116.232 48.2004 115.352 47.8467 115.115C46.278 114.053 46.2267 113.441 45.8352 112.728C45.7654 112.599 45.6527 112.499 45.5166 112.444Z" fill="#263238"/>
<path d="M47.1285 110.038L43.3107 108.494L43.6617 107.096L47.7576 108.594L47.1285 110.038Z" fill="#1A2980"/>
<path d="M50.9517 51.2541C50.1768 53.4978 47.8845 58.779 46.116 56.5785C45.7977 56.1898 45.5375 55.7569 45.3438 55.2933C44.5959 53.4438 44.4096 50.4468 44.3151 49.7907L43.713 47.736C43.7024 47.701 43.6969 47.6646 43.6968 47.628V46.4535C43.6968 45.9783 44.0802 45.6948 44.5986 45.738C44.5986 45.738 45.4356 45.6408 45.4356 46.1403L45.5976 47.9034C45.6813 48.5163 45.4383 49.3695 45.5814 49.9311C46.1214 52.0452 46.8639 52.1424 47.331 54.324C47.9817 52.7499 49.1454 50.0256 49.1454 50.0256C49.9176 50.1228 51.2055 50.517 50.9517 51.2541Z" fill="#FFB573"/>
<path d="M48.1815 57.3831C48.06 57.5725 47.8944 57.7297 47.6988 57.841C47.5032 57.9523 47.2835 58.0145 47.0586 58.0222C46.8337 58.0299 46.6103 57.9829 46.4075 57.8852C46.2048 57.7875 46.0288 57.6421 45.8946 57.4614C45.5745 57.0361 45.3231 56.5633 45.1494 56.0601C44.4474 53.757 44.0127 52.3314 43.9533 49.9257C44.2021 49.6743 44.5164 49.4978 44.8606 49.4161C45.2047 49.3345 45.5648 49.3511 45.9 49.464L47.0502 53.3601C47.0502 53.3601 49.3911 47.5416 50.3388 47.3337C51.4539 47.088 51.9183 48.0843 52.3908 49.3101C52.731 50.1903 49.707 55.0314 48.1815 57.3831Z" fill="#1A2980"/>
<path d="M57.6396 41.5098C57.3696 42.8598 56.781 45.8082 57.726 46.71C57.726 46.71 57.3561 48.0789 54.8478 48.0789C52.0857 48.0789 53.5275 46.71 53.5275 46.71C55.0341 46.3509 54.9936 45.2331 54.7317 44.1828L57.6396 41.5098Z" fill="#FFB573"/>
<path d="M53.4195 38.34C53.4356 38.3425 53.452 38.3425 53.4681 38.34C53.493 38.3263 53.5117 38.3034 53.5203 38.2763C53.5288 38.2491 53.5266 38.2197 53.514 38.1942C53.4419 38.0391 53.3332 37.9038 53.1973 37.7998C53.0614 37.6959 52.9023 37.6265 52.7337 37.5975C52.7197 37.5956 52.7054 37.5966 52.6917 37.6004C52.6781 37.6041 52.6653 37.6106 52.6542 37.6195C52.6431 37.6283 52.6339 37.6393 52.6272 37.6517C52.6204 37.6642 52.6162 37.6779 52.6149 37.692C52.613 37.7061 52.614 37.7203 52.6178 37.734C52.6216 37.7477 52.6281 37.7604 52.6369 37.7715C52.6457 37.7826 52.6567 37.7918 52.6691 37.7986C52.6816 37.8053 52.6953 37.8095 52.7094 37.8108C52.8423 37.8367 52.9672 37.8938 53.0737 37.9773C53.1802 38.0609 53.2655 38.1685 53.3223 38.2914C53.3328 38.3074 53.3473 38.3203 53.3644 38.3288C53.3814 38.3374 53.4005 38.3412 53.4195 38.34Z" fill="#263238"/>
<path d="M52.596 39.5064C52.3823 39.9012 52.1152 40.2646 51.8022 40.5864C51.887 40.6641 51.9876 40.7224 52.0972 40.7574C52.2067 40.7924 52.3226 40.8031 52.4367 40.7889L52.596 39.5064Z" fill="#ED893E"/>
<path d="M52.812 39.1122C52.8525 39.2904 52.7877 39.4578 52.6716 39.4821C52.5555 39.5064 52.4259 39.3822 52.3881 39.2121C52.3503 39.042 52.4124 38.8665 52.5312 38.8395C52.65 38.8125 52.7742 38.9313 52.812 39.1122Z" fill="#263238"/>
<path d="M52.5852 38.8314L52.1262 38.799C52.1262 38.799 52.4205 39.0879 52.5852 38.8314Z" fill="#263238"/>
<path opacity="0.2" d="M50.8545 50.1039C51.3324 49.6638 51.6645 49.7961 51.8751 50.1444C52.0938 51.1542 50.7951 53.271 50.2848 54.0729L50.8545 50.1039Z" fill="black"/>
<path d="M61.911 51.435C61.8489 52.5474 61.7436 53.9487 61.5735 55.7118C61.3953 57.5721 61.1415 59.832 60.7932 62.5779C57.1239 62.5779 53.2818 62.5212 51.4971 62.5212C51.6483 58.8735 51.7023 55.1772 50.0661 47.9196C50.0456 47.8296 50.0434 47.7364 50.0596 47.6456C50.0758 47.5547 50.1101 47.4681 50.1605 47.3908C50.2109 47.3134 50.2763 47.247 50.3528 47.1955C50.4294 47.1439 50.5155 47.1083 50.6061 47.0907C51.6727 46.8973 52.7503 46.7702 53.8326 46.71C55.2303 46.61 56.6334 46.61 58.0311 46.71C59.832 46.8747 61.8786 47.2932 61.8786 47.2932C61.8786 47.2932 62.1 47.9628 61.911 51.435Z" fill="#1A2980"/>
<path opacity="0.2" d="M61.911 51.435C61.8489 52.5474 61.7436 53.9487 61.5735 55.7118C60.5853 54.567 59.6511 50.625 59.9535 49.2777C60.6901 49.8225 61.3377 50.4783 61.8732 51.2217C61.8897 51.2921 61.9023 51.3633 61.911 51.435Z" fill="black"/>
<path d="M71.4393 56.376L73.3293 55.3176L73.6803 57.2427C73.6803 57.2427 72.0873 57.8556 71.2503 57.4263L71.4393 56.376Z" fill="#FFB573"/>
<path d="M74.5794 55.5363L74.7117 56.1654C74.7311 56.2619 74.7217 56.3619 74.6848 56.4531C74.6478 56.5443 74.5849 56.6227 74.5038 56.6784L73.6722 57.24L73.3212 55.3149L73.9719 55.1529C74.037 55.1366 74.1048 55.1337 74.1711 55.1443C74.2374 55.1549 74.3008 55.1789 74.3576 55.2147C74.4144 55.2506 74.4633 55.2975 74.5014 55.3528C74.5395 55.4081 74.566 55.4705 74.5794 55.5363Z" fill="#FFB573"/>
<path d="M60.102 49.5234C60.7041 50.7492 62.9127 55.3797 63.882 56.4489L64.0737 56.6487L64.1682 56.7486C64.2006 56.781 64.2276 56.8107 64.2789 56.8566C64.4531 57.0221 64.6451 57.1679 64.8513 57.2913C65.2195 57.504 65.6158 57.664 66.0285 57.7665C66.7521 57.9343 67.4949 58.0043 68.2371 57.9744C69.62 57.9191 70.9902 57.6868 72.3141 57.2832L72.09 56.16C71.4663 56.214 70.8129 56.2518 70.1811 56.2626C69.555 56.2811 68.9283 56.2612 68.3046 56.2032C67.7262 56.1617 67.1551 56.0502 66.6036 55.8711C66.3808 55.7962 66.1699 55.6898 65.9772 55.5552C65.9034 55.5034 65.8355 55.4436 65.7747 55.377C65.7534 55.3549 65.7335 55.3315 65.7153 55.3068L65.6451 55.2231L65.502 55.0557C64.7568 54.1215 62.7885 49.6179 62.1972 48.492L60.102 49.5234Z" fill="#FFB573"/>
<path d="M71.4096 58.293C69.8535 59.12 68.0332 59.2967 66.3471 58.7844C64.7388 58.2672 63.3819 57.1674 62.5428 55.701C61.5681 54.2673 58.9734 50.2119 59.3028 49.1643C59.6889 47.9115 60.5097 47.1339 61.8813 47.4714C62.8452 47.7036 64.6839 52.3854 65.5749 54.2565C65.9232 54.7776 66.5928 55.6065 67.3407 55.8603C68.661 56.3166 69.633 56.1303 71.0154 55.9224C71.2692 56.0736 71.2503 56.3085 71.3772 56.5704C71.5134 56.8361 71.5872 57.1294 71.5928 57.4279C71.5984 57.7265 71.5358 58.0224 71.4096 58.293Z" fill="#1A2980"/>
<path d="M59.0004 39.3471C58.5873 41.5665 58.4604 42.5142 57.186 43.524C55.2744 45.0414 52.6365 44.0478 52.38 41.7474C52.1478 39.6765 52.8633 36.3933 55.1637 35.775C55.6702 35.636 56.2039 35.6288 56.714 35.7542C57.2241 35.8795 57.6937 36.1332 58.0782 36.4911C58.4626 36.8491 58.7491 37.2994 58.9106 37.7992C59.072 38.2991 59.1029 38.8319 59.0004 39.3471Z" fill="#FFB573"/>
<path d="M66.879 51.6348C66.4551 52.1181 66.3228 52.3989 65.7315 52.6608C65.1402 52.9227 63.8604 52.6932 63.4527 52.1937C63.585 52.5825 64.3572 53.2737 64.7622 53.3358C64.3051 53.5865 63.7762 53.6739 63.2628 53.5835C62.7494 53.4932 62.2821 53.2306 61.938 52.839C61.9945 53.0825 62.1125 53.3075 62.2808 53.4923C62.4491 53.6771 62.662 53.8157 62.8992 53.8947C57.726 54.0297 59.9049 51.5943 56.6649 48.1302C53.0793 44.2962 53.8569 41.1264 53.8569 41.1264C53.8655 40.3369 53.6182 39.5659 53.1522 38.9286C52.6338 38.2644 52.785 37.368 52.9497 36.8658C53.19 36.1287 53.9217 35.8695 54.6237 35.8263C54.7479 35.1 56.2437 35.2323 56.4246 35.3538C56.6055 35.4753 56.6271 35.451 56.7918 35.3538C57.1563 35.1189 58.0743 34.8759 59.0571 35.6697C59.6565 36.1557 60.2991 37.0197 60.3207 38.8773C60.3423 40.8024 59.4216 43.0893 62.6076 46.0134C64.4841 47.7306 63.585 51.4323 66.879 51.6348Z" fill="#263238"/>
<path d="M53.4303 39.5145C53.1793 39.8705 53.0749 40.3094 53.1387 40.7403C53.2305 41.31 53.784 41.3478 54.1863 40.9833C54.5886 40.6188 54.9396 39.96 54.6426 39.4875C54.3456 39.015 53.7435 39.0825 53.4303 39.5145Z" fill="#FFB573"/>
<path d="M58.4415 62.5752C58.4415 62.5752 57.3372 78.0759 56.0952 88.2981C55.7217 91.3659 54.7863 94.3388 53.3358 97.0677L47.25 108.559L44.1288 107.33C44.1288 107.33 46.2888 96.4089 50.4981 90.4527C50.4981 90.4527 47.3499 72.6516 51.4701 62.5212L58.4415 62.5752Z" fill="#263238"/>
<path opacity="0.2" d="M54.1971 66.3309C54.1971 66.3309 55.1259 73.3509 55.6335 77.5278C53.73 75.0168 52.2531 71.5122 54.1971 66.3309Z" fill="black"/>
<path d="M66.3228 114.639C66.3591 114.599 66.3841 114.55 66.3955 114.497C66.4069 114.444 66.4041 114.389 66.3876 114.337C66.3813 114.304 66.3662 114.273 66.3439 114.248C66.3216 114.223 66.2928 114.204 66.2607 114.194C65.9718 114.097 65.2995 114.623 65.2239 114.683C65.2155 114.69 65.2094 114.699 65.206 114.71C65.2027 114.72 65.2023 114.731 65.205 114.742C65.2084 114.752 65.2145 114.761 65.2226 114.767C65.2307 114.774 65.2405 114.778 65.2509 114.78C65.4608 114.812 65.6736 114.82 65.8854 114.804C66.0458 114.801 66.2004 114.743 66.3228 114.639ZM66.2229 114.299C66.2373 114.303 66.2501 114.312 66.2598 114.323C66.2694 114.335 66.2753 114.349 66.2769 114.364C66.2888 114.398 66.2915 114.434 66.2849 114.469C66.2782 114.504 66.2624 114.537 66.2391 114.564C66.1311 114.685 65.8233 114.728 65.4021 114.685C65.6775 114.48 66.0717 114.245 66.2229 114.299Z" fill="#1A2980"/>
<path d="M65.2914 114.772C65.5047 114.623 65.8854 114.08 65.8044 113.824C65.7916 113.781 65.7644 113.744 65.7276 113.719C65.6907 113.694 65.6463 113.682 65.6019 113.686C65.5589 113.685 65.5162 113.693 65.4766 113.71C65.437 113.727 65.4015 113.752 65.3724 113.783C65.1375 114.032 65.1996 114.701 65.2023 114.731C65.2039 114.741 65.2077 114.75 65.2133 114.758C65.2189 114.766 65.2262 114.772 65.2347 114.777C65.2445 114.78 65.2547 114.78 65.2644 114.777C65.2738 114.778 65.2832 114.776 65.2914 114.772ZM65.5992 113.797C65.6721 113.797 65.691 113.829 65.6991 113.854C65.745 114.013 65.5155 114.415 65.3076 114.612C65.2762 114.352 65.3272 114.089 65.4534 113.859C65.4841 113.825 65.5265 113.804 65.5722 113.8L65.5992 113.797Z" fill="#1A2980"/>
<path d="M62.5104 114.99L64.8756 114.764L64.152 109.39L61.7868 109.62L62.5104 114.99Z" fill="#FFB573"/>
<path d="M65.0349 114.48L62.3781 114.737C62.3324 114.74 62.2896 114.76 62.2577 114.793C62.2258 114.826 62.2072 114.869 62.2053 114.915L62.1081 117.013C62.1081 117.066 62.1194 117.119 62.1412 117.167C62.163 117.216 62.1949 117.259 62.2346 117.295C62.2744 117.33 62.3212 117.357 62.372 117.373C62.4228 117.389 62.4764 117.394 62.5293 117.388C63.4527 117.285 63.8793 117.188 65.0619 117.075C65.7801 117.005 66.8385 116.978 67.8321 116.883C68.8257 116.789 68.7798 115.817 68.3721 115.768C66.4821 115.555 66.1338 115.042 65.4588 114.585C65.334 114.502 65.1841 114.465 65.0349 114.48Z" fill="#263238"/>
<path d="M60.7797 62.5725C60.7797 62.5725 63.8064 81.0702 64.3869 92.0268L64.4976 111.656L62.0487 112.134C62.0487 112.134 58.5036 99.6111 58.0932 92.3724C57.0132 73.17 50.7573 73.1376 54.5211 62.5374L60.7797 62.5725Z" fill="#263238"/>
<path d="M65.3103 111.737L61.2576 112.29L60.8445 110.735L65.178 110.171L65.3103 111.737Z" fill="#1A2980"/>
<path d="M43.47 42.7275H43.6239C43.5873 42.7275 43.551 42.7349 43.5174 42.7493C43.4837 42.7637 43.4533 42.7848 43.4281 42.8113C43.4028 42.8378 43.3832 42.8692 43.3705 42.9035C43.3577 42.9379 43.3521 42.9744 43.3539 43.011L43.6023 47.7117C43.6097 47.7855 43.6441 47.8539 43.6989 47.9038C43.7538 47.9536 43.8252 47.9814 43.8993 47.9817H43.74C43.6661 47.9808 43.595 47.9528 43.5403 47.9031C43.4855 47.8533 43.4509 47.7852 43.443 47.7117L43.2 43.011C43.1982 42.9744 43.2038 42.9379 43.2166 42.9035C43.2293 42.8692 43.2489 42.8378 43.2742 42.8113C43.2994 42.7848 43.3298 42.7637 43.3635 42.7493C43.3971 42.7349 43.4334 42.7275 43.47 42.7275Z" fill="#1A2980"/>
<path opacity="0.1" d="M43.47 42.7275H43.6239C43.5873 42.7275 43.551 42.7349 43.5174 42.7493C43.4837 42.7637 43.4533 42.7848 43.4281 42.8113C43.4028 42.8378 43.3832 42.8692 43.3705 42.9035C43.3577 42.9379 43.3521 42.9744 43.3539 43.011L43.6023 47.7117C43.6097 47.7855 43.6441 47.8539 43.6989 47.9038C43.7538 47.9536 43.8252 47.9814 43.8993 47.9817H43.74C43.6661 47.9808 43.595 47.9528 43.5403 47.9031C43.4855 47.8533 43.4509 47.7852 43.443 47.7117L43.2 43.011C43.1982 42.9744 43.2038 42.9379 43.2166 42.9035C43.2293 42.8692 43.2489 42.8378 43.2742 42.8113C43.2994 42.7848 43.3298 42.7637 43.3635 42.7493C43.3971 42.7349 43.4334 42.7275 43.47 42.7275Z" fill="white"/>
<path d="M43.7805 47.9952H45.6705C45.7421 47.9952 45.8108 47.9667 45.8614 47.9161C45.9121 47.8655 45.9405 47.7968 45.9405 47.7252L45.6948 43.0245C45.6901 42.9485 45.6568 42.8772 45.6018 42.8246C45.5467 42.7721 45.4739 42.7422 45.3978 42.741H43.5078C43.4712 42.741 43.4349 42.7484 43.4013 42.7628C43.3676 42.7772 43.3372 42.7983 43.3119 42.8248C43.2867 42.8513 43.2671 42.8827 43.2543 42.917C43.2416 42.9514 43.236 42.9879 43.2378 43.0245L43.4835 47.7252C43.4914 47.7987 43.526 47.8668 43.5807 47.9166C43.6355 47.9663 43.7065 47.9943 43.7805 47.9952Z" fill="#1A2980"/>
<path opacity="0.4" d="M43.7805 47.9952H45.6705C45.7421 47.9952 45.8108 47.9667 45.8614 47.9161C45.9121 47.8655 45.9405 47.7968 45.9405 47.7252L45.6948 43.0245C45.6901 42.9485 45.6568 42.8772 45.6018 42.8246C45.5467 42.7721 45.4739 42.7422 45.3978 42.741H43.5078C43.4712 42.741 43.4349 42.7484 43.4013 42.7628C43.3676 42.7772 43.3372 42.7983 43.3119 42.8248C43.2867 42.8513 43.2671 42.8827 43.2543 42.917C43.2416 42.9514 43.236 42.9879 43.2378 43.0245L43.4835 47.7252C43.4914 47.7987 43.526 47.8668 43.5807 47.9166C43.6355 47.9663 43.7065 47.9943 43.7805 47.9952Z" fill="white"/>
<path d="M45.8271 47.6145C45.8286 47.6381 45.8253 47.6617 45.8174 47.684C45.8095 47.7062 45.7972 47.7267 45.7812 47.7441C45.7472 47.7772 45.7017 47.7956 45.6543 47.7954H43.8156C43.7642 47.7948 43.7149 47.7746 43.6778 47.739C43.6407 47.7034 43.6185 47.655 43.6158 47.6037L43.3755 43.0434C43.3738 43.0202 43.3769 42.9969 43.3849 42.975C43.3928 42.9532 43.4052 42.9332 43.4214 42.9165C43.4376 42.8991 43.4573 42.8854 43.4791 42.8761C43.501 42.8668 43.5245 42.8621 43.5483 42.8625H45.387C45.4384 42.8631 45.4877 42.8833 45.5248 42.9189C45.5619 42.9545 45.5841 43.0029 45.5868 43.0542L45.603 43.3809L45.8271 47.6145Z" fill="#263238"/>
<g opacity="0.1">
<path opacity="0.1" d="M45.603 43.3809L44.9928 47.79H44.2611L44.9523 42.8571H45.387C45.4384 42.8577 45.4877 42.8779 45.5248 42.9135C45.5619 42.9491 45.5841 42.9975 45.5868 43.0488L45.603 43.3809Z" fill="white"/>
<path opacity="0.1" d="M43.9965 47.7976H43.8318L44.523 42.8647H44.6877L43.9965 47.7976Z" fill="white"/>
</g>
<path d="M50.9004 63.099C49.5257 65.8084 48.7869 68.7956 48.7404 71.8335C53.3304 75.3948 57.6045 71.2233 62.8587 71.928C62.6751 69.5547 61.8678 65.178 60.912 62.9856C57.4317 63.1341 54.1809 62.7858 50.9004 63.099Z" fill="#1A2980"/>
<path d="M51.3783 62.1351C51.3783 62.1351 51.0084 63.0882 51.1083 63.0882H60.75C60.8337 63.0882 60.9012 63.0477 60.9066 62.9937L60.9903 62.1837C60.9903 62.127 60.9228 62.0784 60.8337 62.0784H51.5295C51.5016 62.0746 51.4731 62.0778 51.4468 62.0877C51.4204 62.0976 51.3968 62.1139 51.3783 62.1351Z" fill="white"/>
<path d="M52.7364 63.18H52.488C52.4367 63.18 52.3989 63.153 52.4016 63.1206L52.5204 62.0406C52.5204 62.0082 52.5663 61.9839 52.6149 61.9839H52.866C52.9146 61.9839 52.9524 62.0082 52.9497 62.0406L52.8336 63.1206C52.8261 63.1397 52.8125 63.1559 52.795 63.1666C52.7774 63.1773 52.7569 63.182 52.7364 63.18Z" fill="#1A2980"/>
<path d="M58.7736 63.18H58.5252C58.4766 63.18 58.4388 63.153 58.4415 63.1206L58.5576 62.0406C58.5576 62.0082 58.6035 61.9839 58.6548 61.9839H58.9032C58.9518 61.9839 58.9896 62.0082 58.9869 62.0406L58.8708 63.1206C58.86 63.1422 58.8249 63.18 58.7736 63.18Z" fill="#1A2980"/>
</svg>
