<svg width="21" height="21" viewBox="0 0 21 21" fill="none" xmlns="http://www.w3.org/2000/svg">
<path d="M10.5 12.0625C11.3629 12.0625 12.0625 11.3629 12.0625 10.5C12.0625 9.63706 11.3629 8.9375 10.5 8.9375C9.63706 8.9375 8.9375 9.63706 8.9375 10.5C8.9375 11.3629 9.63706 12.0625 10.5 12.0625Z" fill="white"/>
<path d="M20.8022 8.74999L19.9793 6.12499C19.8904 5.82161 19.7414 5.53924 19.5411 5.2947C19.3407 5.05017 19.0932 4.8485 18.8132 4.7017C18.5332 4.55491 18.2265 4.46601 17.9115 4.4403C17.5964 4.4146 17.2794 4.45261 16.9793 4.55208L16.6251 4.66666C16.3477 4.75838 16.0522 4.78165 15.7638 4.73449C15.4754 4.68733 15.2027 4.57114 14.9689 4.39583L14.8543 4.31249C14.6262 4.13788 14.4423 3.9121 14.3174 3.65336C14.1926 3.39462 14.1303 3.11015 14.1355 2.82291V2.53124C14.1406 1.8771 13.8859 1.24769 13.4272 0.781245C13.2091 0.560883 12.9495 0.385789 12.6635 0.266019C12.3775 0.146249 12.0706 0.0841639 11.7605 0.0833282H9.1043C8.46698 0.0915639 7.85872 0.351237 7.41195 0.80581C6.96518 1.26038 6.71608 1.87305 6.71888 2.51041V2.76041C6.71788 3.06278 6.64904 3.36107 6.51743 3.63329C6.38583 3.90552 6.19481 4.14474 5.95846 4.33333L5.82305 4.43749C5.56194 4.63502 5.25655 4.76578 4.93342 4.81843C4.61028 4.87108 4.27917 4.84401 3.96888 4.73958C3.68389 4.64096 3.38186 4.60119 3.08106 4.62267C2.78026 4.64416 2.48695 4.72645 2.21888 4.86458C1.93977 5.00311 1.69215 5.19759 1.49144 5.43594C1.29073 5.67428 1.14122 5.95138 1.05221 6.24999L0.198044 8.95833C-3.65973e-05 9.56895 0.0507616 10.2331 0.339408 10.8065C0.628054 11.3798 1.13124 11.8162 1.73971 12.0208H1.90638C2.18706 12.126 2.43899 12.2959 2.6417 12.5167C2.84441 12.7375 2.99219 13.003 3.07304 13.2917L3.13554 13.4583C3.25167 13.7772 3.2905 14.1191 3.24885 14.4559C3.2072 14.7927 3.08626 15.1148 2.89596 15.3958C2.51077 15.9204 2.3483 16.5759 2.44388 17.2196C2.53947 17.8633 2.88538 18.4433 3.40638 18.8333L5.56263 20.4687C5.97091 20.7656 6.46412 20.9227 6.96888 20.9167C7.10397 20.9299 7.24004 20.9299 7.37513 20.9167C7.68774 20.8562 7.98474 20.7326 8.248 20.5535C8.51127 20.3744 8.73529 20.1435 8.90638 19.875L9.14596 19.5312C9.31402 19.2902 9.5364 19.092 9.79515 18.9527C10.0539 18.8133 10.3418 18.7368 10.6355 18.7292C10.9434 18.7216 11.2482 18.7921 11.5214 18.9342C11.7947 19.0763 12.0274 19.2853 12.198 19.5417L12.323 19.7187C12.5007 19.9831 12.7305 20.2082 12.9984 20.3804C13.2663 20.5525 13.5666 20.668 13.8808 20.7197C14.195 20.7714 14.5165 20.7583 14.8254 20.6811C15.1344 20.6039 15.4243 20.4643 15.6772 20.2708L17.7918 18.6875C18.2918 18.2992 18.6243 17.7343 18.7211 17.1087C18.8179 16.4831 18.6718 15.8442 18.3126 15.3229L18.0418 14.9271C17.8789 14.6754 17.7723 14.3916 17.7291 14.095C17.686 13.7984 17.7074 13.4959 17.7918 13.2083C17.8778 12.9005 18.0376 12.6182 18.2572 12.3859C18.4768 12.1535 18.7497 11.9782 19.0522 11.875L19.2605 11.8021C19.8634 11.5929 20.3612 11.1575 20.6489 10.588C20.9366 10.0184 20.9916 9.35933 20.8022 8.74999ZM10.5001 14.1458C9.77905 14.1458 9.07417 13.932 8.47461 13.5314C7.87506 13.1308 7.40776 12.5614 7.13182 11.8952C6.85587 11.229 6.78367 10.4959 6.92435 9.78873C7.06502 9.0815 7.41226 8.43188 7.92214 7.922C8.43201 7.41212 9.08164 7.06489 9.78886 6.92421C10.4961 6.78354 11.2291 6.85574 11.8953 7.13168C12.5615 7.40763 13.1309 7.87492 13.5315 8.47448C13.9321 9.07403 14.146 9.77892 14.146 10.5C14.146 11.4669 13.7618 12.3943 13.0781 13.078C12.3944 13.7617 11.4671 14.1458 10.5001 14.1458Z" fill="white"/>
</svg>
