<svg width="141" height="141" viewBox="0 0 141 141" fill="none" xmlns="http://www.w3.org/2000/svg">
<path d="M141 107.837H0V107.907H141V107.837Z" fill="#EBEBEB"/>
<path d="M126.872 112.374H117.532V112.445H126.872V112.374Z" fill="#EBEBEB"/>
<path d="M93.404 113.141H90.9535V113.212H93.404V113.141Z" fill="#EBEBEB"/>
<path d="M117.25 109.757H111.838V109.828H117.25V109.757Z" fill="#EBEBEB"/>
<path d="M26.9733 110.231H14.7937V110.301H26.9733V110.231Z" fill="#EBEBEB"/>
<path d="M31.271 110.231H29.4859V110.301H31.271V110.231Z" fill="#EBEBEB"/>
<path d="M63.4923 111.421H37.0745V111.492H63.4923V111.421Z" fill="#EBEBEB"/>
<path d="M66.834 95.2596H12.3826C11.9561 95.2588 11.5472 95.0889 11.2458 94.787C10.9445 94.4851 10.7752 94.0759 10.7752 93.6494V17.1061C10.7789 16.682 10.9498 16.2765 11.2508 15.9776C11.5518 15.6788 11.9585 15.5107 12.3826 15.51H66.834C67.2611 15.51 67.6706 15.6796 67.9726 15.9816C68.2746 16.2836 68.4442 16.6932 68.4442 17.1202V93.6494C68.4442 94.0764 68.2746 94.486 67.9726 94.788C67.6706 95.09 67.2611 95.2596 66.834 95.2596ZM12.3826 15.5664C11.9748 15.5671 11.5838 15.7297 11.2957 16.0184C11.0076 16.307 10.8457 16.6982 10.8457 17.1061V93.6494C10.8457 94.0572 11.0076 94.4485 11.2957 94.7371C11.5838 95.0258 11.9748 95.1884 12.3826 95.1891H66.834C67.2421 95.1884 67.6333 95.0259 67.9219 94.7373C68.2105 94.4487 68.373 94.0575 68.3737 93.6494V17.1061C68.373 16.698 68.2105 16.3068 67.9219 16.0182C67.6333 15.7296 67.2421 15.5671 66.834 15.5664H12.3826Z" fill="#EBEBEB"/>
<path d="M127.833 95.2596H73.3792C72.9524 95.2589 72.5433 95.089 72.2414 94.7872C71.9396 94.4853 71.7697 94.0762 71.769 93.6494V17.1061C71.7734 16.6817 71.945 16.2762 72.2464 15.9774C72.5478 15.6787 72.9548 15.5107 73.3792 15.51H127.833C128.257 15.5115 128.663 15.6798 128.963 15.9786C129.264 16.2774 129.434 16.6825 129.438 17.1061V93.6494C129.438 94.0755 129.269 94.4842 128.968 94.786C128.668 95.0878 128.26 95.2581 127.833 95.2596ZM73.3792 15.5664C72.9711 15.5671 72.5799 15.7296 72.2913 16.0182C72.0027 16.3068 71.8402 16.698 71.8395 17.1061V93.6494C71.8402 94.0575 72.0027 94.4487 72.2913 94.7373C72.5799 95.0259 72.9711 95.1884 73.3792 95.1891H127.833C128.242 95.1884 128.633 95.0259 128.921 94.7373C129.21 94.4487 129.372 94.0575 129.373 93.6494V17.1061C129.372 16.698 129.21 16.3068 128.921 16.0182C128.633 15.7296 128.242 15.5671 127.833 15.5664H73.3792Z" fill="#EBEBEB"/>
<path d="M42.1393 55.9742H40.2414V107.907H42.1393V55.9742Z" fill="#F5F5F5"/>
<path d="M49.6433 62.5673H47.7454V107.907H49.6433V62.5673Z" fill="#F5F5F5"/>
<path d="M57.0768 69.1605H55.1789V107.907H57.0768V69.1605Z" fill="#F5F5F5"/>
<path d="M64.5131 64.7641H62.6153V107.907H64.5131V64.7641Z" fill="#F5F5F5"/>
<path d="M71.9495 62.5673H70.0516V107.907H71.9495V62.5673Z" fill="#F5F5F5"/>
<path d="M79.383 58.171H77.4851V107.907H79.383V58.171Z" fill="#F5F5F5"/>
<path d="M86.8193 60.3706H84.9215V107.907H86.8193V60.3706Z" fill="#F5F5F5"/>
<path d="M94.2557 58.171H92.3578V107.907H94.2557V58.171Z" fill="#F5F5F5"/>
<path d="M101.689 53.7746H99.7913V107.904H101.689V53.7746Z" fill="#F5F5F5"/>
<path d="M109.126 49.381H107.228V107.907H109.126V49.381Z" fill="#F5F5F5"/>
<path d="M116.559 44.9846H114.661V107.907H116.559V44.9846Z" fill="#F5F5F5"/>
<path d="M56.118 66.0726C56.0123 66.0684 55.9118 66.0252 55.836 65.9513L39.9481 50.4611C39.8677 50.3826 39.8218 50.2753 39.8205 50.1629C39.8192 50.0505 39.8625 49.9422 39.9411 49.8618C40.0196 49.7814 40.1269 49.7355 40.2392 49.7342C40.3516 49.7329 40.4599 49.7762 40.5403 49.8548L56.1716 65.0969L78.1873 49.0229C78.2725 48.9621 78.3771 48.9348 78.4812 48.9463C78.5852 48.9577 78.6814 49.0071 78.7513 49.0849L85.9592 57.246L115.795 40.1512C115.843 40.1236 115.896 40.1058 115.952 40.0988C116.007 40.0918 116.063 40.0957 116.117 40.1104C116.17 40.1251 116.221 40.1501 116.265 40.1842C116.308 40.2183 116.345 40.2608 116.373 40.3091C116.401 40.3574 116.418 40.4107 116.425 40.4659C116.432 40.5211 116.428 40.5772 116.414 40.6308C116.399 40.6845 116.374 40.7348 116.34 40.7788C116.306 40.8227 116.263 40.8596 116.215 40.8872L86.0805 58.1569C85.9958 58.2047 85.8973 58.2221 85.8014 58.2062C85.7055 58.1903 85.6179 58.142 85.5532 58.0694L78.3734 49.9478L56.3774 65.9908C56.3023 66.0459 56.2111 66.0747 56.118 66.0726Z" fill="#F0F0F0"/>
<path d="M54.3273 107.583L40.4614 52.9004L41.1551 50.1678H40.4332V34.5506H38.572V50.1678H37.85L38.5438 52.9004L24.675 107.583H26.5954L38.572 60.3536V107.871H40.4332V60.3536L52.4097 107.583H54.3273Z" fill="#E0E0E0"/>
<path d="M49.9502 52.3571C51.3122 46.5865 47.7383 40.8043 41.9677 39.4424C36.1971 38.0804 30.4149 41.6543 29.0529 47.4249C27.6909 53.1955 31.2648 58.9777 37.0355 60.3397C42.8061 61.7016 48.5882 58.1277 49.9502 52.3571Z" fill="#E6E6E6"/>
<path d="M39.5026 59.0593C44.5642 59.0593 48.6676 54.9559 48.6676 49.8943C48.6676 44.8326 44.5642 40.7293 39.5026 40.7293C34.4409 40.7293 30.3376 44.8326 30.3376 49.8943C30.3376 54.9559 34.4409 59.0593 39.5026 59.0593Z" fill="#F5F5F5"/>
<path d="M39.5026 57.0683C43.4647 57.0683 46.6766 53.8564 46.6766 49.8943C46.6766 45.9321 43.4647 42.7202 39.5026 42.7202C35.5404 42.7202 32.3285 45.9321 32.3285 49.8943C32.3285 53.8564 35.5404 57.0683 39.5026 57.0683Z" fill="#E6E6E6"/>
<path d="M41.7541 55.3252C44.7542 54.0825 46.1788 50.6431 44.9362 47.643C43.6935 44.6429 40.2541 43.2182 37.254 44.4609C34.2539 45.7036 32.8292 49.143 34.0719 52.1431C35.3146 55.1432 38.754 56.5679 41.7541 55.3252Z" fill="#F5F5F5"/>
<path d="M43.473 50.8283C43.9907 48.635 42.6323 46.4373 40.4389 45.9196C38.2456 45.4019 36.0478 46.7603 35.5302 48.9537C35.0125 51.147 36.3709 53.3447 38.5642 53.8624C40.7576 54.3801 42.9553 53.0217 43.473 50.8283Z" fill="#E6E6E6"/>
<path d="M40.6253 52.6C42.1203 51.9808 42.8302 50.2668 42.211 48.7718C41.5917 47.2768 39.8778 46.5669 38.3828 47.1861C36.8878 47.8054 36.1778 49.5193 36.7971 51.0143C37.4163 52.5093 39.1303 53.2193 40.6253 52.6Z" fill="#F5F5F5"/>
<path d="M40.8308 49.8943C40.8308 50.1576 40.7526 50.4151 40.6063 50.634C40.4599 50.853 40.2518 51.0236 40.0085 51.1243C39.7651 51.2249 39.4973 51.2511 39.239 51.1995C38.9808 51.1479 38.7436 51.0209 38.5576 50.8345C38.3715 50.648 38.245 50.4106 38.1939 50.1522C38.1429 49.8938 38.1697 49.6261 38.2708 49.3829C38.372 49.1398 38.543 48.9321 38.7623 48.7862C38.9816 48.6402 39.2392 48.5627 39.5026 48.5632C39.6772 48.5632 39.8502 48.5977 40.0115 48.6646C40.1728 48.7315 40.3194 48.8296 40.4428 48.9532C40.5661 49.0769 40.6639 49.2236 40.7305 49.3851C40.7971 49.5466 40.8312 49.7196 40.8308 49.8943Z" fill="#E6E6E6"/>
<path d="M25.724 41.0395L26.0145 42.9796L23.9954 43.6592L26.0145 44.7196L28.028 44.0117L27.6755 42.0998L25.724 41.0395Z" fill="#E6E6E6"/>
<path d="M39.5026 50.1763C39.4576 50.1757 39.4132 50.1651 39.3728 50.1452L24.926 42.7399C24.8617 42.7046 24.8137 42.6457 24.7921 42.5755C24.7706 42.5054 24.7772 42.4297 24.8106 42.3644C24.844 42.2991 24.9015 42.2493 24.971 42.2257C25.0404 42.2021 25.1163 42.2065 25.1826 42.238L39.6295 49.632C39.6959 49.6658 39.7462 49.7245 39.7695 49.7953C39.7927 49.8662 39.787 49.9433 39.7535 50.0099C39.7317 50.0585 39.6965 50.0999 39.6521 50.1294C39.6077 50.1588 39.5558 50.1751 39.5026 50.1763Z" fill="#E0E0E0"/>
<path d="M59.3836 37.8331C59.3822 37.4451 59.4719 37.0622 59.6456 36.7152C59.8192 36.3682 60.0718 36.0668 60.3832 35.8353C60.6946 35.6037 61.0559 35.4485 61.4382 35.3821C61.8205 35.3157 62.2131 35.34 62.5843 35.453C62.474 34.7048 62.5264 33.9416 62.7377 33.2154C62.9491 32.4892 63.3145 31.8171 63.8091 31.2449C64.3037 30.6727 64.9158 30.2139 65.6037 29.8996C66.2917 29.5854 67.0393 29.4231 67.7956 29.4239C68.1201 29.4238 68.444 29.454 68.7629 29.5141C69.2819 28.6612 70.0641 28.0002 70.9917 27.6308C71.9192 27.2615 72.9417 27.2037 73.905 27.4663C74.8682 27.7289 75.7199 28.2977 76.3316 29.0867C76.9434 29.8758 77.2819 30.8423 77.2962 31.8406H77.3752C78.5 31.8406 79.5788 32.2875 80.3742 33.0829C81.1696 33.8783 81.6164 34.957 81.6164 36.0819C81.6164 37.2068 81.1696 38.2855 80.3742 39.0809C79.5788 39.8763 78.5 40.3232 77.3752 40.3232H61.7975C61.1499 40.3048 60.5351 40.0342 60.0842 39.569C59.6332 39.1039 59.3818 38.481 59.3836 37.8331Z" fill="#F0F0F0"/>
<path d="M103.627 36.4682C103.627 36.1504 103.753 35.8455 103.978 35.6208C104.202 35.396 104.507 35.2697 104.825 35.2697C104.942 35.2708 105.057 35.2879 105.169 35.3205C105.151 35.1991 105.142 35.0766 105.141 34.9539C105.141 34.5808 105.223 34.2123 105.381 33.8746C105.54 33.5369 105.771 33.2382 106.058 32.9999C106.345 32.7616 106.681 32.5895 107.042 32.4959C107.403 32.4023 107.78 32.3894 108.147 32.4582C108.398 32.0481 108.776 31.7307 109.223 31.5538C109.67 31.3769 110.163 31.3501 110.627 31.4773C111.09 31.6046 111.5 31.879 111.795 32.2593C112.089 32.6397 112.252 33.1053 112.259 33.5862H112.295C112.837 33.5862 113.357 33.8016 113.741 34.185C114.124 34.5684 114.34 35.0885 114.34 35.6307C114.34 36.1729 114.124 36.693 113.741 37.0764C113.357 37.4598 112.837 37.6752 112.295 37.6752H104.791C104.478 37.6671 104.18 37.536 103.962 37.3102C103.744 37.0844 103.623 36.782 103.627 36.4682Z" fill="#F0F0F0"/>
<path d="M26.711 37.96C26.711 37.8542 26.7319 37.7495 26.7725 37.6518C26.8131 37.5541 26.8725 37.4654 26.9474 37.3907C27.0224 37.3161 27.1113 37.2569 27.2091 37.2167C27.307 37.1765 27.4118 37.1559 27.5176 37.1563C27.5959 37.1561 27.6738 37.1675 27.7488 37.1902C27.7365 37.108 27.7299 37.0251 27.7291 36.942C27.7327 36.4944 27.9122 36.0662 28.2287 35.7496C28.5452 35.4331 28.9735 35.2537 29.4211 35.25C29.5271 35.2504 29.6328 35.2608 29.7369 35.281C29.9043 35.0037 30.1575 34.7886 30.4582 34.6682C30.7588 34.5478 31.0905 34.5287 31.403 34.6139C31.7155 34.699 31.9917 34.8837 32.1898 35.14C32.3878 35.3963 32.4969 35.7101 32.5005 36.034H32.5259C32.8797 36.05 33.2137 36.2018 33.4585 36.4579C33.7032 36.714 33.8398 37.0545 33.8398 37.4087C33.8398 37.7629 33.7032 38.1035 33.4585 38.3595C33.2137 38.6156 32.8797 38.7674 32.5259 38.7835H27.495C27.3894 38.7809 27.2854 38.7576 27.1889 38.7148C27.0924 38.672 27.0052 38.6106 26.9324 38.5342C26.8596 38.4577 26.8026 38.3676 26.7646 38.2691C26.7266 38.1706 26.7084 38.0656 26.711 37.96Z" fill="#F0F0F0"/>
<path d="M70.5 120.572C100.697 120.572 125.177 119.143 125.177 117.38C125.177 115.617 100.697 114.187 70.5 114.187C40.3027 114.187 15.823 115.617 15.823 117.38C15.823 119.143 40.3027 120.572 70.5 120.572Z" fill="#F5F5F5"/>
<path d="M39.0232 63.6079L40.9577 62.5025C40.9577 62.5025 41.7022 61.3547 41.9249 61.3012C42.1477 61.2476 44.6011 61.3012 44.6011 61.3012C44.6011 61.3012 44.2317 62.8916 44.1922 63.2046C44.1527 63.5177 41.8121 63.2046 41.8121 63.2046L39.9171 64.3326L39.0232 63.6079Z" fill="#EBB376"/>
<path d="M21.0062 115.056L18.9814 114.653C18.9453 114.653 18.9101 114.665 18.8819 114.687C18.8537 114.71 18.8341 114.742 18.8263 114.777L18.2821 116.802C18.2706 116.871 18.2853 116.942 18.3234 117.001C18.3615 117.06 18.4201 117.102 18.4879 117.12H18.5471C19.2634 117.12 19.7851 117.064 20.6819 117.064C21.2459 117.064 22.904 117.123 23.6683 117.123C24.4325 117.123 24.534 116.367 24.2323 116.3C22.8223 115.992 21.7732 115.569 21.3248 115.172C21.238 115.093 21.1235 115.051 21.0062 115.056Z" fill="#263238"/>
<path d="M45.7855 114.988H43.5746C43.5383 114.988 43.503 115 43.4746 115.022C43.4463 115.045 43.4268 115.077 43.4195 115.112L43.0586 116.748C43.048 116.817 43.0635 116.888 43.102 116.946C43.1406 117.005 43.1995 117.046 43.2672 117.064H43.3265C44.0428 117.05 44.5616 117.007 45.4612 117.007C46.0252 117.007 47.6834 117.064 48.4476 117.064C49.2118 117.064 49.3105 116.311 48.9975 116.24C47.5875 115.936 46.5385 115.51 46.0901 115.112C46.0503 115.072 46.0028 115.041 45.9504 115.019C45.8981 114.998 45.842 114.987 45.7855 114.988Z" fill="#263238"/>
<path d="M24.9091 77.7389L34.2715 75.3645C36.3949 80.0006 44.1866 99.0356 46.076 114.873L42.9063 115.676C42.9063 115.676 37.2945 92.3212 32.5879 85.5024C32.5879 85.5024 32.3369 95.8687 31.8265 97.3774C31.4063 98.6182 21.7704 115.22 21.7704 115.22L18.6402 114.867C18.6402 114.867 26.508 97.9245 26.9705 95.8123C27.2976 94.3741 25.865 83.8104 25.865 83.8104C25.6141 82.8685 25.2362 78.9685 25.2362 78.9685C25.2362 78.9685 24.9542 77.9335 24.9091 77.7389Z" fill="#1A2980"/>
<path opacity="0.2" d="M32.5907 85.508C33.3852 86.71 34.0785 87.9758 34.6634 89.2925C34.0148 85.6434 32.0042 82.1099 32.0042 82.1099L32.5907 85.508Z" fill="black"/>
<path opacity="0.3" d="M24.9091 77.7389L34.2715 75.3645C36.3949 80.0006 44.1866 99.0356 46.076 114.873L42.9063 115.676C42.9063 115.676 37.2945 92.3212 32.5879 85.5024C32.5879 85.5024 32.3369 95.8687 31.8265 97.3774C31.4063 98.6182 21.7704 115.22 21.7704 115.22L18.6402 114.867C18.6402 114.867 26.508 97.9245 26.9705 95.8123C27.2976 94.3741 25.865 83.8104 25.865 83.8104C25.6141 82.8685 25.2362 78.9685 25.2362 78.9685C25.2362 78.9685 24.9542 77.9335 24.9091 77.7389Z" fill="black"/>
<path d="M41.1861 63.7687C41.1861 63.7687 36.9166 66.6507 35.7914 66.803C35.3431 66.865 34.4181 66.7127 33.4621 66.521C32.0126 66.2108 30.5011 65.7765 30.5011 65.7765L30.3122 64.3468L30.112 62.8183C30.4504 62.7055 34.8665 64.5103 35.5264 64.7923C36.1862 65.0743 40.4529 62.5363 40.4529 62.5363L41.1861 63.7687Z" fill="#263238"/>
<path d="M27.9829 77.0791L28.2592 78.1619L25.2362 78.9685L24.9542 77.8461L27.9829 77.0791Z" fill="black"/>
<path d="M32.7515 75.8693L33.0137 76.8958L28.5948 78.0745L28.3184 76.9945L32.7515 75.8693Z" fill="black"/>
<path d="M34.7537 76.4333L33.3465 76.8083L33.0871 75.7847L34.3786 75.4576L34.7537 76.4333Z" fill="black"/>
<path d="M30.3474 77.6076L32.0914 77.1653L31.7725 75.9079L30.0285 76.3502L30.3474 77.6076Z" fill="white"/>
<path d="M34.3758 75.4547L24.9514 77.8461C24.4917 76.6025 24.0236 75.3504 23.5667 74.1293C23.2312 73.2354 22.9012 72.3584 22.5797 71.5096C22.4989 71.2915 22.4171 71.0772 22.3344 70.8666L22.0524 70.1165C21.8437 69.5675 21.6426 69.0383 21.4489 68.5288L20.93 67.1724L20.6847 66.5294L20.2194 65.3168L30.1148 62.807C33.3775 68.5006 34.3758 75.4547 34.3758 75.4547Z" fill="#263238"/>
<path d="M23.8121 65.0743C24.8301 65.5622 26.7082 64.7021 26.7082 64.7021C26.7082 64.7021 27.3314 64.014 26.9592 63.7094C26.2034 63.8081 26.2514 63.56 25.9778 63.1736C25.8214 62.9298 25.7141 62.6577 25.662 62.3728C25.6282 62.2154 25.6027 62.0563 25.5859 61.8962L22.6164 60.8302C23.2904 61.9187 24.3366 63.9802 23.8121 65.0743Z" fill="#EBB376"/>
<path opacity="0.2" d="M23.5188 61.8031C24.0546 63.2272 25.3687 63.2695 25.9778 63.1736C25.8214 62.9298 25.7141 62.6577 25.662 62.3728L23.5188 61.8031Z" fill="black"/>
<path d="M27.3878 56.4C27.3878 56.4 28.1633 58.7406 27.0438 59.8827C25.9243 61.0248 25.1657 56.5495 25.1657 56.5495L27.3878 56.4Z" fill="#263238"/>
<path d="M23.6654 62.432C24.0004 62.7816 24.4408 63.0117 24.9191 63.087C25.3973 63.1624 25.8871 63.0789 26.3134 62.8493C26.8723 62.5605 27.3 62.0693 27.5091 61.476C27.5373 61.397 27.5627 61.3124 27.5852 61.2278C27.9631 59.6515 27.7262 57.0486 26.0089 56.3492C25.6303 56.1932 25.2182 56.1366 24.8116 56.1848C24.405 56.233 24.0176 56.3844 23.686 56.6247C23.3545 56.8649 23.0899 57.186 22.9175 57.5573C22.7451 57.9287 22.6706 58.338 22.701 58.7462C22.8025 60.5031 22.78 61.5352 23.6654 62.432Z" fill="#EBB376"/>
<path d="M25.3603 59.2454C25.3603 59.3864 25.4336 59.502 25.5295 59.502C25.6253 59.502 25.6958 59.3864 25.6987 59.2454C25.7015 59.1044 25.6225 58.9859 25.5295 58.9859C25.4364 58.9859 25.3603 59.1016 25.3603 59.2454Z" fill="#263238"/>
<path d="M26.9733 59.2454C26.9733 59.3892 27.0494 59.5048 27.1425 59.5048C27.2356 59.5048 27.3089 59.3864 27.3117 59.2454C27.3145 59.1044 27.2327 58.9888 27.1425 58.9888C27.0523 58.9888 26.9733 59.11 26.9733 59.2454Z" fill="#263238"/>
<path d="M26.4601 59.3159C26.6287 59.7526 26.8574 60.1635 27.1397 60.5369C27.0418 60.6071 26.9296 60.6548 26.8112 60.6767C26.6928 60.6987 26.571 60.6943 26.4544 60.6638L26.4601 59.3159Z" fill="#D58745"/>
<path d="M27.5627 58.5855C27.5492 58.5924 27.5342 58.596 27.519 58.596C27.5038 58.596 27.4888 58.5924 27.4753 58.5855C27.3919 58.5214 27.2946 58.4778 27.1912 58.4582C27.0878 58.4386 26.9813 58.4436 26.8802 58.4727C26.8597 58.4806 26.8368 58.4799 26.8167 58.4709C26.7966 58.4619 26.7809 58.4453 26.7731 58.4248C26.7652 58.4042 26.7659 58.3813 26.7749 58.3613C26.7839 58.3412 26.8005 58.3255 26.821 58.3176C26.9475 58.2777 27.0817 58.2688 27.2123 58.2919C27.3429 58.315 27.466 58.3693 27.5711 58.4501C27.5804 58.4561 27.5883 58.4639 27.5945 58.473C27.6006 58.4821 27.6049 58.4924 27.607 58.5032C27.6091 58.5139 27.609 58.5251 27.6067 58.5358C27.6044 58.5466 27.6 58.5568 27.5937 58.5658C27.5842 58.5736 27.5738 58.5802 27.5627 58.5855Z" fill="#263238"/>
<path d="M25.0416 58.6052C25.0255 58.6031 25.01 58.5973 24.9965 58.5883C24.981 58.5725 24.9723 58.5512 24.9723 58.5291C24.9723 58.507 24.981 58.4857 24.9965 58.4699C25.095 58.3796 25.214 58.3146 25.3431 58.2802C25.4722 58.2458 25.6078 58.2432 25.7381 58.2725C25.7587 58.279 25.776 58.2932 25.7865 58.312C25.797 58.3309 25.7999 58.3531 25.7945 58.374C25.788 58.3953 25.7735 58.4133 25.7541 58.4243C25.7347 58.4353 25.7119 58.4385 25.6902 58.4332C25.5873 58.4125 25.481 58.4166 25.38 58.445C25.279 58.4735 25.1862 58.5255 25.1093 58.5968C25.0992 58.6028 25.088 58.6067 25.0763 58.6081C25.0647 58.6096 25.0529 58.6086 25.0416 58.6052Z" fill="#263238"/>
<path d="M23.9869 56.5692L24.1561 56.8935C23.5921 57.1106 23.7331 57.7762 23.8741 58.0723C24.1561 58.7096 23.8318 59.7332 23.3552 60.1591C23.3552 60.1591 23.3242 59.8771 23.0902 59.956C22.8561 60.035 22.9915 61.4957 23.4878 62.1725C23.4878 62.1725 22.7574 61.5719 22.2893 60.0547C21.8578 58.6447 21.7563 57.4688 22.0242 56.9048L23.9869 56.5692Z" fill="#263238"/>
<path d="M21.934 60.1901C22.0299 60.387 22.1637 60.5631 22.3277 60.7082C22.4918 60.8534 22.6828 60.9648 22.8899 61.0361C23.4539 61.2222 23.7359 60.7343 23.6231 60.1901C23.5047 59.7135 23.0789 59.0226 22.4951 59.0762C22.372 59.0899 22.2543 59.1341 22.1526 59.2048C22.051 59.2755 21.9685 59.3705 21.9128 59.4811C21.8571 59.5917 21.8298 59.7145 21.8335 59.8383C21.8372 59.9621 21.8717 60.083 21.934 60.1901Z" fill="#EBB376"/>
<path d="M23.97 63.137C24.7991 63.7179 26.4149 63.9068 27.2074 62.855C27.9998 61.8031 27.746 60.1139 27.746 60.1139C27.655 60.4912 27.4816 60.8437 27.2384 61.1461C26.79 60.6046 26.0286 60.912 26.0286 60.912C25.8682 60.7032 25.6379 60.559 25.38 60.5059C25.0106 60.4693 23.97 60.5313 23.97 60.5313C23.6372 60.3198 23.6231 59.3779 23.6231 59.3779L23.4201 59.5471C23.4201 59.5471 23.1381 62.5532 23.97 63.137Z" fill="#263238"/>
<path d="M26.1865 57.167C26.1865 57.167 28.1605 56.2082 27.9265 55.2494C27.6924 54.2906 27.1171 55.3848 27.1171 55.3848C27.1171 55.3848 27.3822 54.6572 26.8633 54.5388C26.3444 54.4204 26.508 54.8857 26.226 55.1648C25.944 55.444 23.2086 55.0379 22.3259 55.585C21.4433 56.1321 22.1173 58.0243 22.1173 58.0243C22.6386 57.501 23.3012 57.1411 24.024 56.9888C24.7469 56.8365 25.4984 56.8985 26.1865 57.167Z" fill="#263238"/>
<path opacity="0.2" d="M23.97 63.137C24.7991 63.7179 26.4149 63.9068 27.2074 62.855C27.9998 61.8031 27.746 60.1139 27.746 60.1139C27.655 60.4912 27.4816 60.8437 27.2384 61.1461C26.79 60.6046 26.0286 60.912 26.0286 60.912C25.8682 60.7032 25.6379 60.559 25.38 60.5059C25.0106 60.4693 23.97 60.5313 23.97 60.5313C23.6372 60.3198 23.6231 59.3779 23.6231 59.3779L23.4201 59.5471C23.4201 59.5471 23.1381 62.5532 23.97 63.137Z" fill="white"/>
<path d="M26.1132 61.4478C25.9614 61.6509 25.8248 61.8649 25.7043 62.0879L25.5774 62.04C25.0134 61.8341 24.8104 61.5521 24.7652 61.2983C24.747 61.1754 24.7576 61.0499 24.7963 60.9317C24.8168 60.8634 24.8462 60.7979 24.8837 60.7372C25.1803 61.0204 25.5342 61.2367 25.9214 61.3717C26.0371 61.4224 26.1132 61.4478 26.1132 61.4478Z" fill="#263238"/>
<path d="M25.9214 61.3745L25.7945 61.5606C25.2587 61.366 24.9062 61.1573 24.7963 60.9346C24.8168 60.8662 24.8462 60.8008 24.8837 60.74C25.1803 61.0232 25.5342 61.2395 25.9214 61.3745Z" fill="white"/>
<path d="M25.5774 62.04C25.0134 61.8341 24.8104 61.5521 24.7652 61.2983C24.9806 61.3821 25.18 61.5023 25.3546 61.6537C25.4676 61.7558 25.5456 61.891 25.5774 62.04Z" fill="#DE5753"/>
<path d="M27.0805 64.7049L26.9141 66.1657L29.9597 72.6545L29.6579 73.5146L28.6625 73.0549L26.4911 66.4364L24.895 65.3563L26.0568 64.719L27.0805 64.7049Z" fill="#1A2980"/>
<path d="M23.8798 63.7066L25.8961 64.5385L25.9778 63.1736L27.464 63.5402L27.5909 65.6186L26.1611 65.0348L25.5633 66.3659L23.0225 64.6682L23.8798 63.7066Z" fill="#263238"/>
<path opacity="0.2" d="M23.8798 63.7066L25.8961 64.5385L25.9778 63.1736L27.464 63.5402L27.5909 65.6186L26.1611 65.0348L25.5633 66.3659L23.0225 64.6682L23.8798 63.7066Z" fill="white"/>
<path opacity="0.2" d="M22.0496 70.1165C21.8409 69.5675 21.6397 69.0383 21.4461 68.5288L20.9272 67.1724L20.6819 66.5294C20.9639 66.3913 21.683 66.473 21.8832 66.8114C22.6164 68.0917 22.0496 70.1165 22.0496 70.1165Z" fill="black"/>
<path opacity="0.2" d="M25.583 71.549C25.4626 72.1031 25.2187 72.6228 24.8696 73.0695C24.5206 73.5163 24.0752 73.8785 23.5667 74.1293C23.2312 73.2354 22.9012 72.3584 22.5797 71.5096C22.4989 71.2915 22.4171 71.0772 22.3344 70.8666L22.0524 70.1165L25.318 70.531L25.583 71.549Z" fill="black"/>
<path opacity="0.2" d="M33.4621 66.5097C32.0126 66.1995 30.5011 65.7652 30.5011 65.7652L30.3122 64.3355C30.3122 64.3355 32.9771 64.6203 33.4621 66.5097Z" fill="black"/>
<path d="M20.2166 99.828C20.1282 99.831 20.0411 99.8061 19.9675 99.757C19.894 99.7079 19.8377 99.6369 19.8065 99.5541C19.7754 99.4713 19.771 99.3808 19.794 99.2954C19.817 99.21 19.8661 99.1339 19.9346 99.0779C24.6412 95.2145 24.5509 89.16 24.4635 83.3028C24.3958 78.8867 24.3338 74.7131 26.4121 71.8762C29.328 67.8887 41.0564 61.5634 42.9994 61.3829C44.3896 61.2448 86.794 49.46 109.024 43.2475C109.132 43.2172 109.248 43.2311 109.346 43.2861C109.443 43.3411 109.515 43.4327 109.546 43.5408C109.576 43.6489 109.562 43.7646 109.507 43.8624C109.452 43.9602 109.361 44.0322 109.252 44.0625C106.621 44.7985 44.8211 62.0654 43.0783 62.2261C41.4061 62.3812 29.7961 68.6811 27.0946 72.3781C25.1854 74.9866 25.2446 79.022 25.3095 83.2915C25.3941 89.0669 25.4928 95.6149 20.4704 99.735C20.3984 99.7933 20.3092 99.826 20.2166 99.828Z" fill="#263238"/>
<path opacity="0.4" d="M109.267 44.0597L103.469 45.684C87.5215 50.134 44.5306 62.0964 43.0924 62.2289C41.4202 62.384 29.8102 68.6839 27.1087 72.3809C25.1995 74.9894 25.2587 79.0248 25.3236 83.2943C25.4082 89.0697 25.5069 95.6177 20.4845 99.7377C20.4055 99.8033 20.3051 99.8374 20.2025 99.8336C20.1141 99.8366 20.027 99.8117 19.9534 99.7626C19.8799 99.7135 19.8236 99.6425 19.7924 99.5597C19.7613 99.4769 19.7569 99.3864 19.7799 99.301C19.8029 99.2156 19.852 99.1395 19.9205 99.0835C24.6271 95.2201 24.5368 89.1656 24.4494 83.3084C24.3817 78.8923 24.3197 74.7187 26.398 71.8818C29.3139 67.8943 41.0423 61.5691 42.9853 61.3886C44.2937 61.2589 81.8618 50.8305 104.822 44.4235L109.01 43.2532C109.118 43.2229 109.234 43.2367 109.332 43.2917C109.429 43.3467 109.501 43.4384 109.532 43.5464C109.562 43.6545 109.548 43.7702 109.493 43.868C109.438 43.9659 109.346 44.0378 109.238 44.0681L109.267 44.0597Z" fill="white"/>
<path opacity="0.2" d="M109.267 44.0597L103.469 45.684C103.875 45.2072 104.339 44.7829 104.85 44.4206L109.038 43.2503C109.146 43.2201 109.262 43.2339 109.36 43.2889C109.458 43.3439 109.53 43.4356 109.56 43.5436C109.59 43.6517 109.576 43.7674 109.521 43.8652C109.466 43.963 109.375 44.035 109.267 44.0653V44.0597Z" fill="black"/>
<path d="M23.0986 70.7256L25.3151 70.531C25.3151 70.531 26.4742 69.7978 26.6969 69.8458C26.9197 69.8937 29.1278 70.9738 29.1278 70.9738C29.1278 70.9738 28.1267 72.2625 27.9603 72.5304C27.7939 72.7983 25.8002 71.5349 25.8002 71.5349L23.6034 71.769L23.0986 70.7256Z" fill="#EBB376"/>
<path d="M20.2166 65.3168C19.2098 66.0359 16.5872 71.8987 16.8664 72.8039C17.1456 73.7092 25.3067 71.9241 25.3067 71.9241L24.9457 70.3985H20.555L21.5984 68.7516C21.5984 68.7516 22.2413 68.1256 21.8465 66.6704C21.5617 65.6214 20.2166 65.3168 20.2166 65.3168Z" fill="#263238"/>
<path d="M105.245 65.9062L103.573 65.1138C103.573 65.1138 102.727 63.4951 102.479 63.2357C102.231 62.9762 101.032 63.983 101.032 64.1578C101.032 64.3327 101.901 65.9683 102.126 66.067C102.462 66.1163 102.803 66.1163 103.139 66.067L104.729 66.8368L105.245 65.9062Z" fill="#9F5B53"/>
<path d="M109.148 55.8755L109.484 54.677C109.484 54.677 110.014 53.1147 109.957 52.7537C109.854 52.3265 109.72 51.9072 109.557 51.4988C109.557 51.4988 108.091 53.2839 108.091 53.5067C108.091 53.7295 108.672 54.5388 108.672 54.5388L108.39 55.8755H109.148Z" fill="#9F5B53"/>
<path d="M110.437 64.8036C110.437 64.8036 109.173 63.2329 108.801 61.7721C108.429 60.3113 109.554 55.5681 109.554 55.5681L108.367 55.2523C108.367 55.2523 106.957 60.1055 106.909 61.8764C106.861 63.6474 109.495 68.8447 109.495 68.8447L110.437 64.8036Z" fill="#1A2980"/>
<path opacity="0.2" d="M109.673 68.0635L109.492 68.8334C109.492 68.8334 108.584 67.0427 107.842 65.204C108.614 65.7585 109.196 66.5374 109.509 67.4347C109.581 67.6395 109.635 67.8498 109.673 68.0635Z" fill="black"/>
<path d="M117.126 68.244C117.11 68.5717 117.07 68.8978 117.007 69.2197C116.878 69.9247 116.658 70.7566 116.407 71.6731C116.271 72.1553 116.125 72.6714 115.995 73.2157C115.366 75.6606 115.025 76.6335 114.56 79.7552L105.634 77.6374C106.117 74.9651 106.852 72.3448 107.831 69.8119C108.091 69.1379 108.395 68.464 108.703 67.7984C109.195 66.755 109.776 65.755 110.437 64.8092C110.437 64.8092 111.881 66.129 116.415 66.9214C116.965 67.006 117.154 67.4854 117.126 68.244Z" fill="#1A2980"/>
<path opacity="0.2" d="M116.004 67.226C116.004 67.508 117.072 68.8503 117.007 69.2C116.886 69.2818 116.742 69.372 116.579 69.482C113.559 71.2389 109.596 70.3477 107.837 69.8035C108.096 69.1295 108.683 67.8915 108.987 67.226L111.105 67.6969C111.105 67.6969 114.568 66.9073 116.004 67.226Z" fill="black"/>
<path d="M112.374 65.3422C112.698 65.2181 115.361 65.8808 115.163 65.9372C114.966 65.9936 113.973 69.0393 112.583 68.8108C111.193 68.5824 111.218 65.7821 112.374 65.3422Z" fill="#1A2980"/>
<path d="M100.321 115.242L98.6464 115.606L97.6679 111.754L99.3458 111.39L100.321 115.242Z" fill="#9F5B53"/>
<path d="M98.2291 114.907H100.313C100.347 114.907 100.38 114.918 100.406 114.94C100.432 114.962 100.45 114.992 100.457 115.025L100.795 116.551C100.803 116.583 100.804 116.617 100.798 116.65C100.792 116.683 100.78 116.714 100.761 116.742C100.743 116.771 100.72 116.795 100.692 116.814C100.665 116.833 100.633 116.846 100.601 116.852H100.544C99.8703 116.852 99.3796 116.799 98.5336 116.799C98.0119 116.799 96.4384 116.852 95.7136 116.852C94.9889 116.852 94.9015 116.142 95.1947 116.077C96.5173 115.795 97.5128 115.389 97.9358 115.011C97.9753 114.975 98.0216 114.947 98.0719 114.929C98.1223 114.911 98.1757 114.904 98.2291 114.907Z" fill="#263238"/>
<path d="M97.6622 115.208C97.5456 115.217 97.4294 115.186 97.3323 115.121C97.3007 115.095 97.2763 115.061 97.2615 115.023C97.2466 114.985 97.2419 114.944 97.2477 114.904C97.2464 114.88 97.2521 114.856 97.2641 114.836C97.2762 114.815 97.294 114.799 97.3154 114.788C97.5071 114.689 98.0599 115.031 98.1219 115.07C98.129 115.074 98.1348 115.079 98.1384 115.087C98.1419 115.094 98.1431 115.102 98.1416 115.11C98.1407 115.118 98.1371 115.125 98.1316 115.131C98.126 115.138 98.1187 115.142 98.1106 115.143C97.9641 115.182 97.8137 115.204 97.6622 115.208ZM97.4056 114.853C97.3892 114.847 97.3713 114.847 97.3549 114.853C97.3549 114.853 97.3295 114.867 97.3267 114.901C97.3237 114.928 97.3273 114.955 97.3372 114.98C97.347 115.005 97.3627 115.027 97.3831 115.045C97.5747 115.132 97.7926 115.143 97.9922 115.076C97.8129 114.964 97.6137 114.889 97.4056 114.853Z" fill="#1A2980"/>
<path d="M98.0993 115.146H98.0796C97.9048 115.05 97.5607 114.672 97.5946 114.492C97.601 114.462 97.6177 114.434 97.6418 114.415C97.666 114.395 97.6961 114.385 97.7271 114.385C97.7579 114.381 97.7893 114.383 97.819 114.393C97.8487 114.402 97.8761 114.418 97.8991 114.438C98.0965 114.599 98.1388 115.093 98.1416 115.115C98.1421 115.123 98.1405 115.13 98.137 115.136C98.1335 115.143 98.1283 115.148 98.1219 115.152C98.118 115.153 98.1138 115.153 98.1098 115.152C98.1059 115.151 98.1022 115.149 98.0993 115.146ZM97.7553 114.45H97.7356C97.682 114.45 97.6792 114.481 97.6763 114.492C97.6538 114.605 97.8737 114.89 98.0486 115.022C98.0389 114.83 97.9711 114.645 97.854 114.492C97.8413 114.479 97.826 114.468 97.809 114.461C97.792 114.453 97.7738 114.45 97.7553 114.45Z" fill="#1A2980"/>
<path d="M114.633 79.9893C114.633 79.9893 113.186 86.887 109.802 88.7313C109.414 88.9497 108.989 89.0941 108.547 89.1571C108.547 89.1571 105.116 90.5671 102.149 91.901C100.344 92.716 98.7113 93.5112 98.1275 93.9568C96.5822 95.1327 100.367 113.491 100.367 113.491L97.7948 113.519C97.7948 113.519 92.3832 97.2646 93.2828 92.998C94.1824 88.7313 103.894 82.2002 103.894 82.2002L105.389 78.0886L114.633 79.9893Z" fill="#263238"/>
<path opacity="0.2" d="M109.802 88.7398C109.414 88.9582 108.988 89.1026 108.547 89.1656C108.547 89.1656 105.115 90.5756 102.149 91.9095C104.058 88.3986 107.462 86.1172 107.462 86.1172L109.802 88.7398Z" fill="black"/>
<path d="M121.883 115.242L120.208 115.606L119.23 111.754L120.907 111.39L121.883 115.242Z" fill="#9F5B53"/>
<path d="M119.791 114.907H121.875C121.909 114.907 121.942 114.918 121.968 114.94C121.994 114.962 122.012 114.992 122.019 115.025L122.357 116.551C122.364 116.583 122.365 116.617 122.359 116.65C122.354 116.683 122.341 116.714 122.323 116.742C122.305 116.771 122.282 116.795 122.254 116.814C122.226 116.833 122.195 116.846 122.162 116.852H122.106C121.432 116.852 120.941 116.799 120.095 116.799C119.574 116.799 118 116.852 117.275 116.852C116.551 116.852 116.463 116.142 116.756 116.077C118.079 115.795 119.075 115.389 119.498 115.011C119.537 114.975 119.583 114.947 119.634 114.929C119.684 114.911 119.737 114.904 119.791 114.907Z" fill="#263238"/>
<path d="M119.224 115.208C119.107 115.217 118.991 115.186 118.894 115.121C118.862 115.095 118.838 115.061 118.823 115.023C118.808 114.985 118.804 114.944 118.809 114.904C118.808 114.88 118.814 114.856 118.826 114.836C118.838 114.815 118.856 114.799 118.877 114.788C119.069 114.689 119.622 115.031 119.684 115.07C119.691 115.074 119.697 115.079 119.7 115.087C119.704 115.094 119.705 115.102 119.703 115.11C119.702 115.118 119.699 115.125 119.693 115.131C119.688 115.138 119.68 115.142 119.672 115.143C119.526 115.182 119.375 115.204 119.224 115.208ZM118.967 114.853C118.951 114.847 118.933 114.847 118.917 114.853C118.917 114.853 118.891 114.867 118.888 114.901C118.885 114.928 118.889 114.955 118.899 114.98C118.909 115.005 118.924 115.027 118.945 115.045C119.136 115.132 119.354 115.143 119.554 115.076C119.375 114.964 119.175 114.889 118.967 114.853Z" fill="#1A2980"/>
<path d="M119.661 115.146H119.641C119.466 115.05 119.122 114.672 119.156 114.492C119.163 114.462 119.179 114.434 119.204 114.415C119.228 114.395 119.258 114.385 119.289 114.385C119.32 114.381 119.351 114.383 119.381 114.393C119.41 114.402 119.438 114.418 119.461 114.438C119.658 114.599 119.701 115.093 119.703 115.115C119.704 115.123 119.702 115.13 119.699 115.136C119.695 115.143 119.69 115.148 119.684 115.152C119.68 115.153 119.676 115.153 119.672 115.152C119.668 115.151 119.664 115.149 119.661 115.146ZM119.317 114.45H119.286C119.232 114.45 119.23 114.481 119.227 114.492C119.204 114.605 119.424 114.89 119.599 115.022C119.588 114.827 119.517 114.64 119.396 114.486C119.374 114.466 119.347 114.453 119.317 114.45Z" fill="#1A2980"/>
<path d="M115.211 66.803C114.791 67.085 112.854 66.9778 112.854 66.9778L111.954 67.962L111.867 66.3349C111.867 66.3349 111.26 66.0839 111.427 65.909C111.638 65.9248 111.849 65.8982 112.05 65.8309C112.25 65.7635 112.435 65.6569 112.594 65.5171C112.986 65.1335 113.062 64.516 113.057 63.904C113.057 63.904 113.057 63.8871 113.057 63.8815L114.712 63.0355L115.857 62.4461C115.318 63.6079 114.548 65.7878 115.211 66.803Z" fill="#9F5B53"/>
<path opacity="0.2" d="M115.259 63.4218C114.712 64.8064 113.285 65.424 112.583 65.5142C112.975 65.1307 113.051 64.5131 113.045 63.9012C113.047 63.8928 113.047 63.8842 113.045 63.8758L114.701 63.0298C114.703 63.2554 115.338 63.2103 115.259 63.4218Z" fill="black"/>
<path d="M116.311 63.3654C116.311 63.3654 117.385 63.9294 117.743 63.2554C118.102 62.5814 117.591 62.542 118.119 62.2994C118.646 62.0569 119.396 61.8877 119.224 61.3773C119.052 60.8669 118.519 60.8133 119.111 60.2493C119.703 59.6853 119.833 58.8901 118.948 58.735C118.062 58.5799 118.401 57.889 118.355 57.607C118.31 57.325 117.814 57.1276 117.275 57.2404C116.737 57.3532 116.511 56.5551 116.178 56.3069C115.846 56.0588 115.386 56.3633 115.265 56.6989C115.143 57.0345 114.825 56.5889 114.351 56.5325C113.877 56.4761 113.987 56.9753 113.841 57.4406C113.694 57.9059 113.403 57.6041 113.065 57.9877C112.727 58.3712 112.696 60.9881 116.311 63.3654Z" fill="#263238"/>
<path d="M116.779 61.758C115.97 63.027 115.51 63.8645 114.602 64.2763C114.48 64.3326 114.353 64.3798 114.224 64.4173C112.459 64.9361 111.004 63.2357 111.469 61.5521C111.557 61.2483 111.671 60.9521 111.807 60.6667C112.439 59.3441 113.654 57.9905 115.107 58.1681C115.41 58.2028 115.703 58.2969 115.97 58.4452C116.237 58.5934 116.472 58.7928 116.662 59.0319C116.851 59.2711 116.992 59.5453 117.075 59.8389C117.159 60.1325 117.184 60.4396 117.148 60.7428C117.106 61.1053 116.979 61.4529 116.779 61.758Z" fill="#9F5B53"/>
<path d="M114.295 60.912C114.235 61.0389 114.108 61.0953 114.03 61.053C113.951 61.0107 113.942 60.8725 114.007 60.7541C114.072 60.6356 114.196 60.5708 114.272 60.6131C114.348 60.6554 114.362 60.7964 114.295 60.912Z" fill="#263238"/>
<path d="M112.927 60.1591C112.909 60.2121 112.872 60.2562 112.822 60.282C112.773 60.3078 112.715 60.3133 112.662 60.2972C112.586 60.2521 112.574 60.1196 112.642 59.9983C112.71 59.8771 112.828 59.815 112.907 59.8601C112.986 59.9053 112.992 60.0434 112.927 60.1591Z" fill="#263238"/>
<path d="M113.33 60.4608C112.98 60.7489 112.592 60.988 112.177 61.1714C112.226 61.277 112.299 61.3704 112.388 61.4449C112.478 61.5195 112.583 61.5734 112.696 61.6029L113.33 60.4608Z" fill="#892B29"/>
<path d="M115.112 60.5962C115.098 60.5984 115.083 60.5967 115.069 60.5913C115.055 60.5858 115.043 60.5768 115.033 60.5651C114.976 60.4809 114.9 60.4113 114.811 60.3623C114.722 60.3133 114.622 60.2862 114.52 60.2832C114.508 60.2854 114.496 60.285 114.485 60.2819C114.473 60.2789 114.462 60.2734 114.453 60.2657C114.444 60.2581 114.436 60.2484 114.431 60.2376C114.426 60.2267 114.423 60.2148 114.423 60.2028C114.423 60.1908 114.426 60.1789 114.431 60.168C114.436 60.1571 114.444 60.1475 114.453 60.1398C114.462 60.1322 114.473 60.1266 114.485 60.1236C114.496 60.1206 114.508 60.1202 114.52 60.1224C114.649 60.1233 114.775 60.1553 114.889 60.2157C115.002 60.2761 115.099 60.3631 115.172 60.4693C115.178 60.4775 115.183 60.487 115.186 60.4972C115.189 60.5074 115.19 60.5181 115.189 60.5287C115.187 60.5392 115.184 60.5493 115.178 60.5585C115.173 60.5677 115.166 60.5757 115.158 60.5821C115.144 60.5903 115.128 60.5952 115.112 60.5962Z" fill="#263238"/>
<path d="M113.026 62.3587C113.215 62.4202 113.416 62.4351 113.613 62.4023C113.809 62.3694 113.995 62.2896 114.154 62.1697C114.161 62.1615 114.165 62.151 114.165 62.1401C114.165 62.1292 114.161 62.1187 114.154 62.1105C114.146 62.1028 114.135 62.0984 114.124 62.0984C114.113 62.0984 114.102 62.1028 114.094 62.1105C113.944 62.2187 113.77 62.2904 113.587 62.3197C113.404 62.3491 113.217 62.3354 113.04 62.2797C113.035 62.2775 113.029 62.2764 113.024 62.2765C113.018 62.2766 113.013 62.2779 113.008 62.2804C113.003 62.2828 112.999 62.2863 112.996 62.2905C112.992 62.2948 112.99 62.2998 112.989 62.3051C112.987 62.31 112.986 62.3154 112.986 62.3208C112.986 62.3263 112.987 62.3316 112.99 62.3365C112.992 62.3413 112.996 62.3456 113 62.3489C113.004 62.3523 113.009 62.3546 113.014 62.3558L113.026 62.3587Z" fill="#263238"/>
<path d="M112.8 58.9888C112.796 58.9731 112.796 58.9565 112.8 58.9408C112.809 58.9216 112.826 58.9067 112.846 58.8993C112.866 58.8919 112.888 58.8926 112.907 58.9013C113.025 58.9543 113.129 59.035 113.21 59.1366C113.29 59.2383 113.345 59.3578 113.37 59.4851C113.372 59.5064 113.366 59.5277 113.353 59.5446C113.34 59.5615 113.32 59.5725 113.299 59.5753C113.278 59.5777 113.256 59.5717 113.24 59.5585C113.223 59.5453 113.212 59.5261 113.209 59.5048C113.187 59.4053 113.141 59.3124 113.077 59.2335C113.012 59.1546 112.93 59.0921 112.837 59.0508C112.827 59.0435 112.818 59.0343 112.812 59.0236C112.806 59.0129 112.802 59.0011 112.8 58.9888Z" fill="#263238"/>
<path d="M113.962 58.2866C114.374 58.3373 114.577 58.8506 114.577 58.8506C115.074 59.0325 115.556 59.2571 116.015 59.5217C116.155 59.636 116.26 59.787 116.319 59.958C116.378 60.1289 116.388 60.3128 116.348 60.489C116.333 60.6244 116.001 60.7484 116.001 60.7484C116.001 60.7484 115.392 62.1866 115.225 62.5843L115.31 63.9125C116.429 63.2046 117.326 62.1948 117.896 60.9994C118.857 58.9972 114.845 57.2347 114.845 57.2347L113.962 58.2866Z" fill="#263238"/>
<path d="M116.536 63.7658C116.162 63.9712 115.721 64.0199 115.31 63.9012C114.766 63.7376 114.797 63.1793 115.2 62.8211C115.561 62.5109 116.286 62.2036 116.706 62.5645C116.798 62.6431 116.868 62.7435 116.911 62.8567C116.954 62.9698 116.968 63.0918 116.951 63.2116C116.934 63.3314 116.887 63.4449 116.815 63.5418C116.742 63.6387 116.647 63.7157 116.536 63.7658Z" fill="#9F5B53"/>
<path d="M115.163 65.9372L112.921 66.583L111.954 67.8943L112.216 66.2897C112.216 66.2897 111.977 65.9203 112.374 65.3422L111.009 65.6242L110.186 67.0004L111.788 66.6253L111.898 68.2243L112.831 67.1245L113.595 68.3314L115.868 66.8904L115.163 65.9372Z" fill="#1A2980"/>
<path opacity="0.2" d="M115.163 65.9372L112.921 66.583L111.954 67.8943L112.216 66.2897C112.216 66.2897 111.977 65.9203 112.374 65.3422L111.009 65.6242L110.186 67.0004L111.788 66.6253L111.898 68.2243L112.831 67.1245L113.595 68.3314L115.868 66.8904L115.163 65.9372Z" fill="black"/>
<path d="M105.753 76.704L105.403 78.0971L114.63 79.9893L114.768 78.4411L105.753 76.704Z" fill="black"/>
<path d="M109.873 77.4344C109.8 77.33 107.747 76.8873 107.552 77.034C107.552 77.034 107.154 78.4073 107.222 78.5511C107.29 78.6949 109.286 78.9741 109.478 79.0136C109.67 79.0531 109.946 77.55 109.873 77.4344ZM109.309 78.8444C109.157 78.8134 107.515 78.585 107.459 78.4665C107.403 78.3481 107.741 77.2201 107.741 77.2201C107.902 77.0988 109.588 77.4626 109.647 77.5472C109.706 77.6318 109.461 78.8613 109.309 78.8303V78.8444Z" fill="white"/>
<path d="M109.388 77.9025L108.979 77.8179C108.942 77.8108 108.903 77.8178 108.871 77.8376C108.838 77.8575 108.815 77.8886 108.804 77.9251C108.798 77.9455 108.797 77.9669 108.8 77.9879C108.802 78.0089 108.81 78.0291 108.821 78.0472C108.832 78.0652 108.847 78.0807 108.864 78.0927C108.882 78.1047 108.902 78.1129 108.923 78.1168L109.331 78.1958C109.371 78.2036 109.412 78.1954 109.446 78.173C109.479 78.1505 109.503 78.1156 109.51 78.0759C109.518 78.0363 109.51 77.9952 109.488 77.9616C109.465 77.928 109.43 77.9047 109.391 77.8969L109.388 77.9025Z" fill="white"/>
<path d="M114.63 79.9893C114.63 79.9893 114.808 90.4233 114.515 93.4689C114.221 96.5145 121.824 113.184 121.824 113.184H119.362C119.362 113.184 111.903 100.979 110.194 97.2223C108.485 93.4661 107.222 84.5041 107.222 84.5041L114.63 79.9893Z" fill="#263238"/>
<path d="M117.157 67.5108C116.776 66.6479 110.93 67.9253 110.403 67.7759C109.876 67.6264 104.388 65.3281 104.388 65.3281L103.911 66.552C103.911 66.552 108.832 69.372 109.91 69.8176C110.987 70.2631 115.293 70.0488 116.396 69.5722C116.584 69.4909 116.754 69.372 116.896 69.2229C117.037 69.0738 117.147 68.8975 117.218 68.7047C117.289 68.5119 117.321 68.3067 117.31 68.1015C117.3 67.8963 117.247 67.6953 117.157 67.5108Z" fill="#1A2980"/>
<path d="M116.122 45.1003L114.351 33.8203L105.022 40.4162L108.124 41.7304C105.13 48.5942 95.4147 68.7037 78.6977 83.5312C57.3532 102.468 27.4781 111.785 27.1792 111.875L28.8317 117.27C30.1007 116.881 60.1562 107.518 82.4512 87.7415C100.217 71.9833 110.206 51.1999 113.341 43.9243L116.122 45.1003Z" fill="#1A2980"/>
<path opacity="0.4" d="M114.43 43.1263L114.351 33.8203L105.022 40.4162L108.124 41.7304C105.13 48.5942 95.4147 68.7037 78.6977 83.5312C57.3532 102.468 27.4781 111.785 27.1792 111.875L27.7037 115.296C28.9727 114.907 59.0282 106.39 81.3232 86.6135C99.0891 70.8553 108.514 49.7899 111.649 42.5143L114.43 43.1263Z" fill="white"/>
<path d="M112.8 45.5768C112.756 45.5772 112.712 45.5705 112.67 45.5571L107.253 43.8059C107.197 43.7914 107.145 43.7657 107.099 43.7303C107.054 43.695 107.016 43.6507 106.988 43.6001C106.961 43.5496 106.944 43.494 106.938 43.4366C106.933 43.3792 106.939 43.3213 106.957 43.2664C106.974 43.2116 107.003 43.1609 107.041 43.1176C107.079 43.0742 107.125 43.0391 107.178 43.0144C107.23 42.9896 107.286 42.9758 107.344 42.9737C107.401 42.9716 107.459 42.9813 107.512 43.0022L112.93 44.7506C113.026 44.7811 113.108 44.8452 113.162 44.9312C113.215 45.0173 113.236 45.1195 113.22 45.2194C113.204 45.3194 113.153 45.4104 113.076 45.476C112.999 45.5415 112.901 45.5773 112.8 45.5768Z" fill="#263238"/>
<path opacity="0.4" d="M112.8 45.5768C112.756 45.5772 112.712 45.5705 112.67 45.5571L107.253 43.8059C107.197 43.7914 107.145 43.7657 107.099 43.7303C107.054 43.695 107.016 43.6507 106.988 43.6001C106.961 43.5496 106.944 43.494 106.938 43.4366C106.933 43.3792 106.939 43.3213 106.957 43.2664C106.974 43.2116 107.003 43.1609 107.041 43.1176C107.079 43.0742 107.125 43.0391 107.178 43.0144C107.23 42.9896 107.286 42.9758 107.344 42.9737C107.401 42.9716 107.459 42.9813 107.512 43.0022L112.93 44.7506C113.026 44.7811 113.108 44.8452 113.162 44.9312C113.215 45.0173 113.236 45.1195 113.22 45.2194C113.204 45.3194 113.153 45.4104 113.076 45.476C112.999 45.5415 112.901 45.5773 112.8 45.5768Z" fill="white"/>
<path d="M47.9203 98.3672C47.8081 98.3672 47.7005 98.3227 47.6212 98.2433C47.5418 98.164 47.4973 98.0564 47.4973 97.9442C47.4973 84.4816 51.4086 82.7162 52.1418 82.4991L64.578 73.7994L64.6062 73.7825L112.383 45.4528C112.479 45.3978 112.593 45.383 112.7 45.4114C112.808 45.4397 112.899 45.5091 112.956 45.6045C113.012 45.6999 113.029 45.8137 113.003 45.9214C112.976 46.0291 112.909 46.1221 112.814 46.1803L65.0602 74.5016L52.5648 83.2436C52.5116 83.2806 52.451 83.3056 52.3871 83.3169C52.3561 83.3169 48.3433 84.3039 48.3433 97.9527C48.341 98.0634 48.2955 98.1688 48.2164 98.2464C48.1373 98.3239 48.031 98.3673 47.9203 98.3672Z" fill="#263238"/>
<path opacity="0.4" d="M47.9203 98.3672C47.8081 98.3672 47.7005 98.3227 47.6212 98.2433C47.5418 98.164 47.4973 98.0564 47.4973 97.9442C47.4973 84.4816 51.4086 82.7162 52.1418 82.4991L64.578 73.7994L64.6062 73.7825L112.383 45.4528C112.479 45.3978 112.593 45.383 112.7 45.4114C112.808 45.4397 112.899 45.5091 112.956 45.6045C113.012 45.6999 113.029 45.8137 113.003 45.9214C112.976 46.0291 112.909 46.1221 112.814 46.1803L65.0602 74.5016L52.5648 83.2436C52.5116 83.2806 52.451 83.3056 52.3871 83.3169C52.3561 83.3169 48.3433 84.3039 48.3433 97.9527C48.341 98.0634 48.2955 98.1688 48.2164 98.2464C48.1373 98.3239 48.031 98.3673 47.9203 98.3672Z" fill="white"/>
<path d="M51.1689 84.397C51.1689 84.397 48.9947 85.807 47.3422 86.2328C46.9343 86.3707 46.4966 86.395 46.076 86.3033C44.8465 85.9141 45.5768 83.5341 46.31 82.031C46.4285 81.7857 46.5469 81.5657 46.6569 81.3796L48.8057 82.7078C48.8057 82.7078 47.5029 84.5662 47.6524 84.6818C47.8018 84.7974 49.8097 83.6779 49.9084 83.6412C50.0071 83.6046 51.1689 84.397 51.1689 84.397Z" fill="#1A2980"/>
<path opacity="0.2" d="M51.1689 84.397C51.1689 84.397 48.9947 85.807 47.3422 86.2328C46.8834 84.8629 46.5382 83.4575 46.31 82.031C46.4285 81.7856 46.5469 81.5657 46.6569 81.3796L48.8057 82.7078C48.8057 82.7078 47.5029 84.5662 47.6524 84.6818C47.8018 84.7974 49.8097 83.6779 49.9084 83.6412C50.0071 83.6045 51.1689 84.397 51.1689 84.397Z" fill="black"/>
<path d="M61.758 76.2133L63.0326 75.0853C63.1346 74.7633 63.2747 74.4547 63.45 74.166C63.5882 74.0504 65.909 73.8699 65.909 73.8699C65.909 73.8699 65.9542 75.0966 65.7709 75.4153C65.5876 75.7339 63.6925 75.8721 63.6925 75.8721L62.6773 76.8506L61.758 76.2133Z" fill="#EEC1BB"/>
<path d="M68.5486 102.944C68.1848 108.178 67.2119 115.606 67.2119 115.606L65.9598 115.888C65.9598 115.888 64.8036 109.67 64.9869 103.9C65.0197 102.642 65.1384 101.388 65.3422 100.147C65.3422 100.147 61.0051 98.48 57.9933 96.9883C56.5551 96.2776 55.4186 95.6036 55.2015 95.1694C54.5303 93.8299 57.5816 90.6827 57.5816 90.6827C57.6775 90.7589 59.5189 91.932 61.6621 93.3223C64.5075 95.1665 67.883 97.3943 68.4301 97.9499C68.7572 98.2685 68.729 100.333 68.5486 102.944Z" fill="#EEC1BB"/>
<path opacity="0.2" d="M68.5486 102.944C67.3912 103.364 66.1995 103.682 64.9869 103.894C65.0197 102.637 65.1384 101.383 65.3422 100.141C65.3422 100.141 61.0051 98.4744 57.9933 96.9826L61.6593 93.3166C64.5047 95.1609 67.8802 97.3887 68.4273 97.9442C68.7572 98.2685 68.729 100.333 68.5486 102.944Z" fill="black"/>
<path d="M58.7857 89.8085C58.7857 89.8085 70.8187 96.726 72.4543 98.2883C74.0899 99.8506 83.5312 114.45 83.5312 114.45L82.736 115.208C82.736 115.208 74.8964 108.48 71.769 102.084L58.797 95.8151L58.7857 89.8085Z" fill="#EEC1BB"/>
<path d="M49.632 77.0368C49.6514 77.0502 49.6722 77.0615 49.694 77.0706C49.9895 77.238 50.3155 77.3445 50.6528 77.3836C51.6342 77.471 52.2659 77.2511 52.6268 76.7604C53.1288 76.0328 53.1175 74.871 52.8412 73.5033C52.7497 72.956 52.5717 72.4268 52.3138 71.9354C52.3138 71.9354 52.3138 71.9156 52.3138 71.9128L52.28 71.8564C52.123 71.5813 51.8996 71.3499 51.6301 71.1834C51.3606 71.0169 51.0537 70.9206 50.7374 70.9033C50.462 70.8805 50.1849 70.8881 49.9112 70.9258C47.2322 71.2727 47.376 75.7903 49.632 77.0368Z" fill="#EEC1BB"/>
<path opacity="0.2" d="M49.7053 77.0706C50.0014 77.2287 50.3268 77.3247 50.6613 77.3526C51.6398 77.44 52.2687 77.1862 52.6353 76.6927C52.0868 76.9113 51.4822 76.9459 50.9123 76.7914C50.7031 76.743 50.4857 76.743 50.2765 76.7914C50.0673 76.8397 49.872 76.9353 49.7053 77.0706Z" fill="black"/>
<path d="M49.5248 79.2758C49.2908 80.0316 50.258 80.432 50.258 80.432C51.95 79.868 52.3307 79.0418 52.3307 79.0418C51.0335 78.1958 51.6032 76.2387 51.6032 76.2387L51.3212 76.3515L49.3472 76.5602C49.3472 76.5602 49.7956 77.6402 49.8463 77.8828C50.0945 79.1546 49.5248 79.2758 49.5248 79.2758Z" fill="#EBB376"/>
<path d="M52.3307 71.91C52.3307 71.91 52.7425 73.774 51.0702 74.8315C51.0702 74.8315 50.5767 76.8986 49.4515 77.0875C47.9174 77.3413 46.2565 75.3419 46.4764 73.0352C46.7641 70.0516 51.1125 69.2028 52.3307 71.91Z" fill="#263238"/>
<path d="M51.888 74.166C51.8457 73.884 51.5411 73.4102 51.0928 73.5428C50.6444 73.6753 50.5288 74.8795 51.7301 74.9782C51.9134 75.012 51.9867 74.7864 51.888 74.166Z" fill="#EBB376"/>
<path d="M83.0067 113.553L81.7095 114.551C81.6829 114.573 81.6643 114.602 81.6567 114.636C81.649 114.669 81.6527 114.704 81.6672 114.735L82.3271 116.144C82.3413 116.174 82.3612 116.201 82.3858 116.223C82.4104 116.245 82.4391 116.262 82.4702 116.273C82.5014 116.284 82.5345 116.289 82.5675 116.287C82.6005 116.286 82.6329 116.277 82.6627 116.263C82.6795 116.255 82.6956 116.246 82.7106 116.235C83.2351 115.815 83.252 115.75 83.9204 115.236C84.3293 114.921 85.6124 114.007 86.1764 113.57C86.7404 113.133 86.385 112.515 86.1143 112.642C84.8961 113.206 83.8583 113.508 83.2943 113.466C83.1909 113.458 83.0883 113.489 83.0067 113.553Z" fill="#263238"/>
<path d="M83.2887 113.528C83.2815 113.531 83.2734 113.532 83.2655 113.531C83.2576 113.53 83.2502 113.526 83.2444 113.521C83.2386 113.515 83.2346 113.508 83.2329 113.5C83.2313 113.492 83.232 113.484 83.2351 113.477C83.2605 113.409 83.4917 112.803 83.7004 112.766C83.7235 112.761 83.7476 112.763 83.7696 112.772C83.7917 112.78 83.8107 112.795 83.8245 112.814C83.8533 112.843 83.8743 112.878 83.8857 112.917C83.897 112.956 83.8983 112.997 83.8894 113.037C83.8558 113.152 83.783 113.252 83.6835 113.319C83.5604 113.403 83.4279 113.473 83.2887 113.528ZM83.3479 113.412C83.547 113.344 83.7125 113.203 83.8104 113.017C83.8159 112.99 83.8147 112.963 83.8068 112.937C83.799 112.911 83.7847 112.887 83.7653 112.868C83.7427 112.845 83.723 112.839 83.7145 112.848C83.6969 112.851 83.6804 112.859 83.6666 112.871C83.5269 113.029 83.4188 113.213 83.3479 113.412Z" fill="#1A2980"/>
<path d="M83.2859 113.542C83.2789 113.542 83.2719 113.54 83.2656 113.538C83.2592 113.535 83.2536 113.53 83.2492 113.525C83.2492 113.505 82.9672 113.09 83.0264 112.842C83.0332 112.812 83.0458 112.784 83.0638 112.758C83.0817 112.733 83.1045 112.712 83.1308 112.696C83.1548 112.676 83.1846 112.666 83.2154 112.666C83.2461 112.666 83.276 112.676 83.3 112.696C83.4382 112.817 83.3959 113.322 83.3141 113.505L83.3 113.519L83.2859 113.542ZM83.0969 112.848C83.0962 113.043 83.1542 113.234 83.2633 113.395C83.3307 113.184 83.3207 112.956 83.2351 112.752C83.2351 112.752 83.2041 112.721 83.1646 112.752H83.1477C83.1198 112.777 83.1018 112.811 83.0969 112.848Z" fill="#1A2980"/>
<path d="M67.4318 114.774L65.7934 114.805C65.7598 114.807 65.7278 114.82 65.7023 114.842C65.6768 114.864 65.6592 114.893 65.6524 114.926L65.345 116.452C65.3359 116.516 65.3516 116.58 65.3888 116.633C65.4261 116.685 65.4821 116.722 65.5453 116.734C65.564 116.737 65.583 116.737 65.6017 116.734C66.27 116.709 66.3236 116.666 67.1668 116.649C67.6856 116.649 69.2507 116.663 69.967 116.649C70.6833 116.635 70.7623 115.925 70.469 115.865C69.1464 115.606 68.1509 115.228 67.7223 114.859C67.6399 114.794 67.5359 114.764 67.4318 114.774Z" fill="#263238"/>
<path d="M67.5785 114.954C67.5702 114.953 67.5627 114.949 67.557 114.943C67.5514 114.937 67.548 114.929 67.5475 114.921C67.5453 114.913 67.5458 114.905 67.5489 114.898C67.5519 114.891 67.5574 114.885 67.5644 114.881C67.6236 114.842 68.1679 114.492 68.3596 114.585C68.3814 114.595 68.3999 114.611 68.4129 114.631C68.4259 114.651 68.4329 114.674 68.4329 114.698C68.4385 114.738 68.434 114.779 68.4197 114.817C68.4054 114.855 68.3819 114.889 68.3512 114.915C68.2564 114.983 68.1406 115.016 68.024 115.008C67.874 115.007 67.7245 114.989 67.5785 114.954ZM67.6941 114.895C67.8942 114.959 68.1112 114.944 68.3004 114.853C68.3203 114.835 68.3354 114.812 68.3443 114.786C68.3531 114.76 68.3555 114.733 68.3512 114.706C68.3512 114.675 68.3342 114.661 68.3258 114.661C68.3081 114.657 68.2898 114.657 68.2722 114.661C68.0665 114.702 67.8704 114.782 67.6941 114.895Z" fill="#1A2980"/>
<path d="M67.5672 114.963C67.5606 114.96 67.5551 114.954 67.5516 114.948C67.5481 114.941 67.5466 114.934 67.5475 114.926C67.5475 114.904 67.5785 114.413 67.7731 114.247C67.7961 114.226 67.8235 114.21 67.8532 114.201C67.8829 114.192 67.9142 114.189 67.9451 114.193C67.9759 114.192 68.0059 114.202 68.0301 114.221C68.0543 114.24 68.0711 114.267 68.0776 114.297C68.1143 114.475 67.7956 114.861 67.6067 114.957H67.5869C67.5813 114.962 67.5743 114.964 67.5672 114.963ZM67.8266 114.295C67.7104 114.451 67.6436 114.639 67.6349 114.833C67.8097 114.698 68.0212 114.407 67.9958 114.297C67.9958 114.297 67.9958 114.258 67.9366 114.258H67.9169C67.8833 114.259 67.8511 114.272 67.8266 114.295Z" fill="#1A2980"/>
<path d="M58.4501 87.9558L52.4802 90.4628C50.0127 84.3293 46.6569 81.3796 46.6569 81.3796C49.0483 78.5116 53.4644 77.1919 53.4644 77.1919C54.1167 77.7227 54.6794 78.3549 55.131 79.0643C55.6289 79.835 56.0627 80.6452 56.4282 81.4867C57.3152 83.5706 57.9925 85.7377 58.4501 87.9558Z" fill="#1A2980"/>
<path d="M52.2743 73.1565C52.2743 73.1565 54.1496 71.2445 52.3533 69.9839C50.557 68.7234 48.7747 70.4069 48.7747 70.4069C48.7747 70.4069 44.5081 71.4814 45.4443 74.3155C46.3805 77.1496 46.9784 77.3836 45.6389 78.8557C44.2994 80.3277 42.9345 82.4991 44.3332 83.8668C45.7319 85.2345 50.5541 83.7681 52.0008 81.67C53.4475 79.572 50.8136 75.1248 52.2743 73.1565Z" fill="#263238"/>
<path d="M58.0159 86.1172L51.5299 88.3421C51.5299 88.3421 52.9652 95.4063 54.0058 96.5878C55.0464 97.7694 62.0033 103.24 62.9875 102.809C63.9717 102.377 70.5 96.5878 70.5 96.5878L59.4541 89.0133L58.0159 86.1172Z" fill="#263238"/>
<path d="M57.0712 87.4454L58.4501 86.9885L58.1089 86.3061L56.8033 86.7658L57.0712 87.4454Z" fill="black"/>
<path d="M52.9483 88.1222L51.5355 88.6185L51.7244 89.222L53.1062 88.7623L52.9483 88.1222Z" fill="black"/>
<path d="M53.4023 88.6636L56.7948 87.5384L56.541 86.856L53.2162 88.0263L53.4023 88.6636Z" fill="black"/>
<path opacity="0.2" d="M56.4282 81.498C55.0013 81.3316 54.1976 79.1856 54.1976 79.1856C54.5062 79.1302 54.8179 79.0935 55.131 79.0756C55.6289 79.8463 56.0627 80.6564 56.4282 81.498Z" fill="black"/>
<path d="M53.4644 77.1919C55.0154 76.9606 58.484 78.2183 58.7857 78.2042C59.0875 78.1901 62.4517 75.545 62.4517 75.545L63.3259 76.3148C63.3259 76.3148 59.8009 79.9498 59.0762 79.9808C58.3514 80.0119 54.5642 79.7383 54.5642 79.7383C54.5642 79.7383 53.6364 79.4084 53.4587 78.5708C53.3506 78.1173 53.3525 77.6445 53.4644 77.1919Z" fill="#1A2980"/>
</svg>
