<svg width="138" height="138" viewBox="0 0 138 138" fill="none" xmlns="http://www.w3.org/2000/svg">
<path d="M116.585 49.68C117.212 43.205 118.71 37.0751 116.061 30.8485C111.198 19.4221 96.5282 13.3556 85.1294 18.768C79.3003 21.528 74.3158 25.5659 67.896 27.048C50.5687 31.0472 23.8243 9.74004 14.3934 34.5469C11.1559 43.0588 12.4614 54.2754 18.3154 61.3907C20.1949 63.6732 22.4912 65.6604 23.8823 68.2714C27.6883 75.417 22.3008 83.2692 19.872 89.9346C14.1036 105.686 35.8524 114.402 47.6569 116.008C67.1701 118.68 83.2664 96.324 102.672 105.432C116.196 111.78 128.064 96.324 125.58 80.868C123.954 70.7498 115.724 61.065 116.494 50.7536C116.522 50.3976 116.552 50.0416 116.585 49.68Z" fill="#1A2980"/>
<path opacity="0.7" d="M116.585 49.68C117.212 43.205 118.71 37.0751 116.061 30.8485C111.198 19.4221 96.5282 13.3556 85.1294 18.768C79.3003 21.528 74.3158 25.5659 67.896 27.048C50.5687 31.0472 23.8243 9.74004 14.3934 34.5469C11.1559 43.0588 12.4614 54.2754 18.3154 61.3907C20.1949 63.6732 22.4912 65.6604 23.8823 68.2714C27.6883 75.417 22.3008 83.2692 19.872 89.9346C14.1036 105.686 35.8524 114.402 47.6569 116.008C67.1701 118.68 83.2664 96.324 102.672 105.432C116.196 111.78 128.064 96.324 125.58 80.868C123.954 70.7498 115.724 61.065 116.494 50.7536C116.522 50.3976 116.552 50.0416 116.585 49.68Z" fill="white"/>
<path d="M23.6725 53.8918C28.9359 53.8918 33.2028 49.6249 33.2028 44.3615C33.2028 39.0981 28.9359 34.8312 23.6725 34.8312C18.4091 34.8312 14.1422 39.0981 14.1422 44.3615C14.1422 49.6249 18.4091 53.8918 23.6725 53.8918Z" fill="white" stroke="#2E353A" stroke-linecap="round" stroke-linejoin="round"/>
<path d="M22.9632 52.9451C28.2266 52.9451 32.4935 48.6782 32.4935 43.4148C32.4935 38.1514 28.2266 33.8845 22.9632 33.8845C17.6998 33.8845 13.4329 38.1514 13.4329 43.4148C13.4329 48.6782 17.6998 52.9451 22.9632 52.9451Z" fill="white" stroke="#2E353A" stroke-linecap="round" stroke-linejoin="round"/>
<path d="M22.9632 51.9984C27.7038 51.9984 31.5468 48.1554 31.5468 43.4148C31.5468 38.6742 27.7038 34.8312 22.9632 34.8312C18.2226 34.8312 14.3796 38.6742 14.3796 43.4148C14.3796 48.1554 18.2226 51.9984 22.9632 51.9984Z" fill="#2E353A" stroke="#2E353A" stroke-linecap="round" stroke-linejoin="round"/>
<path d="M21.9558 36.9619C21.9558 36.9619 21.0091 34.5938 19.3531 32.9378C17.6971 31.2818 10.9462 30.2137 10.9462 30.2137C12.0363 31.2652 13.0276 32.4145 13.9076 33.6472C15.445 35.7779 20.5316 40.6327 20.5316 40.6327C20.5316 40.6327 18.0476 38.502 15.7955 38.2646C13.5433 38.0273 7.86324 39.2113 7.51548 39.2113C7.16772 39.2113 9.6462 40.158 11.4236 40.986C13.2011 41.814 20.0652 42.5261 20.0652 42.5261C20.0652 42.5261 17.1065 43.3541 15.0972 44.0662C13.0879 44.7782 11.1835 49.9836 11.1835 49.9836C11.1835 49.9836 13.789 47.6155 16.0384 47.0249C18.2878 46.4342 21.4838 45.3689 21.4838 45.3689C21.4838 45.3689 19.4718 47.6183 18.9998 49.1584C18.5279 50.6984 18.8812 54.2478 18.8812 54.2478C18.8812 54.2478 19.9465 50.9358 21.2492 49.6303C22.552 48.3248 23.9678 46.092 23.9678 46.092C24.6236 47.1609 25.2171 48.2667 25.7453 49.404C26.692 51.416 27.2826 54.372 27.2826 54.372C27.2826 54.372 28.8227 51.06 28.704 49.404C28.5853 47.748 26.8106 44.7865 26.8106 44.7865C26.8106 44.7865 27.9947 43.9585 29.7694 44.6678C31.544 45.3772 34.6242 48.3386 34.6242 48.3386C34.6242 48.3386 33.9121 44.4305 32.7281 42.8932C31.544 41.3558 26.4546 40.8784 26.4546 40.8784C26.4546 40.8784 29.2974 39.2224 31.0721 38.8663C32.8468 38.5103 35.2121 39.341 35.2121 39.341C35.2121 39.341 32.4907 35.5516 30.36 35.3142C28.2293 35.0768 25.0332 38.3833 25.0332 38.3833L25.9826 33.6472C26.2172 32.4631 25.7453 29.5072 25.7453 29.5072C25.7453 29.5072 24.4426 30.2165 22.9025 32.4659C22.4518 33.1138 22.1357 33.8456 21.9731 34.6179C21.8105 35.3902 21.8046 36.1873 21.9558 36.9619Z" fill="#1A2980"/>
<path opacity="0.5" d="M21.9558 36.9619C21.9558 36.9619 21.0091 34.5938 19.3531 32.9378C17.6971 31.2818 10.9462 30.2137 10.9462 30.2137C12.0363 31.2652 13.0276 32.4145 13.9076 33.6472C15.445 35.7779 20.5316 40.6327 20.5316 40.6327C20.5316 40.6327 18.0476 38.502 15.7955 38.2646C13.5433 38.0273 7.86324 39.2113 7.51548 39.2113C7.16772 39.2113 9.6462 40.158 11.4236 40.986C13.2011 41.814 20.0652 42.5261 20.0652 42.5261C20.0652 42.5261 17.1065 43.3541 15.0972 44.0662C13.0879 44.7782 11.1835 49.9836 11.1835 49.9836C11.1835 49.9836 13.789 47.6155 16.0384 47.0249C18.2878 46.4342 21.4838 45.3689 21.4838 45.3689C21.4838 45.3689 19.4718 47.6183 18.9998 49.1584C18.5279 50.6984 18.8812 54.2478 18.8812 54.2478C18.8812 54.2478 19.9465 50.9358 21.2492 49.6303C22.552 48.3248 23.9678 46.092 23.9678 46.092C24.6236 47.1609 25.2171 48.2667 25.7453 49.404C26.692 51.416 27.2826 54.372 27.2826 54.372C27.2826 54.372 28.8227 51.06 28.704 49.404C28.5853 47.748 26.8106 44.7865 26.8106 44.7865C26.8106 44.7865 27.9947 43.9585 29.7694 44.6678C31.544 45.3772 34.6242 48.3386 34.6242 48.3386C34.6242 48.3386 33.9121 44.4305 32.7281 42.8932C31.544 41.3558 26.4546 40.8784 26.4546 40.8784C26.4546 40.8784 29.2974 39.2224 31.0721 38.8663C32.8468 38.5103 35.2121 39.341 35.2121 39.341C35.2121 39.341 32.4907 35.5516 30.36 35.3142C28.2293 35.0768 25.0332 38.3833 25.0332 38.3833L25.9826 33.6472C26.2172 32.4631 25.7453 29.5072 25.7453 29.5072C25.7453 29.5072 24.4426 30.2165 22.9025 32.4659C22.4518 33.1138 22.1357 33.8456 21.9731 34.6179C21.8105 35.3902 21.8046 36.1873 21.9558 36.9619Z" fill="black"/>
<path d="M24.288 33.3574C24.3708 33.0179 24.4619 32.6784 24.564 32.3444" stroke="#2E353A" stroke-width="0.5" stroke-linecap="round" stroke-linejoin="round"/>
<path d="M16.3806 33.3574C17.4846 34.166 18.8646 35.2894 19.5877 36.2526C20.8904 38.0273 23.4959 41.8168 23.4959 41.8168C23.4213 39.2715 23.623 36.7257 24.0976 34.224" stroke="#2E353A" stroke-width="0.5" stroke-linecap="round" stroke-linejoin="round"/>
<path d="M14.7356 32.2258C14.7356 32.2258 15.0806 32.4466 15.5968 32.8026" stroke="#2E353A" stroke-width="0.5" stroke-linecap="round" stroke-linejoin="round"/>
<path d="M23.4959 41.8168C23.4959 41.8168 27.9947 37.318 29.888 36.9619C31.7814 36.6059 33.4402 38.0273 33.4402 38.0273" stroke="#2E353A" stroke-width="0.5" stroke-linecap="round" stroke-linejoin="round"/>
<path d="M15.456 45.5786C14.352 46.2742 14.2609 46.6826 14.2609 46.6826" stroke="#2E353A" stroke-width="0.5" stroke-linecap="round" stroke-linejoin="round"/>
<path d="M33.3215 45.9595C33.3215 45.9595 32.6122 44.1821 30.1254 43.3541C27.6386 42.5261 23.736 42.4074 23.736 42.4074C23.736 42.4074 18.2574 44.2014 16.2536 45.137" stroke="#2E353A" stroke-width="0.5" stroke-linecap="round" stroke-linejoin="round"/>
<path d="M21.3403 41.7312C22.6651 42.1176 23.7332 42.4074 23.7332 42.4074" stroke="#2E353A" stroke-width="0.5" stroke-linecap="round" stroke-linejoin="round"/>
<path d="M13.0024 39.6281C14.2885 39.7054 15.9445 39.882 16.8664 40.2767C17.6171 40.5996 19.0964 41.066 20.493 41.4828" stroke="#2E353A" stroke-width="0.5" stroke-linecap="round" stroke-linejoin="round"/>
<path d="M11.1835 39.5674C11.1835 39.5674 11.6168 39.5674 12.2544 39.5922" stroke="#2E353A" stroke-width="0.5" stroke-linecap="round" stroke-linejoin="round"/>
<path d="M23.4959 43.1167C23.4959 43.1167 20.1839 48.0847 19.9438 49.2743C19.8015 49.9761 19.7221 50.6891 19.7064 51.405" stroke="#2E353A" stroke-width="0.5" stroke-linecap="round" stroke-linejoin="round"/>
<path d="M24.9697 44.6816C25.6073 45.5096 26.3718 46.6136 26.692 47.4968C27.0646 48.5744 27.3417 49.6827 27.52 50.8088" stroke="#2E353A" stroke-width="0.5" stroke-linecap="round" stroke-linejoin="round"/>
<path d="M23.9678 43.4728C23.9678 43.4728 24.2439 43.7653 24.5999 44.2152" stroke="#2E353A" stroke-width="0.5" stroke-linecap="round" stroke-linejoin="round"/>
<path d="M20.4516 37.9831C20.4516 37.9831 19.8416 35.4991 20.2198 33.1945C20.5979 30.8899 25.4638 26.0792 25.4638 26.0792C25.1933 27.5691 25.0594 29.0804 25.0635 30.5946C25.0635 33.2221 23.7525 40.1332 23.7525 40.1332C23.7525 40.1332 24.5281 36.9536 26.2172 35.4412C27.9063 33.9287 33.2138 31.5772 33.5009 31.3757C33.7879 31.1742 32.3224 33.3877 31.3646 35.0989C30.4069 36.8101 25.2374 41.4 25.2374 41.4C25.2374 41.4 28.1244 40.3457 30.1723 39.744C32.2202 39.1423 36.7963 42.2722 36.7963 42.2722C36.7963 42.2722 33.2994 41.8692 31.1273 42.7C28.9552 43.5307 25.737 44.5298 25.737 44.5298C25.737 44.5298 28.6847 45.184 29.9653 46.1582C31.2459 47.1325 33.0344 50.232 33.0344 50.232C33.0344 50.232 30.2358 48.1592 28.417 47.8612C26.5981 47.5631 24.1334 46.5667 24.1334 46.5667C24.2269 47.817 24.3909 49.061 24.6247 50.2927C25.0304 52.4814 26.2807 55.2304 26.2807 55.2304C26.2807 55.2304 23.0984 53.4364 22.2263 52.0205C21.3541 50.6046 21.0726 47.1656 21.0726 47.1656C21.0726 47.1656 19.6263 47.1822 18.5886 48.794C17.5508 50.4059 16.7863 54.6066 16.7863 54.6066C16.7863 54.6066 15.0861 51.0186 15.1496 49.0866C15.2131 47.1546 19.0716 43.7929 19.0716 43.7929C19.0716 43.7929 15.7982 44.1048 14.1477 44.85C12.4973 45.5952 11.0565 47.6514 11.0565 47.6514C11.0565 47.6514 11.0565 42.987 12.6518 41.5518C14.2471 40.1166 18.7763 40.9446 18.7763 40.9446L15.2435 37.6519C14.3603 36.8239 13.0189 34.1467 13.0189 34.1467C13.0189 34.1467 14.4927 33.9646 17.054 34.8947C17.7985 35.1553 18.483 35.5631 19.0666 36.0937C19.6503 36.6242 20.1213 37.2668 20.4516 37.9831Z" fill="#1A2980"/>
<path d="M16.4551 36.4154C16.1791 36.1864 15.9197 35.9656 15.6437 35.7503" stroke="#2E353A" stroke-width="0.5" stroke-linecap="round" stroke-linejoin="round"/>
<path d="M22.8776 31.8035C22.4498 33.1062 21.9724 34.8202 21.9613 36.0235C21.9392 38.2315 22.0331 42.8214 22.0331 42.8214C20.6085 40.7111 18.9584 38.7621 17.112 37.0088" stroke="#2E353A" stroke-width="0.5" stroke-linecap="round" stroke-linejoin="round"/>
<path d="M23.5566 29.9239C23.5566 29.9239 23.4021 30.3048 23.1923 30.8927" stroke="#2E353A" stroke-width="0.5" stroke-linecap="round" stroke-linejoin="round"/>
<path d="M22.0331 42.8214C22.0331 42.8214 15.7541 41.7919 14.0098 42.6089C12.2654 43.4258 11.7466 45.54 11.7466 45.54" stroke="#2E353A" stroke-width="0.5" stroke-linecap="round" stroke-linejoin="round"/>
<path d="M30.7602 41.1875C32.0546 41.1157 32.3638 41.3779 32.3638 41.3779" stroke="#2E353A" stroke-width="0.5" stroke-linecap="round" stroke-linejoin="round"/>
<path d="M16.4689 51.9184C16.4689 51.9184 16.0108 50.0609 17.5453 47.9384C19.0799 45.816 22.1876 43.4424 22.1876 43.4424C22.1876 43.4424 27.6828 41.7008 29.8549 41.2951" stroke="#2E353A" stroke-width="0.5" stroke-linecap="round" stroke-linejoin="round"/>
<path d="M23.736 41.4966C22.8859 42.5813 22.1904 43.4424 22.1904 43.4424" stroke="#2E353A" stroke-width="0.5" stroke-linecap="round" stroke-linejoin="round"/>
<path d="M29.2808 34.925C28.2817 35.753 27.0397 36.857 26.5208 37.7044C26.0985 38.4054 25.1684 39.6364 24.2769 40.7983" stroke="#2E353A" stroke-width="0.5" stroke-linecap="round" stroke-linejoin="round"/>
<path d="M30.7216 33.8128C30.7216 33.8128 30.371 34.0667 29.866 34.4586" stroke="#2E353A" stroke-width="0.5" stroke-linecap="round" stroke-linejoin="round"/>
<path d="M22.7921 43.884C22.7921 43.884 28.3866 45.9871 29.267 46.8124C29.7921 47.2993 30.2724 47.8322 30.7022 48.4049" stroke="#2E353A" stroke-width="0.5" stroke-linecap="round" stroke-linejoin="round"/>
<path d="M22.5078 46.0092C22.4692 47.0525 22.4885 48.3911 22.7507 49.3019C23.0761 50.3961 23.4982 51.4592 24.012 52.4786" stroke="#2E353A" stroke-width="0.5" stroke-linecap="round" stroke-linejoin="round"/>
<path d="M22.6154 44.436C22.6154 44.436 22.5713 44.8279 22.5382 45.4075" stroke="#2E353A" stroke-width="0.5" stroke-linecap="round" stroke-linejoin="round"/>
<path d="M38.8691 50.6267H101.43C102.211 50.6267 102.96 50.9369 103.512 51.4892C104.065 52.0415 104.375 52.7906 104.375 53.5716V94.1436C104.375 94.5666 104.292 94.9854 104.13 95.3762C103.968 95.767 103.731 96.122 103.432 96.4211C103.132 96.7202 102.777 96.9575 102.387 97.1193C101.996 97.2812 101.577 97.3645 101.154 97.3645H39.1451C38.7221 97.3645 38.3033 97.2812 37.9125 97.1193C37.5217 96.9575 37.1666 96.7202 36.8675 96.4211C36.5684 96.122 36.3312 95.767 36.1693 95.3762C36.0075 94.9854 35.9241 94.5666 35.9241 94.1436V53.5716C35.9241 52.7906 36.2344 52.0415 36.7867 51.4892C37.339 50.9369 38.088 50.6267 38.8691 50.6267Z" fill="white" stroke="#2E353A" stroke-linecap="round" stroke-linejoin="round"/>
<path d="M61.766 55.2276H57.9131V57.7585H61.766V55.2276Z" fill="#2E353A"/>
<path d="M49.2825 70.8409H45.7056V74.3903H49.2825V70.8409Z" fill="#2E353A"/>
<path d="M65.0863 58.3657H61.4818V61.9151H65.0863V58.3657Z" fill="#2E353A"/>
<path d="M57.3031 55.2276H53.4501V57.7585H57.3031V55.2276Z" fill="#2E353A"/>
<path d="M69.2981 58.3657H65.6935V61.9151H69.2981V58.3657Z" fill="#2E353A"/>
<path d="M66.2262 55.2276H62.3732V57.7585H66.2262V55.2276Z" fill="#2E353A"/>
<path d="M47.1215 66.6816H40.3429V70.231H47.1215V66.6816Z" fill="#2E353A"/>
<path d="M56.66 58.3657H53.0555V61.9151H56.66V58.3657Z" fill="#2E353A"/>
<path d="M45.0984 70.8409H40.3429V74.3903H45.0984V70.8409Z" fill="#2E353A"/>
<path d="M70.6891 55.2276H66.8362V57.7585H70.6891V55.2276Z" fill="#2E353A"/>
<path d="M48.2337 58.3657H44.6292V61.9151H48.2337V58.3657Z" fill="#2E353A"/>
<path d="M48.38 55.2276H44.5271V57.7585H48.38V55.2276Z" fill="#2E353A"/>
<path d="M52.843 55.2276H48.99V57.7585H52.843V55.2276Z" fill="#2E353A"/>
<path d="M52.4455 58.3657H48.8409V61.9151H52.4455V58.3657Z" fill="#2E353A"/>
<path d="M60.8718 58.3657H57.2672V61.9151H60.8718V58.3657Z" fill="#2E353A"/>
<path d="M88.538 55.2276H84.6851V57.7585H88.538V55.2276Z" fill="#2E353A"/>
<path d="M92.9982 55.2276H89.1452V57.7585H92.9982V55.2276Z" fill="#2E353A"/>
<path d="M90.3652 58.3657H86.7606V61.9151H90.3652V58.3657Z" fill="#2E353A"/>
<path d="M94.5797 58.3657H90.9751V61.9151H94.5797V58.3657Z" fill="#2E353A"/>
<path d="M101.245 70.8409H95.9376V74.3903H101.245V70.8409Z" fill="#2E353A"/>
<path d="M97.4611 55.2276H93.6081V57.7585H97.4611V55.2276Z" fill="#2E353A"/>
<path d="M44.022 58.3657H40.3429V61.9151H44.022V58.3657Z" fill="#2E353A"/>
<path d="M75.1521 55.2276H71.2991V57.7585H75.1521V55.2276Z" fill="#2E353A"/>
<path d="M79.6122 55.2276H75.7592V57.7585H79.6122V55.2276Z" fill="#2E353A"/>
<path d="M77.7271 58.3657H74.1226V61.9151H77.7271V58.3657Z" fill="#2E353A"/>
<path d="M86.1534 58.3657H82.5488V61.9151H86.1534V58.3657Z" fill="#2E353A"/>
<path d="M73.5126 58.3657H69.9081V61.9151H73.5126V58.3657Z" fill="#2E353A"/>
<path d="M81.9389 58.3657H78.3343V61.9151H81.9389V58.3657Z" fill="#2E353A"/>
<path d="M84.0751 55.2276H80.2221V57.7585H84.0751V55.2276Z" fill="#2E353A"/>
<path d="M78.5855 70.8409H75.0085V74.3903H78.5855V70.8409Z" fill="#2E353A"/>
<path d="M97.3535 66.6816H93.7765V70.231H97.3535V66.6816Z" fill="#2E353A"/>
<path d="M93.1665 66.6816H89.5896V70.231H93.1665V66.6816Z" fill="#2E353A"/>
<path d="M95.3276 70.8409H91.7507V74.3903H95.3276V70.8409Z" fill="#2E353A"/>
<path d="M91.1435 70.8409H87.5665V74.3903H91.1435V70.8409Z" fill="#2E353A"/>
<path d="M82.7696 70.8409H79.1927V74.3903H82.7696V70.8409Z" fill="#2E353A"/>
<path d="M86.9565 70.8409H83.3796V74.3903H86.9565V70.8409Z" fill="#2E353A"/>
<path d="M88.9796 66.6816H85.4027V70.231H88.9796V66.6816Z" fill="#2E353A"/>
<path d="M84.7955 66.6816H81.2185V70.231H84.7955V66.6816Z" fill="#2E353A"/>
<path d="M101.248 55.2276H98.0711V57.7585H101.248V55.2276Z" fill="#2E353A"/>
<path d="M43.9199 55.2276H40.3429V57.7585H43.9199V55.2276Z" fill="#2E353A"/>
<path d="M101.248 74.9975H40.3429V78.6876H101.248V74.9975Z" fill="#2E353A"/>
<path d="M101.245 58.3657H95.1869V61.9151H101.245V58.3657Z" fill="#2E353A"/>
<path d="M101.245 66.6816H97.9607V70.231H101.245V66.6816Z" fill="#2E353A"/>
<path d="M96.9505 66.0468H96.3405V62.525H92.7636V66.0468H92.1564V62.525H88.5794V66.0468H87.9695V62.525H84.3925V66.0468H83.7825V62.525H80.2056V66.0468H79.5984V62.525H76.0214V66.0468H75.4115V62.525H71.8345V66.0468H71.2245V62.525H67.6476V66.0468H67.0404V62.525H63.4634V66.0468H62.8535V62.525H59.2765V66.0468H58.6665V62.525H55.0896V66.0468H54.4824V62.525H50.9054V66.0468H50.2955V62.525H46.7185V66.0468H46.1085V62.525H40.3429V66.0744H101.245V62.525H96.9505V66.0468Z" fill="#2E353A"/>
<path d="M68.0506 66.6816H64.4736V70.231H68.0506V66.6816Z" fill="#2E353A"/>
<path d="M80.6085 66.6816H77.0316V70.231H80.6085V66.6816Z" fill="#2E353A"/>
<path d="M59.6795 66.6816H56.1025V70.231H59.6795V66.6816Z" fill="#2E353A"/>
<path d="M61.8405 70.8409H58.2636V74.3903H61.8405V70.8409Z" fill="#2E353A"/>
<path d="M63.8636 66.6816H60.2867V70.231H63.8636V66.6816Z" fill="#2E353A"/>
<path d="M55.4925 66.6816H51.9156V70.231H55.4925V66.6816Z" fill="#2E353A"/>
<path d="M53.4695 70.8409H49.8925V74.3903H53.4695V70.8409Z" fill="#2E353A"/>
<path d="M57.6536 70.8409H54.0767V74.3903H57.6536V70.8409Z" fill="#2E353A"/>
<path d="M72.2375 66.6816H68.6605V70.231H72.2375V66.6816Z" fill="#2E353A"/>
<path d="M74.3986 70.8409H70.8216V74.3903H74.3986V70.8409Z" fill="#2E353A"/>
<path d="M76.4216 66.6816H72.8447V70.231H76.4216V66.6816Z" fill="#2E353A"/>
<path d="M66.0275 70.8409H62.4505V74.3903H66.0275V70.8409Z" fill="#2E353A"/>
<path d="M70.2116 70.8409H66.6347V74.3903H70.2116V70.8409Z" fill="#2E353A"/>
<path d="M51.3056 66.6816H47.7287V70.231H51.3056V66.6816Z" fill="#2E353A"/>
<path d="M108.283 25.2347H31.6489C31.2731 25.235 30.9024 25.3217 30.5654 25.4881C30.2285 25.6546 29.9343 25.8962 29.7057 26.1945C29.4771 26.4928 29.3201 26.8396 29.2469 27.2082C29.1737 27.5769 29.1862 27.9574 29.2836 28.3204L34.8864 49.1804C35.026 49.7012 35.3334 50.1613 35.7611 50.4896C36.1887 50.8179 36.7126 50.9961 37.2517 50.9965H45.0735V52.44H95.22V51.0048H102.672C103.211 51.0044 103.735 50.8262 104.163 50.4979C104.59 50.1696 104.898 49.7094 105.037 49.1887L110.64 28.3286C110.739 27.9658 110.753 27.5851 110.681 27.216C110.609 26.847 110.453 26.4994 110.225 26.2003C109.997 25.9012 109.703 25.6585 109.366 25.4911C109.03 25.3236 108.659 25.2359 108.283 25.2347Z" fill="#2E353A" stroke="#2E353A" stroke-linecap="round" stroke-linejoin="round"/>
<path d="M99.6167 49.1556H40.3153L34.3841 27.8125H105.545L99.6167 49.1556Z" fill="#1A2980" stroke="#2E353A" stroke-linecap="round" stroke-linejoin="round"/>
<path d="M44.2511 39.7882V40.0642H43.205V39.7882H44.2511Z" fill="#2E353A"/>
<path d="M45.5538 39.7882V40.0642H44.505V39.7882H45.5538Z" fill="#2E353A"/>
<path d="M46.8565 39.7882V40.0642H45.816V39.7882H46.8565Z" fill="#2E353A"/>
<path d="M48.1565 39.7882V40.0642H47.1104V39.7882H48.1565Z" fill="#2E353A"/>
<path d="M49.4592 39.7882V40.0642H48.4104V39.7882H49.4592Z" fill="#2E353A"/>
<path d="M50.7619 39.7882V40.0642H49.7131V39.7882H50.7619Z" fill="#2E353A"/>
<path d="M52.0619 39.7882V40.0642H51.0158V39.7882H52.0619Z" fill="#2E353A"/>
<path d="M53.3508 41.2427L52.1971 38.168H52.4731L53.6268 41.2427H53.3508Z" fill="#2E353A"/>
<path d="M43.1967 35.3114V35.5874H42.1507V35.3114H43.1967Z" fill="#2E353A"/>
<path d="M44.4995 35.3114V35.5874H43.4534V35.3114H44.4995Z" fill="#2E353A"/>
<path d="M45.816 35.3114V35.5874H44.7672V35.3114H45.816Z" fill="#2E353A"/>
<path d="M47.1049 35.3114V35.5874H46.0561V35.3114H47.1049Z" fill="#2E353A"/>
<path d="M48.4049 35.3114V35.5874H47.3588V35.3114H48.4049Z" fill="#2E353A"/>
<path d="M50.6073 35.3114V35.5874H49.5585V35.3114H50.6073Z" fill="#2E353A"/>
<path d="M51.9073 35.3114V35.5874H50.8613V35.3114H51.9073Z" fill="#2E353A"/>
<path d="M53.21 35.3114V35.5874H52.164V35.3114H53.21Z" fill="#2E353A"/>
<path d="M54.5127 35.3114V35.5874H53.4639V35.3114H54.5127Z" fill="#2E353A"/>
<path d="M55.8127 35.3114V35.5874H54.7667V35.3114H55.8127Z" fill="#2E353A"/>
<path d="M57.1154 35.3114V35.5874H56.0694V35.3114H57.1154Z" fill="#2E353A"/>
<path d="M58.4182 35.3114V35.5874H57.3694V35.3114H58.4182Z" fill="#2E353A"/>
<path d="M60.6179 35.3114V35.5874H59.5718V35.3114H60.6179Z" fill="#2E353A"/>
<path d="M61.9206 35.3114V35.5874H60.8718V35.3114H61.9206Z" fill="#2E353A"/>
<path d="M63.2233 35.3114V35.5874H62.1745V35.3114H63.2233Z" fill="#2E353A"/>
<path d="M65.412 35.3114V35.5874H64.3659V35.3114H65.412Z" fill="#2E353A"/>
<path d="M66.7258 35.3114V35.5874H65.688V35.3114H66.7258Z" fill="#2E353A"/>
<path d="M68.0285 35.3114V35.5874H66.9797V35.3114H68.0285Z" fill="#2E353A"/>
<path d="M72.9247 35.3114V35.5874H71.8786V35.3114H72.9247Z" fill="#2E353A"/>
<path d="M74.2274 35.3114V35.5874H73.1786V35.3114H74.2274Z" fill="#2E353A"/>
<path d="M75.5302 35.3114V35.5874H74.4814V35.3114H75.5302Z" fill="#2E353A"/>
<path d="M76.8301 35.3114V35.5874H75.7841V35.3114H76.8301Z" fill="#2E353A"/>
<path d="M78.1328 35.3114V35.5874H77.084V35.3114H78.1328Z" fill="#2E353A"/>
<path d="M80.3326 35.3114V35.5874H79.2865V35.3114H80.3326Z" fill="#2E353A"/>
<path d="M81.6353 35.3114V35.5874H80.592V35.3114H81.6353Z" fill="#2E353A"/>
<path d="M82.938 35.3114V35.5874H81.8892V35.3114H82.938Z" fill="#2E353A"/>
<path d="M85.1377 35.3114V35.5874H84.0917V35.3114H85.1377Z" fill="#2E353A"/>
<path d="M87.3402 35.3114V35.5874H86.2914V35.3114H87.3402Z" fill="#2E353A"/>
<path d="M104.794 80.672L101.841 92.0653L104.634 92.8851L104.794 80.672Z" fill="white" stroke="#2E353A" stroke-linecap="round" stroke-linejoin="round"/>
<path d="M106.119 68.6302C105.786 68.1181 105.664 67.4968 105.78 66.8969C105.932 65.7736 107.287 65.5169 107.287 65.5169C107.287 65.5169 107.582 65.2933 108.667 65.7046C109.751 66.1158 118.139 67.2529 123.499 67.9788C128.859 68.7047 130.595 68.2355 130.52 70.0764C130.446 71.9173 125.743 88.4387 125.671 88.9576C125.599 89.4764 106.119 68.6302 106.119 68.6302Z" fill="white" stroke="#2E353A" stroke-miterlimit="10"/>
<path d="M128.664 71.6872L106.117 68.6307L102.474 95.5074L125.021 98.5639L128.664 71.6872Z" fill="white" stroke="#2E353A" stroke-linecap="round" stroke-linejoin="round"/>
<path d="M124.473 77.0482L125.784 77.2276" stroke="#2E353A" stroke-width="0.5" stroke-linecap="round" stroke-linejoin="round"/>
<path d="M116.262 75.9359L123.436 76.9102" stroke="#2E353A" stroke-width="0.5" stroke-linecap="round" stroke-linejoin="round"/>
<path d="M107.568 74.7574L115.224 75.7951" stroke="#2E353A" stroke-width="0.5" stroke-linecap="round" stroke-linejoin="round"/>
<path d="M122.42 79.2037L125.461 79.6177" stroke="#2E353A" stroke-width="0.5" stroke-linecap="round" stroke-linejoin="round"/>
<path d="M107.245 77.1475L119.309 78.7814" stroke="#2E353A" stroke-width="0.5" stroke-linecap="round" stroke-linejoin="round"/>
<path d="M113.367 80.4098L125.138 82.0051" stroke="#2E353A" stroke-width="0.5" stroke-linecap="round" stroke-linejoin="round"/>
<path d="M106.92 79.5349L112.155 80.247" stroke="#2E353A" stroke-width="0.5" stroke-linecap="round" stroke-linejoin="round"/>
<path d="M117.278 83.3741L124.813 84.3953" stroke="#2E353A" stroke-width="0.5" stroke-linecap="round" stroke-linejoin="round"/>
<path d="M110.883 82.5047L116.414 83.2554" stroke="#2E353A" stroke-width="0.5" stroke-linecap="round" stroke-linejoin="round"/>
<path d="M106.597 81.9251L109.931 82.3777" stroke="#2E353A" stroke-width="0.5" stroke-linecap="round" stroke-linejoin="round"/>
<path d="M121.793 86.4184L124.49 86.7827" stroke="#2E353A" stroke-width="0.5" stroke-linecap="round" stroke-linejoin="round"/>
<path d="M106.274 84.3152L119.98 86.1727" stroke="#2E353A" stroke-width="0.5" stroke-linecap="round" stroke-linejoin="round"/>
<path d="M116.544 88.1378L124.167 89.1728" stroke="#2E353A" stroke-width="0.5" stroke-linecap="round" stroke-linejoin="round"/>
<path d="M105.948 86.7026L115.247 87.964" stroke="#2E353A" stroke-width="0.5" stroke-linecap="round" stroke-linejoin="round"/>
<path d="M118.898 90.8923L123.841 91.5602" stroke="#2E353A" stroke-width="0.5" stroke-linecap="round" stroke-linejoin="round"/>
<path d="M108.874 89.5316L117.689 90.7267" stroke="#2E353A" stroke-width="0.5" stroke-linecap="round" stroke-linejoin="round"/>
<path d="M105.625 89.0928L107.836 89.3909" stroke="#2E353A" stroke-width="0.5" stroke-linecap="round" stroke-linejoin="round"/>
<path d="M128.666 71.6882C128.666 71.6882 129.052 67.9402 130.432 69.4471" stroke="#2E353A" stroke-linecap="round" stroke-linejoin="round"/>
<path d="M121.02 100.561L120.996 102.942L119.607 100.983L114.035 82.2397L115.448 81.8174L121.02 100.561Z" fill="white" stroke="#2E353A" stroke-linecap="round" stroke-linejoin="round"/>
<path d="M114.895 82.6184L114.124 82.8433L119.599 101.616L120.37 101.391L114.895 82.6184Z" fill="#1A2980" stroke="#2E353A" stroke-width="0.5" stroke-linecap="round" stroke-linejoin="round"/>
<path d="M121.021 100.566L119.61 100.986L120.996 102.942L121.021 100.566Z" stroke="#2E353A" stroke-linecap="round" stroke-linejoin="round"/>
<path d="M120.303 101.963L120.996 102.942L121.009 101.753L120.303 101.963Z" fill="#2E353A" stroke="#2E353A" stroke-linecap="round" stroke-linejoin="round"/>
<path d="M114.118 79.9296C113.931 79.9859 113.774 80.1138 113.681 80.2854C113.587 80.4571 113.566 80.6586 113.621 80.8459L114.035 82.2397L115.448 81.8202L115.034 80.4264C114.978 80.2394 114.85 80.0823 114.678 79.9892C114.507 79.8961 114.305 79.8747 114.118 79.9296Z" fill="white" stroke="#2E353A" stroke-linecap="round" stroke-linejoin="round"/>
<path d="M114.118 79.9296C113.931 79.9859 113.774 80.1138 113.681 80.2854C113.587 80.4571 113.566 80.6586 113.621 80.8459L113.82 81.5111L115.23 81.0916L115.034 80.4264C114.978 80.2394 114.85 80.0823 114.678 79.9892C114.507 79.8961 114.305 79.8747 114.118 79.9296Z" fill="#2E353A" stroke="#2E353A" stroke-linecap="round" stroke-linejoin="round"/>
<path d="M44.6154 68.8592C44.4388 69.1076 44.2649 69.3671 44.091 69.6403" stroke="white" stroke-linecap="round" stroke-linejoin="round"/>
<path d="M47.5024 65.5362C46.7333 66.249 46.0218 67.0215 45.3744 67.8463" stroke="white" stroke-linecap="round" stroke-linejoin="round"/>
<path d="M44.3698 67.0018C43.6157 68.0594 42.9325 69.1658 42.3246 70.3138" stroke="white" stroke-linecap="round" stroke-linejoin="round"/>
<path d="M63.836 73.071C63.6621 73.3194 63.4855 73.5788 63.3116 73.8493" stroke="white" stroke-linecap="round" stroke-linejoin="round"/>
<path d="M66.723 69.748C65.9554 70.4613 65.2448 71.2337 64.5978 72.0581" stroke="white" stroke-linecap="round" stroke-linejoin="round"/>
<path d="M63.5932 71.208C62.8395 72.2717 62.1563 73.3836 61.548 74.5366" stroke="white" stroke-linecap="round" stroke-linejoin="round"/>
<path d="M91.3863 66.24C91.1352 66.0689 90.8702 65.8978 90.597 65.7266" stroke="white" stroke-linecap="round" stroke-linejoin="round"/>
<path d="M94.7535 69.0773C94.0277 68.3213 93.2443 67.6228 92.4103 66.988" stroke="white" stroke-linecap="round" stroke-linejoin="round"/>
<path d="M93.2411 65.964C92.167 65.2264 91.0459 64.5599 89.8849 63.9685" stroke="white" stroke-linecap="round" stroke-linejoin="round"/>
<path d="M62.997 83.352C62.8535 84.3898 62.6382 85.836 62.4229 86.6944" stroke="#2E353A" stroke-linecap="round" stroke-linejoin="round"/>
<path d="M63.1571 82.0907C63.1571 82.0907 63.135 82.2866 63.0936 82.604" stroke="#2E353A" stroke-linecap="round" stroke-linejoin="round"/>
<path d="M63.894 85.0356C63.5926 86.041 63.2238 87.0248 62.79 87.9805" stroke="#2E353A" stroke-linecap="round" stroke-linejoin="round"/>
<path d="M77.694 86.5067C77.694 86.5067 77.8789 88.8996 79.1651 90.1885" stroke="#2E353A" stroke-linecap="round" stroke-linejoin="round"/>
<path d="M77.5091 88.8996C77.5091 88.8996 78.0611 90.5556 79.1651 91.2925" stroke="#2E353A" stroke-linecap="round" stroke-linejoin="round"/>
<g style="mix-blend-mode:multiply">
<path d="M40.02 101.689C40.02 101.689 41.2454 100.704 41.2454 92.2337C41.2454 83.7632 42.6558 77.5753 44.3946 74.8622C46.1334 72.1492 47.759 71.0617 48.5208 71.0617C49.2826 71.0617 48.7361 72.0388 47.6514 73.4491C46.5667 74.8595 45.5897 75.6212 45.1536 77.36C44.7175 79.0988 44.7203 81.2682 45.264 81.0502C45.8077 80.8321 46.6743 76.4906 47.4333 74.8622C48.1923 73.2338 50.0416 71.1694 51.1262 70.1923C52.2109 69.2153 54.6011 66.2842 55.6857 67.0432C56.7704 67.8022 56.1218 68.8896 55.4705 69.3229C54.8191 69.7562 52.2109 72.3589 51.0186 73.9928C49.8263 75.6268 49.0645 79.7474 49.7159 79.8551C50.3672 79.9627 52.3213 73.8852 53.406 72.5825C54.4907 71.2798 58.8349 67.6945 59.812 67.5869C60.789 67.4792 60.8994 68.9972 60.03 69.759C59.1606 70.5208 56.2295 73.7748 55.2524 75.7289C54.2754 77.683 53.8393 81.2682 54.7004 80.3988C55.5616 79.5294 56.9802 75.9469 58.1753 74.7518C59.3703 73.5568 62.9528 69.759 63.8222 70.1923C64.6916 70.6256 64.4736 71.7131 63.7146 72.4721C62.9556 73.2311 60.0217 77.36 59.2627 79.5294C58.5037 81.6988 57.6315 87.7818 58.0676 86.9152C58.5037 86.0485 59.9141 81.5939 60.6731 79.7392C61.4321 77.8844 62.9528 77.0261 63.1709 77.8927C63.3889 78.7594 62.9528 79.1954 62.4091 81.1523C61.8654 83.1091 61.8571 88.3283 60.2397 91.2484C58.6224 94.1684 52.1309 100.417 51.2642 102.586C50.6365 104.081 49.8869 105.521 49.0231 106.892" fill="#1A2980"/>
</g>
<g style="mix-blend-mode:multiply">
<path d="M100.34 102.424C100.34 102.424 99.084 100.704 99.084 92.2337C99.084 83.7632 97.6709 77.5753 95.9348 74.8622C94.1988 72.1492 92.5676 71.0617 91.8086 71.0617C91.0496 71.0617 91.5906 72.0388 92.678 73.4491C93.7655 74.8595 94.7397 75.6212 95.162 77.36C95.5843 79.0988 95.5981 81.2682 95.0544 81.0502C94.5107 80.8321 93.644 76.4906 92.8823 74.8622C92.1205 73.2338 90.2768 71.1694 89.1921 70.1923C88.1075 69.2153 85.7173 66.2842 84.6299 67.0432C83.5424 67.8022 84.1966 68.8896 84.8479 69.3229C85.4993 69.7562 88.1047 72.3589 89.2998 73.9928C90.4949 75.6268 91.2539 79.7474 90.6025 79.8551C89.9511 79.9627 88.0053 73.8852 86.9207 72.588C85.836 71.2908 81.489 67.7 80.5119 67.5924C79.5349 67.4848 79.4273 69.0028 80.2967 69.7645C81.1661 70.5263 84.0972 73.7803 85.0742 75.7344C86.0513 77.6885 86.4846 81.2737 85.6262 80.4043C84.7679 79.5349 83.3465 75.9524 82.1541 74.7574C80.9618 73.5623 77.3766 69.7645 76.5072 70.1978C75.6378 70.6312 75.8558 71.7186 76.6148 72.4776C77.3738 73.2366 80.3077 77.3656 81.0667 79.5349C81.8257 81.7043 82.6951 87.7873 82.2618 86.9207C81.8285 86.054 80.4153 81.5994 79.6563 79.7447C78.8973 77.89 77.3766 77.0316 77.1585 77.8982C76.9405 78.7649 77.3766 79.201 77.9175 81.1578C78.4585 83.1146 78.4695 88.3338 80.0897 91.2539C81.7098 94.174 88.0164 99.8734 88.8858 102.045C89.7552 104.218 91.3284 107.64 91.3284 107.64" fill="#1A2980"/>
</g>
<path d="M39.606 103.776C39.606 103.776 41.2344 98.4575 41.2344 89.976C41.2344 81.4945 42.6447 75.3176 44.3835 72.6046C46.1223 69.8915 47.748 68.804 48.5097 68.804C49.2715 68.804 48.725 69.7811 47.6403 71.1914C46.5557 72.6018 45.5786 73.3636 45.1425 75.0996C44.7065 76.8356 44.7092 79.0105 45.2529 78.7925C45.7967 78.5745 46.6633 74.233 47.4223 72.6046C48.1813 70.9762 50.0305 68.9117 51.1152 67.9346C52.1999 66.9576 54.59 64.0265 55.6747 64.7855C56.7594 65.5445 56.1108 66.6319 55.4594 67.0653C54.8081 67.4986 52.1999 70.1013 51.0075 71.7352C49.8152 73.3691 49.0535 77.4898 49.7048 77.5974C50.3562 77.705 52.3103 71.6275 53.3949 70.322C54.4796 69.0166 58.8239 65.4368 59.8009 65.3292C60.7779 65.2216 60.8883 66.7396 60.0189 67.5013C59.1495 68.2631 56.2184 71.5171 55.2414 73.4712C54.2643 75.4253 53.8283 79.0105 54.6894 78.1411C55.5505 77.2717 56.9691 73.6892 58.1642 72.4942C59.3593 71.2991 62.9418 67.5013 63.8112 67.9346C64.6806 68.368 64.4625 69.4554 63.7035 70.2144C62.9445 70.9734 60.0107 75.0996 59.2517 77.2717C58.4927 79.4438 57.6205 85.5241 58.0566 84.6547C58.4927 83.7853 59.903 79.3362 60.662 77.4787C61.421 75.6212 62.9418 74.7629 63.1598 75.6323C63.3779 76.5017 62.9418 76.935 62.3981 78.8891C61.8543 80.8432 61.8461 86.0651 60.2287 88.9879C58.6113 91.9108 52.302 99.8458 51.4326 102.018C50.5632 104.19 48.6091 108.968 48.6091 108.968" fill="white"/>
<path d="M39.606 103.776C39.606 103.776 41.2344 98.4575 41.2344 89.976C41.2344 81.4945 42.6447 75.3176 44.3835 72.6046C46.1223 69.8915 47.748 68.804 48.5097 68.804C49.2715 68.804 48.725 69.7811 47.6403 71.1914C46.5557 72.6018 45.5786 73.3636 45.1425 75.0996C44.7065 76.8356 44.7092 79.0105 45.2529 78.7925C45.7967 78.5745 46.6633 74.233 47.4223 72.6046C48.1813 70.9762 50.0305 68.9117 51.1152 67.9346C52.1999 66.9576 54.59 64.0265 55.6747 64.7855C56.7594 65.5445 56.1108 66.6319 55.4594 67.0653C54.8081 67.4986 52.1999 70.1013 51.0075 71.7352C49.8152 73.3691 49.0535 77.4898 49.7048 77.5974C50.3562 77.705 52.3103 71.6275 53.3949 70.322C54.4796 69.0166 58.8239 65.4368 59.8009 65.3292C60.7779 65.2216 60.8883 66.7396 60.0189 67.5013C59.1495 68.2631 56.2184 71.5171 55.2414 73.4712C54.2643 75.4253 53.8283 79.0105 54.6894 78.1411C55.5505 77.2717 56.9691 73.6892 58.1642 72.4942C59.3593 71.2991 62.9418 67.5013 63.8112 67.9346C64.6806 68.368 64.4625 69.4554 63.7035 70.2144C62.9445 70.9734 60.0107 75.0996 59.2517 77.2717C58.4927 79.4438 57.6205 85.5241 58.0566 84.6547C58.4927 83.7853 59.903 79.3362 60.662 77.4787C61.421 75.6212 62.9418 74.7629 63.1598 75.6323C63.3779 76.5017 62.9418 76.935 62.3981 78.8891C61.8543 80.8432 61.8461 86.0651 60.2287 88.9879C58.6113 91.9108 52.302 99.8458 51.4326 102.018C50.5632 104.19 48.6091 108.968 48.6091 108.968" stroke="#2E353A" stroke-linecap="round" stroke-linejoin="round"/>
<path d="M100.71 103.776C100.71 103.776 99.0812 98.4575 99.0812 89.976C99.0812 81.4945 97.6681 75.3176 95.9321 72.6046C94.196 69.8915 92.5649 68.804 91.8059 68.804C91.0469 68.804 91.5878 69.7811 92.6753 71.1914C93.7627 72.6018 94.737 73.3636 95.1593 75.0996C95.5816 76.8356 95.5954 79.0105 95.0516 78.7925C94.5079 78.5745 93.6413 74.233 92.8795 72.6046C92.1177 70.9762 90.2741 68.9117 89.1894 67.9346C88.1047 66.9576 85.7146 64.0265 84.6271 64.7855C83.5397 65.5445 84.1938 66.6319 84.8452 67.0653C85.4965 67.4986 88.102 70.1013 89.297 71.7352C90.4921 73.3691 91.2511 77.4898 90.5998 77.5974C89.9484 77.705 87.9943 71.6275 86.9096 70.322C85.825 69.0166 81.478 65.4368 80.5009 65.3292C79.5239 65.2216 79.4162 66.7396 80.2856 67.5013C81.155 68.2631 84.0862 71.5171 85.0632 73.4712C86.0402 75.4253 86.4736 79.0105 85.6152 78.1411C84.7568 77.2717 83.3354 73.6892 82.1431 72.4942C80.9508 71.2991 77.3656 67.5013 76.4962 67.9346C75.6268 68.368 75.8448 69.4554 76.6038 70.2144C77.3628 70.9734 80.2967 75.0996 81.0557 77.2717C81.8147 79.4438 82.6841 85.5241 82.2508 84.6547C81.8174 83.7853 80.4043 79.3362 79.6453 77.4787C78.8863 75.6212 77.3656 74.7629 77.1475 75.6323C76.9295 76.5017 77.3656 76.935 77.9065 78.8891C78.4475 80.8432 78.4585 86.0651 80.0786 88.9879C81.6988 91.9108 88.0054 99.8458 88.8748 102.018C89.7442 104.19 91.6982 108.968 91.6982 108.968" fill="white"/>
<path d="M100.71 103.776C100.71 103.776 99.0812 98.4575 99.0812 89.976C99.0812 81.4945 97.6681 75.3176 95.9321 72.6046C94.196 69.8915 92.5649 68.804 91.8059 68.804C91.0469 68.804 91.5878 69.7811 92.6753 71.1914C93.7627 72.6018 94.737 73.3636 95.1593 75.0996C95.5816 76.8356 95.5954 79.0105 95.0516 78.7925C94.5079 78.5745 93.6413 74.233 92.8795 72.6046C92.1177 70.9762 90.2741 68.9117 89.1894 67.9346C88.1047 66.9576 85.7146 64.0265 84.6271 64.7855C83.5397 65.5445 84.1938 66.6319 84.8452 67.0653C85.4965 67.4986 88.102 70.1013 89.297 71.7352C90.4921 73.3691 91.2511 77.4898 90.5998 77.5974C89.9484 77.705 87.9943 71.6275 86.9096 70.322C85.825 69.0166 81.478 65.4368 80.5009 65.3292C79.5239 65.2216 79.4162 66.7396 80.2856 67.5013C81.155 68.2631 84.0862 71.5171 85.0632 73.4712C86.0402 75.4253 86.4736 79.0105 85.6152 78.1411C84.7568 77.2717 83.3354 73.6892 82.1431 72.4942C80.9508 71.2991 77.3656 67.5013 76.4962 67.9346C75.6268 68.368 75.8448 69.4554 76.6038 70.2144C77.3628 70.9734 80.2967 75.0996 81.0557 77.2717C81.8147 79.4438 82.6841 85.5241 82.2508 84.6547C81.8174 83.7853 80.4043 79.3362 79.6453 77.4787C78.8863 75.6212 77.3656 74.7629 77.1475 75.6323C76.9295 76.5017 77.3656 76.935 77.9065 78.8891C78.4475 80.8432 78.4585 86.0651 80.0786 88.9879C81.6988 91.9108 88.0054 99.8458 88.8748 102.018C89.7442 104.19 91.6982 108.968 91.6982 108.968" stroke="#2E353A" stroke-linecap="round" stroke-linejoin="round"/>
<path d="M32.7336 120.336H49.2936C49.5089 119.508 49.7793 118.581 50.1216 117.576C51.4243 113.673 55.6416 108.794 55.6416 108.794C52.619 106.132 49.0673 104.139 45.2198 102.948C38.8718 100.994 34.224 101.568 34.224 101.568C35.0796 105.096 35.1737 108.765 34.5 112.332C33.672 116.351 33.12 118.893 32.7336 120.336Z" fill="#2E353A" stroke="#2E353A" stroke-linecap="round" stroke-linejoin="round"/>
<path d="M90.9144 120.336H108.12C107.568 118.906 106.376 115.801 105.184 112.696C103.555 108.468 104.207 102.777 103.555 102.777C102.904 102.777 95.5871 102.288 92.0101 103.425C88.4332 104.563 84.3649 107.817 84.3649 107.817C86.2066 109.956 87.7897 112.306 89.0818 114.816C89.9123 116.576 90.5276 118.429 90.9144 120.336Z" fill="#2E353A" stroke="#2E353A" stroke-linecap="round" stroke-linejoin="round"/>
<path d="M43.0781 104.935C42.9594 104.466 41.193 105.173 41.193 105.173C41.193 105.173 41.7836 102.937 40.8425 102.937C39.9013 102.937 39.7826 104.593 39.7826 104.593C39.7826 104.593 38.0162 103.889 38.0162 104.946C38.0162 106.003 39.192 105.984 39.192 105.984C39.192 105.984 37.7789 107.75 38.8387 108.101C39.8986 108.451 40.6024 107.16 40.6024 107.16C40.6024 107.16 41.3089 108.338 42.2584 107.866C43.2078 107.394 42.493 106.337 42.493 106.337C42.493 106.337 43.194 105.407 43.0781 104.935ZM40.7238 106.702C40.635 106.682 40.5535 106.637 40.4888 106.573C40.4242 106.509 40.3789 106.428 40.3583 106.34C40.3376 106.251 40.3424 106.158 40.3722 106.072C40.4019 105.986 40.4553 105.91 40.5263 105.853C40.5973 105.797 40.6829 105.761 40.7733 105.75C40.8637 105.74 40.9552 105.755 41.0373 105.795C41.1194 105.834 41.1887 105.896 41.2372 105.973C41.2858 106.049 41.3116 106.139 41.3117 106.23C41.2918 106.368 41.22 106.494 41.1108 106.582C41.0017 106.669 40.8634 106.712 40.7238 106.702ZM45.667 118.128C45.5483 117.659 43.7819 118.365 43.7819 118.365C43.7819 118.365 44.3725 116.13 43.4286 116.13C42.4847 116.13 42.3715 117.786 42.3715 117.786C42.3715 117.786 40.6051 117.079 40.6051 118.136C40.6051 119.193 41.7836 119.196 41.7836 119.196C41.7836 119.196 40.3705 120.963 41.4304 121.316C42.4902 121.669 43.194 120.372 43.194 120.372C43.194 120.372 43.9006 121.55 44.85 121.078C45.7994 120.606 45.0846 119.549 45.0846 119.549C45.0846 119.549 45.7829 118.586 45.667 118.128ZM43.3127 119.894C43.2238 119.875 43.1424 119.83 43.0777 119.766C43.013 119.702 42.9678 119.621 42.9471 119.532C42.9265 119.444 42.9313 119.351 42.961 119.265C42.9908 119.179 43.0442 119.103 43.1152 119.046C43.1861 118.989 43.2718 118.954 43.3622 118.943C43.4526 118.933 43.5441 118.948 43.6262 118.987C43.7083 119.027 43.7776 119.088 43.8261 119.165C43.8747 119.242 43.9005 119.331 43.9006 119.422C43.8806 119.56 43.8083 119.684 43.6988 119.77C43.5892 119.855 43.4508 119.895 43.3127 119.881V119.894ZM35.3087 119.894C35.19 119.422 33.4263 120.129 33.4263 120.129C33.4263 120.129 34.0142 117.893 33.0731 117.893C32.1319 117.893 32.0132 119.549 32.0132 119.549C32.0132 119.549 30.2468 118.843 30.2468 119.903C30.2468 120.963 31.4253 120.963 31.4253 120.963C31.4253 120.963 30.0122 122.726 31.0721 123.079C32.1319 123.433 32.8357 122.138 32.8357 122.138C32.8357 122.138 33.5423 123.314 34.4917 122.845C35.4411 122.376 34.7291 121.316 34.7291 121.316C34.7291 121.316 35.4273 120.35 35.3114 119.881L35.3087 119.894ZM32.9544 121.658C32.8654 121.638 32.7839 121.594 32.7192 121.53C32.6545 121.465 32.6092 121.384 32.5887 121.295C32.5682 121.207 32.5732 121.114 32.6031 121.028C32.6331 120.942 32.6868 120.866 32.758 120.809C32.8292 120.752 32.9151 120.717 33.0056 120.707C33.0962 120.696 33.1878 120.712 33.2698 120.752C33.3518 120.792 33.4209 120.854 33.4691 120.931C33.5173 121.008 33.5427 121.098 33.5423 121.189C33.5217 121.325 33.4495 121.449 33.3406 121.533C33.2317 121.618 33.0945 121.658 32.9571 121.644L32.9544 121.658ZM48.1344 110.715H49.4288C50.37 110.715 50.9579 111.774 50.9579 111.774C48.9596 112.349 48.1372 110.701 48.1372 110.701L48.1344 110.715ZM46.84 119.894H48.1344C49.0756 119.894 49.6634 120.954 49.6634 120.954C47.6652 121.528 46.8427 119.881 46.8427 119.881L46.84 119.894ZM35.546 118.128H36.8405C37.7816 118.128 38.3695 119.188 38.3695 119.188C36.3685 119.762 35.546 118.128 35.546 118.128ZM41.803 109.823L42.5592 110.875C43.1112 111.642 42.5896 112.735 42.5896 112.735C40.9446 111.441 41.803 109.809 41.803 109.809V109.823ZM35.328 113.339L35.9186 112.188C36.3519 111.36 37.5608 111.311 37.5608 111.311C37.1551 113.359 35.328 113.339 35.328 113.339Z" fill="white"/>
<path d="M98.5016 107.171C98.383 106.702 96.6166 107.408 96.6166 107.408C96.6166 107.408 97.2072 105.173 96.266 105.173C95.3249 105.173 95.2062 106.829 95.2062 106.829C95.2062 106.829 93.4398 106.125 93.4398 107.182C93.4398 108.239 94.6183 108.242 94.6183 108.242C94.6183 108.242 93.2052 110.008 94.265 110.361C95.3249 110.715 96.0287 109.417 96.0287 109.417C96.0287 109.417 96.7352 110.596 97.6847 110.124C98.6341 109.652 97.9193 108.595 97.9193 108.595C97.9193 108.595 98.6176 107.64 98.5016 107.171ZM96.1473 108.937C96.0585 108.917 95.9771 108.873 95.9124 108.809C95.8477 108.745 95.8025 108.664 95.7818 108.575C95.7612 108.487 95.766 108.394 95.7957 108.308C95.8255 108.222 95.8789 108.146 95.9499 108.089C96.0208 108.032 96.1064 107.996 96.1969 107.986C96.2873 107.975 96.3788 107.991 96.4609 108.03C96.543 108.069 96.6123 108.131 96.6608 108.208C96.7093 108.285 96.7351 108.374 96.7352 108.465C96.7186 108.605 96.6477 108.733 96.5377 108.821C96.4278 108.91 96.2876 108.951 96.1473 108.937ZM104.03 116.351C103.914 115.879 102.148 116.585 102.148 116.585C102.148 116.585 102.735 114.35 101.794 114.35C100.853 114.35 100.737 116.006 100.737 116.006C100.737 116.006 98.9708 115.299 98.9708 116.359C98.9708 117.419 100.147 117.419 100.147 117.419C100.147 117.419 98.7362 119.182 99.7961 119.536C100.856 119.889 101.56 118.594 101.56 118.594C101.56 118.594 102.266 119.77 103.216 119.301C104.165 118.832 103.45 117.772 103.45 117.772C103.45 117.772 104.149 116.82 104.03 116.351ZM101.678 118.128C101.589 118.108 101.508 118.064 101.443 118C101.378 117.935 101.333 117.854 101.313 117.765C101.292 117.677 101.297 117.584 101.327 117.498C101.357 117.412 101.411 117.336 101.482 117.279C101.553 117.222 101.639 117.187 101.73 117.177C101.82 117.166 101.912 117.182 101.994 117.222C102.076 117.262 102.145 117.324 102.193 117.401C102.241 117.478 102.267 117.568 102.266 117.659C102.249 117.798 102.178 117.925 102.068 118.013C101.958 118.101 101.818 118.142 101.678 118.128ZM98.1483 119.894C98.0297 119.422 96.266 120.129 96.266 120.129C96.266 120.129 96.8539 117.893 95.9128 117.893C94.9716 117.893 94.8529 119.549 94.8529 119.549C94.8529 119.549 93.0865 118.843 93.0865 119.903C93.0865 120.963 94.265 120.963 94.265 120.963C94.265 120.963 92.8519 122.726 93.9118 123.079C94.9716 123.433 95.6754 122.138 95.6754 122.138C95.6754 122.138 96.382 123.314 97.3314 122.845C98.2808 122.376 97.5688 121.316 97.5688 121.316C97.5688 121.316 98.256 120.35 98.1483 119.881V119.894ZM95.7941 121.658C95.7051 121.638 95.6236 121.594 95.5589 121.53C95.4942 121.465 95.4489 121.384 95.4284 121.295C95.4079 121.207 95.4128 121.114 95.4428 121.028C95.4727 120.942 95.5264 120.866 95.5977 120.809C95.6689 120.752 95.7547 120.717 95.8453 120.707C95.9359 120.696 96.0274 120.712 96.1095 120.752C96.1915 120.792 96.2606 120.854 96.3088 120.931C96.357 121.008 96.3824 121.098 96.382 121.189C96.3614 121.326 96.2888 121.45 96.1793 121.534C96.0698 121.619 95.9318 121.659 95.7941 121.644V121.658ZM103.561 112.95H104.855C105.796 112.95 106.384 114.01 106.384 114.01C104.383 114.584 103.561 112.936 103.561 112.936V112.95ZM89.6752 119.646H90.9696C91.9108 119.646 92.4986 120.703 92.4986 120.703C90.4976 121.294 89.6752 119.646 89.6752 119.646ZM97.2265 112.056L97.9828 113.108C98.5348 113.875 98.0131 114.968 98.0131 114.968C96.3682 113.676 97.2265 112.056 97.2265 112.056ZM104.88 118.636L105.633 119.687C106.185 120.452 105.664 121.548 105.664 121.548C104.019 120.264 104.88 118.636 104.88 118.636ZM90.7405 115.575L91.3312 114.424C91.7645 113.596 92.9872 113.546 92.9872 113.546C92.5787 115.594 90.7378 115.575 90.7378 115.575H90.7405Z" fill="white"/>
</svg>
