<svg width="109" height="21" viewBox="0 0 109 21" fill="none" xmlns="http://www.w3.org/2000/svg">
<path d="M16.3182 10.2727C16.3182 4.63068 12.875 1.30682 8.2983 1.30682C3.71307 1.30682 0.278409 4.63068 0.278409 10.2727C0.278409 15.9062 3.71307 19.2386 8.2983 19.2386C9.40625 19.2386 10.446 19.0426 11.392 18.6676L12.8324 20.5H15.9006L13.4801 17.3977C15.2358 15.8636 16.3182 13.4347 16.3182 10.2727ZM7.22443 13.1364L9.58523 16.2386C9.17614 16.3494 8.75 16.4006 8.2983 16.4006C5.46023 16.4006 3.45739 14.2443 3.45739 10.2727C3.45739 6.30114 5.46023 4.14489 8.2983 4.14489C11.1449 4.14489 13.1392 6.30114 13.1392 10.2727C13.1392 12.4205 12.5597 14.0312 11.571 15.0625L10.0881 13.1364H7.22443ZM27.5384 13.4943C27.5384 15.4886 26.1151 16.4773 24.7514 16.4773C23.2685 16.4773 22.2798 15.429 22.2798 13.767V5.90909H19.1946V14.2443C19.1946 17.3892 20.9844 19.1705 23.5582 19.1705C25.5185 19.1705 26.8991 18.1392 27.4957 16.6733H27.6321V19H30.6236V5.90909H27.5384V13.4943ZM33.7962 19H36.8814V5.90909H33.7962V19ZM35.3473 4.05114C36.3274 4.05114 37.1286 3.30114 37.1286 2.38068C37.1286 1.4517 36.3274 0.701704 35.3473 0.701704C34.3587 0.701704 33.5575 1.4517 33.5575 2.38068C33.5575 3.30114 34.3587 4.05114 35.3473 4.05114ZM39.8835 19H50.6307V16.4432H43.983V16.3324L50.4091 8.0142V5.90909H40.1051V8.46591H46.6335V8.5767L39.8835 17.0398V19ZM57.2976 19.2642C59.3516 19.2642 60.5788 18.3011 61.1413 17.2017H61.2436V19H64.2095V10.2386C64.2095 6.77841 61.3885 5.73864 58.8913 5.73864C56.1385 5.73864 54.0249 6.96591 53.343 9.35227L56.2237 9.76136C56.5305 8.86648 57.3999 8.09943 58.9084 8.09943C60.3402 8.09943 61.1243 8.83239 61.1243 10.1193V10.1705C61.1243 11.0568 60.1953 11.0994 57.8857 11.3466C55.3459 11.6193 52.9169 12.3778 52.9169 15.3267C52.9169 17.9006 54.8004 19.2642 57.2976 19.2642ZM58.0987 16.9972C56.8118 16.9972 55.8913 16.4091 55.8913 15.2756C55.8913 14.0909 56.9226 13.5966 58.3033 13.4006C59.1129 13.2898 60.7322 13.0852 61.1328 12.7614V14.304C61.1328 15.7614 59.9567 16.9972 58.0987 16.9972ZM73.8487 5.90909H71.2663V2.77273H68.1811V5.90909H66.3232V8.29545H68.1811V15.5739C68.1641 18.0369 69.9538 19.2472 72.272 19.179C73.1499 19.1534 73.755 18.983 74.0874 18.8722L73.5675 16.4602C73.397 16.5028 73.0476 16.5795 72.6641 16.5795C71.8885 16.5795 71.2663 16.3068 71.2663 15.0625V8.29545H73.8487V5.90909ZM76.429 19H79.5142V5.90909H76.429V19ZM77.9801 4.05114C78.9602 4.05114 79.7614 3.30114 79.7614 2.38068C79.7614 1.4517 78.9602 0.701704 77.9801 0.701704C76.9915 0.701704 76.1903 1.4517 76.1903 2.38068C76.1903 3.30114 76.9915 4.05114 77.9801 4.05114ZM88.397 19.2557C92.2322 19.2557 94.6697 16.554 94.6697 12.5057C94.6697 8.44886 92.2322 5.73864 88.397 5.73864C84.5618 5.73864 82.1243 8.44886 82.1243 12.5057C82.1243 16.554 84.5618 19.2557 88.397 19.2557ZM88.4141 16.7841C86.2919 16.7841 85.2521 14.892 85.2521 12.4972C85.2521 10.1023 86.2919 8.18466 88.4141 8.18466C90.5021 8.18466 91.5419 10.1023 91.5419 12.4972C91.5419 14.892 90.5021 16.7841 88.4141 16.7841ZM100.374 11.3295C100.374 9.4375 101.516 8.34659 103.143 8.34659C104.737 8.34659 105.692 9.39489 105.692 11.142V19H108.777V10.6648C108.786 7.52841 106.996 5.73864 104.294 5.73864C102.334 5.73864 100.987 6.67614 100.391 8.13352H100.237V5.90909H97.2884V19H100.374V11.3295Z" fill="url(#paint0_linear_3_6634)"/>
<defs>
<linearGradient id="paint0_linear_3_6634" x1="-1" y1="13.9118" x2="111" y2="13.9118" gradientUnits="userSpaceOnUse">
<stop stop-color="#1A2980"/>
<stop offset="1" stop-color="#26D0CE"/>
</linearGradient>
</defs>
</svg>
