<?xml version="1.0" encoding="UTF-8"?>
<!DOCTYPE svg PUBLIC "-//W3C//DTD SVG 1.1//EN" "http://www.w3.org/Graphics/SVG/1.1/DTD/svg11.dtd">
<!-- Creator: CorelDRAW X6 -->
<svg xmlns="http://www.w3.org/2000/svg" xml:space="preserve" width="248px" height="118px" version="1.1" style="shape-rendering:geometricPrecision; text-rendering:geometricPrecision; image-rendering:optimizeQuality; fill-rule:evenodd; clip-rule:evenodd"
viewBox="0 0 252 118"
 xmlns:xlink="http://www.w3.org/1999/xlink">
 <defs>
  <style type="text/css">
   <![CDATA[
    .fil1 {fill:#444}
    .fil0 {fill:#6CADDF}
    .fnt0 {font-weight:normal;font-size:28.6712px;font-family:'Trebuchet MS'}
   ]]>
  </style>
 </defs>
 <g id="Layer_x0020_1">
  <metadata id="CorelCorpID_0Corel-Layer"/>
  <g id="_336749992">
   <path class="fil0" d="M55 8l-47 0 0 52c0,23 17,42 38,44l0 -54c0,-2 2,-3 4,-3l5 0 0 -5c-2,0 -4,-2 -6,-3 -3,-3 -5,-8 -5,-12l0 0 0 0 0 0c0,-5 2,-9 5,-12 1,-1 1,-1 1,-1 1,-1 3,-2 5,-3l0 -3zm7 5c7,0 13,6 13,14 0,7 -6,13 -13,13 -8,0 -14,-6 -14,-13 0,-8 6,-14 14,-14zm12 91l0 -54 -24 0 0 54 24 0z"/>
   <text x="94" y="71"  class="fil1 fnt0">Wydział</text>
   <text x="94" y="104"  class="fil1 fnt0">Informatyki</text>
  </g>
 </g>
</svg>
